<svg xmlns="http://www.w3.org/2000/svg" viewBox="0 0 224.89 197.99"><defs><style>.cls-1{fill:#78be43}.cls-2{fill:#2bafa2}.cls-3{fill:#fff}</style></defs><title>bar-chart</title><g id="Layer_2" data-name="Layer 2"><g id="Layer_1-2" data-name="Layer 1"><circle cx="115.09" cy="99" r="99"/><path class="cls-1" d="M0 121.86H3.98V132.84H0z"/><path class="cls-1" d="M11.05 112.67H15.030000000000001V132.84H11.05z"/><path class="cls-1" d="M22.09 90.44H26.07V132.84H22.09z"/><path class="cls-1" d="M33.14 106.22H37.12V132.84H33.14z"/><path class="cls-1" d="M44.18 100.59H48.16V132.84H44.18z"/><path class="cls-1" d="M55.23 115.27H59.209999999999994V132.82999999999998H55.23z"/><path class="cls-1" d="M66.27 128.45H70.25V132.83999999999997H66.27z"/><path class="cls-1" d="M77.32 132.84H81.3V137.64000000000001H77.32z"/><path class="cls-1" d="M88.36 132.84H92.34V155.62H88.36z"/><path class="cls-1" d="M99.41 132.84H103.39V143.64000000000001H99.41z"/><path class="cls-1" d="M110.46 124.81H114.44V132.84H110.46z"/><path class="cls-1" d="M121.5 109.99H125.48V132.84H121.5z"/><path class="cls-1" d="M132.55 85.7H136.53V132.83H132.55z"/><path class="cls-1" d="M143.59 100.59H147.57V132.84H143.59z"/><path class="cls-1" d="M154.64 106.22H158.61999999999998V132.84H154.64z"/><path class="cls-1" d="M165.68 90.44H169.66V132.84H165.68z"/><path class="cls-1" d="M176.73 71.3H180.70999999999998V132.84H176.73z"/><path class="cls-1" d="M187.77 40.22H191.75V132.84H187.77z"/><path class="cls-1" d="M198.82 59.56H202.79999999999998V132.82999999999998H198.82z"/><path class="cls-1" d="M209.87 66.56H213.85V132.82999999999998H209.87z"/><path class="cls-1" d="M220.91 51.54H224.89V132.84H220.91z"/><path class="cls-2" d="M90.26 164.41L79.03 142.24 68.01 122.25 57 111.03 46.03 98.02 34.97 98.09 34.88 97.97 24.15 83.7 13.24 108.37 2.19 118.32 1.78 117.86 12.78 107.95 24.01 82.49 35.28 97.47 46.31 97.4 57.45 110.61 68.53 121.92 79.58 141.95 90.45 163.42 101.13 154.13 112.15 119.91 123.22 98.67 134.5 76.79 145.8 94.12 156.53 100.52 167.42 84.23 178.44 61.56 189.7 31.41 201.03 50.35 211.8 56.77 222.68 45.15 223.13 45.57 211.91 57.56 211.69 57.43 200.55 50.74 189.83 32.83 179.01 61.8 167.95 84.54 156.72 101.35 145.32 94.52 134.57 78.02 123.77 98.95 112.72 120.15 101.67 154.49 101.6 154.55 90.26 164.41z"/><path class="cls-3" d="M93,140.53a16.73,16.73,0,0,1-2.66-.22C87.73,139.89,85.93,139,82,137l-2.82-1.44c-2.62-1.31-6.41-2.79-9.45-4l-1.57-.61A39.91,39.91,0,0,1,57,124.3c-.6-.48-1.27-1.08-2-1.73-2.46-2.21-5.51-5-8.65-5.55a12.58,12.58,0,0,0-6,.4,10.64,10.64,0,0,1-5.38.33,16.82,16.82,0,0,1-4.9-2A10.59,10.59,0,0,0,24.08,114c-10.16,0-21.74,13.84-21.85,14l-.48-.4c.48-.58,11.88-14.2,22.33-14.2a11.3,11.3,0,0,1,6.38,1.84,16,16,0,0,0,4.73,2,10.27,10.27,0,0,0,5.1-.33,13.24,13.24,0,0,1,6.21-.41c3.31.63,6.44,3.44,9,5.7.71.64,1.38,1.24,2,1.71a38.82,38.82,0,0,0,11,6.53l1.57.61c3.06,1.19,6.86,2.67,9.51,4l2.83,1.45c3.87,2,5.64,2.89,8.12,3.29a14.78,14.78,0,0,0,10.82-2.31,99.12,99.12,0,0,0,11-8.79c2.1-2,4.1-4.16,6-6.21,5.81-6.15,10.84-11.46,16.2-12.7,4.57-1.06,8.64,1.35,12.58,3.67,3.12,1.85,6.34,3.75,9.88,4,.2,0,.41,0,.62,0,8.12,0,17.79-12.67,20.91-17.69,2.73-4.39,6.2-9.1,11.21-10.62,3.49-1.07,7,.92,10.67,3s7.21,4.1,11.52,4.16h.24A14.15,14.15,0,0,0,222.66,92l.48.39c-.15.19-3.86,4.66-11.29,4.54-4.47-.06-8.37-2.28-11.81-4.24-3.73-2.13-6.95-4-10.19-3-4.82,1.47-8.2,6.06-10.87,10.36-3.16,5.1-13,18-21.45,18l-.65,0c-3.68-.31-7-2.25-10.14-4.13-4-2.36-7.8-4.6-12.13-3.6-5.18,1.2-10.15,6.45-15.89,12.52-1.94,2-4,4.17-6.06,6.23a98.24,98.24,0,0,1-11.09,8.85A15.2,15.2,0,0,1,93,140.53Z"/></g></g></svg>