<svg xmlns="http://www.w3.org/2000/svg" viewBox="0 0 200.9 197.99"><defs><style>.cls-1{fill:none;stroke:#78be43;stroke-miterlimit:10;stroke-width:0.5px;}.cls-2{fill:#f3f9fd;}.cls-3{fill:#2bafa1;}.cls-4{fill:#78be43;}.cls-5{fill:#256242;}</style></defs><title>bar2</title><g id="Layer_2" data-name="Layer 2"><g id="Layer_1-2" data-name="Layer 1"><circle cx="101.91" cy="99" r="99"/><polyline class="cls-1" points="179.89 39.29 171.57 52.45 143.41 68.06 115.26 52.01 87.09 62.41 57.05 84.38 30.78 83.43 3.91 117.69"/><line class="cls-1" x1="13.78" y1="148.48" x2="191.86" y2="148.48"/><rect class="cls-2" x="11.31" y="132.77" width="8.69" height="15.71"/><rect class="cls-2" x="23.91" y="120.54" width="8.69" height="27.93"/><rect class="cls-2" x="36.52" y="125.33" width="8.69" height="23.15"/><rect class="cls-2" x="49.12" y="117.06" width="8.69" height="31.41"/><rect class="cls-2" x="61.72" y="108.69" width="8.69" height="39.78"/><rect class="cls-2" x="74.33" y="124.35" width="8.69" height="24.13"/><rect class="cls-2" x="86.93" y="115.87" width="8.69" height="32.61"/><rect class="cls-2" x="99.54" y="106.85" width="8.69" height="41.63"/><rect class="cls-2" x="112.14" y="111.41" width="8.69" height="37.06"/><rect class="cls-2" x="124.75" y="99.67" width="8.69" height="48.8"/><rect class="cls-2" x="137.35" y="128.1" width="8.7" height="20.38"/><rect class="cls-2" x="149.96" y="108.21" width="8.69" height="40.27"/><rect class="cls-2" x="162.56" y="94.78" width="8.69" height="53.69"/><rect class="cls-2" x="175.17" y="90.33" width="8.69" height="58.15"/><rect class="cls-3" x="11.31" y="127.13" width="8.69" height="5.63"/><rect class="cls-3" x="23.91" y="102.69" width="8.69" height="17.85"/><rect class="cls-3" x="36.52" y="108.21" width="8.69" height="17.12"/><rect class="cls-3" x="49.12" y="105.19" width="8.69" height="11.87"/><rect class="cls-3" x="61.72" y="88.21" width="8.69" height="20.49"/><rect class="cls-3" x="74.33" y="110.3" width="8.69" height="14.05"/><rect class="cls-3" x="86.93" y="93.34" width="8.69" height="22.53"/><rect class="cls-3" x="99.54" y="85.57" width="8.69" height="21.28"/><rect class="cls-3" x="112.14" y="82.27" width="8.69" height="29.14"/><rect class="cls-3" x="124.75" y="76.97" width="8.69" height="22.7"/><rect class="cls-3" x="137.35" y="95.41" width="8.7" height="32.69"/><rect class="cls-3" x="149.96" y="78.02" width="8.69" height="30.19"/><rect class="cls-3" x="162.56" y="70.74" width="8.69" height="24.05"/><rect class="cls-3" x="175.17" y="52.45" width="8.69" height="37.88"/><polygon class="cls-4" points="192.33 148.64 2.4 148.64 2.4 30.93 2.83 30.93 2.83 148.31 192.33 148.31 192.33 148.64"/><rect class="cls-4" y="135.27" width="2.61" height="0.32"/><rect class="cls-4" y="135.27" width="2.61" height="0.32"/><rect class="cls-4" y="122.23" width="2.61" height="0.33"/><rect class="cls-4" y="122.23" width="2.61" height="0.33"/><rect class="cls-4" y="109.18" width="2.61" height="0.33"/><rect class="cls-4" y="109.18" width="2.61" height="0.33"/><rect class="cls-4" y="96.14" width="2.61" height="0.32"/><rect class="cls-4" y="96.14" width="2.61" height="0.32"/><rect class="cls-4" y="83.1" width="2.61" height="0.33"/><rect class="cls-4" y="83.1" width="2.61" height="0.33"/><rect class="cls-4" y="70.06" width="2.61" height="0.32"/><rect class="cls-4" y="70.06" width="2.61" height="0.32"/><rect class="cls-4" y="57.01" width="2.61" height="0.33"/><rect class="cls-4" y="57.01" width="2.61" height="0.33"/><rect class="cls-4" y="43.97" width="2.61" height="0.33"/><rect class="cls-4" y="43.97" width="2.61" height="0.33"/><rect class="cls-4" y="30.93" width="2.61" height="0.33"/><rect class="cls-4" y="30.93" width="2.61" height="0.33"/><rect class="cls-4" x="28.04" y="148.48" width="0.43" height="1.96"/><rect class="cls-4" x="15.44" y="148.48" width="0.44" height="1.96"/><rect class="cls-4" x="40.65" y="148.48" width="0.44" height="1.96"/><rect class="cls-4" x="28.04" y="148.48" width="0.43" height="1.96"/><rect class="cls-4" x="53.25" y="148.48" width="0.44" height="1.96"/><rect class="cls-4" x="40.65" y="148.48" width="0.44" height="1.96"/><rect class="cls-4" x="65.85" y="148.48" width="0.44" height="1.96"/><rect class="cls-4" x="53.25" y="148.48" width="0.44" height="1.96"/><rect class="cls-4" x="78.46" y="148.48" width="0.44" height="1.96"/><rect class="cls-4" x="65.85" y="148.48" width="0.44" height="1.96"/><rect class="cls-4" x="91.06" y="148.48" width="0.44" height="1.96"/><rect class="cls-4" x="78.46" y="148.48" width="0.44" height="1.96"/><rect class="cls-4" x="103.67" y="148.48" width="0.44" height="1.96"/><rect class="cls-4" x="91.06" y="148.48" width="0.44" height="1.96"/><rect class="cls-4" x="116.27" y="148.48" width="0.43" height="1.96"/><rect class="cls-4" x="103.67" y="148.48" width="0.44" height="1.96"/><rect class="cls-4" x="128.87" y="148.48" width="0.44" height="1.96"/><rect class="cls-4" x="116.27" y="148.48" width="0.43" height="1.96"/><rect class="cls-4" x="141.48" y="148.48" width="0.43" height="1.96"/><rect class="cls-4" x="128.87" y="148.48" width="0.44" height="1.96"/><rect class="cls-4" x="154.09" y="148.48" width="0.44" height="1.96"/><rect class="cls-4" x="141.48" y="148.48" width="0.43" height="1.96"/><rect class="cls-4" x="166.69" y="148.48" width="0.44" height="1.96"/><rect class="cls-4" x="154.09" y="148.48" width="0.44" height="1.96"/><rect class="cls-4" x="179.29" y="148.48" width="0.43" height="1.96"/><rect class="cls-4" x="166.69" y="148.48" width="0.44" height="1.96"/><rect class="cls-4" x="179.29" y="148.48" width="0.43" height="1.96"/><rect class="cls-5" x="11.31" y="148.65" width="8.69" height="9.93"/><rect class="cls-5" x="23.91" y="148.65" width="8.69" height="17.66"/><rect class="cls-5" x="36.52" y="148.65" width="8.69" height="14.64"/><rect class="cls-5" x="49.12" y="148.65" width="8.69" height="19.86"/><rect class="cls-5" x="61.72" y="148.65" width="8.69" height="25.15"/><rect class="cls-5" x="74.33" y="148.65" width="8.69" height="15.25"/><rect class="cls-5" x="86.93" y="148.65" width="8.69" height="20.62"/><rect class="cls-5" x="99.54" y="148.65" width="8.69" height="26.32"/><rect class="cls-5" x="112.14" y="148.65" width="8.69" height="23.44"/><rect class="cls-5" x="124.75" y="148.65" width="8.69" height="30.86"/><rect class="cls-5" x="137.35" y="148.65" width="8.7" height="12.89"/><rect class="cls-5" x="149.96" y="148.65" width="8.69" height="25.46"/><rect class="cls-5" x="162.56" y="148.65" width="8.69" height="33.95"/><rect class="cls-5" x="175.17" y="148.65" width="8.69" height="36.77"/></g></g></svg>