<svg xmlns="http://www.w3.org/2000/svg" xmlns:xlink="http://www.w3.org/1999/xlink" viewBox="0 0 694.31 545.22"><defs><style>.a{mask:url(#a);filter:url(#h);}.b,.d{mix-blend-mode:multiply;}.b{fill:url(#c);}.c{mask:url(#d);filter:url(#k);}.d{fill:url(#f);}.e{fill:none;}.f{fill:#77c043;}.g{fill:#29aea1;}.h{fill:#346734;}.i{fill:#d1d3d4;}.j{fill:#79bd43;}.k{mask:url(#g);}.l,.n{opacity:0.59;}.l{fill:url(#i);}.m{mask:url(#j);}.n{fill:url(#l);}.o{clip-path:url(#m);}.p{fill:#fff;}.q{filter:url(#e);}.r{filter:url(#b);}</style><filter id="b" x="253.12" y="-8464.41" width="256.66" height="32766" filterUnits="userSpaceOnUse" color-interpolation-filters="sRGB"><feFlood flood-color="#fff" result="bg"/><feBlend in="SourceGraphic" in2="bg"/></filter><mask id="a" x="253.12" y="-8464.41" width="256.66" height="32766" maskUnits="userSpaceOnUse"><g class="r"/></mask><linearGradient id="c" x1="253.12" y1="275.73" x2="509.78" y2="275.73" gradientUnits="userSpaceOnUse"><stop offset="0" stop-color="#ccc"/><stop offset="0.09" stop-color="#dbdbdb"/><stop offset="0.24" stop-color="#efefef"/><stop offset="0.4" stop-color="#fbfbfb"/><stop offset="0.56" stop-color="#fff"/><stop offset="0.64" stop-color="#ededed"/><stop offset="0.81" stop-color="#bdbdbd"/><stop offset="1" stop-color="gray"/></linearGradient><filter id="e" x="175.1" y="-8464.41" width="296.36" height="32766" filterUnits="userSpaceOnUse" color-interpolation-filters="sRGB"><feFlood flood-color="#fff" result="bg"/><feBlend in="SourceGraphic" in2="bg"/></filter><mask id="d" x="175.1" y="-8464.41" width="296.36" height="32766" maskUnits="userSpaceOnUse"><g class="q"/></mask><linearGradient id="f" x1="210.96" y1="382.7" x2="379.35" y2="91.04" gradientUnits="userSpaceOnUse"><stop offset="0" stop-color="#1a1a1a"/><stop offset="0.03" stop-color="#373737"/><stop offset="0.11" stop-color="#767676"/><stop offset="0.17" stop-color="#a4a4a4"/><stop offset="0.22" stop-color="silver"/><stop offset="0.25" stop-color="#cbcbcb"/><stop offset="0.33" stop-color="#dbdbdb"/><stop offset="0.46" stop-color="#efefef"/><stop offset="0.6" stop-color="#fbfbfb"/><stop offset="0.73" stop-color="#fff"/><stop offset="0.76" stop-color="#ededed"/><stop offset="0.82" stop-color="#bdbdbd"/><stop offset="0.91" stop-color="#717171"/><stop offset="1" stop-color="#1a1a1a"/></linearGradient><filter id="h" x="253.12" y="117.74" width="256.66" height="315.98" filterUnits="userSpaceOnUse" color-interpolation-filters="sRGB"><feFlood flood-color="#fff" result="bg"/><feBlend in="SourceGraphic" in2="bg"/></filter><mask id="g" x="253.12" y="117.74" width="256.66" height="315.98" maskUnits="userSpaceOnUse"><g class="a"><path class="b" d="M494,215.46C518.67,304.79,466.26,397.25,376.88,422a167.35,167.35,0,0,1-123.76-13.64A167.49,167.49,0,0,0,386.6,427.6C476,402.87,528.38,310.39,503.66,221.07a167.3,167.3,0,0,0-82.81-103.33A167.21,167.21,0,0,1,494,215.46Z"/></g></mask><linearGradient id="i" x1="253.12" y1="275.73" x2="509.78" y2="275.73" gradientUnits="userSpaceOnUse"><stop offset="0" stop-color="#4e2c11"/><stop offset="0.14" stop-color="#512d10"/><stop offset="0.56" stop-color="#552e0f"/><stop offset="0.77" stop-color="#43240e"/><stop offset="1" stop-color="#2b170d"/></linearGradient><filter id="k" x="175.1" y="98.14" width="296.36" height="294.55" filterUnits="userSpaceOnUse" color-interpolation-filters="sRGB"><feFlood flood-color="#fff" result="bg"/><feBlend in="SourceGraphic" in2="bg"/></filter><mask id="j" x="175.1" y="98.14" width="296.36" height="294.55" maskUnits="userSpaceOnUse"><g class="c"><path class="d" d="M183.1,277a170.76,170.76,0,0,1,288.36-123.8A170.75,170.75,0,1,0,228.25,392.68,170.12,170.12,0,0,1,183.1,277Z"/></g></mask><linearGradient id="l" x1="210.96" y1="382.7" x2="379.35" y2="91.04" gradientUnits="userSpaceOnUse"><stop offset="0" stop-color="#f47521"/><stop offset="0.05" stop-color="#c15d1c"/><stop offset="0.12" stop-color="#824016"/><stop offset="0.18" stop-color="#542a11"/><stop offset="0.22" stop-color="#381d0e"/><stop offset="0.25" stop-color="#2d180d"/><stop offset="0.28" stop-color="#351b0e"/><stop offset="0.39" stop-color="#512712"/><stop offset="0.5" stop-color="#653015"/><stop offset="0.62" stop-color="#713516"/><stop offset="0.73" stop-color="#753717"/><stop offset="0.78" stop-color="#874018"/><stop offset="0.88" stop-color="#b7571c"/><stop offset="1" stop-color="#f47521"/></linearGradient><clipPath id="m"><path class="e" d="M163.28,259A180.21,180.21,0,1,1,334,448.21C234.65,443.12,158.19,358.43,163.28,259Z"/></clipPath></defs><title>crypto</title><circle cx="339.52" cy="272.61" r="272.61"/><rect class="f" x="652.48" y="445.76" width="2.38" height="9.58"/><path class="f" d="M655.86,456.35h-4.38V444.76h4.38Zm-2.38-2h.38v-7.59h-.38Z"/><rect class="f" x="690.92" y="444.57" width="2.38" height="10.78"/><path class="f" d="M694.31,456.35h-4.39V443.57h4.39Zm-2.39-2h.39v-8.78h-.39Z"/><rect class="f" x="614.2" y="445.76" width="2.38" height="9.58"/><path class="f" d="M617.58,456.35H613.2V444.76h4.38Zm-2.38-2h.38v-7.59h-.38Z"/><rect class="f" x="575.76" y="445.76" width="2.38" height="9.58"/><path class="f" d="M579.14,456.35h-4.38V444.76h4.38Zm-2.38-2h.38v-7.59h-.38Z"/><rect class="f" x="537.48" y="445.76" width="2.38" height="9.58"/><path class="f" d="M540.87,456.35h-4.39V444.76h4.39Zm-2.39-2h.39v-7.59h-.39Z"/><rect class="f" x="499.04" y="445.76" width="2.38" height="9.58"/><path class="f" d="M502.42,456.35H498V444.76h4.38Zm-2.38-2h.38v-7.59H500Z"/><rect class="f" x="460.77" y="445.76" width="2.38" height="9.58"/><path class="f" d="M464.15,456.35h-4.38V444.76h4.38Zm-2.38-2h.38v-7.59h-.38Z"/><rect class="f" x="422.32" y="445.76" width="2.38" height="9.58"/><path class="f" d="M425.7,456.35h-4.38V444.76h4.38Zm-2.38-2h.38v-7.59h-.38Z"/><rect class="f" x="384.05" y="445.76" width="2.38" height="9.58"/><path class="f" d="M387.43,456.35h-4.38V444.76h4.38Zm-2.38-2h.38v-7.59h-.38Z"/><rect class="f" x="345.6" y="445.76" width="2.38" height="9.58"/><path class="f" d="M349,456.35H344.6V444.76H349Zm-2.38-2H347v-7.59h-.38Z"/><rect class="f" x="307.16" y="445.76" width="2.38" height="9.58"/><path class="f" d="M310.54,456.35h-4.38V444.76h4.38Zm-2.38-2h.38v-7.59h-.38Z"/><rect class="f" x="268.88" y="445.76" width="2.38" height="9.58"/><path class="f" d="M272.26,456.35h-4.38V444.76h4.38Zm-2.38-2h.38v-7.59h-.38Z"/><rect class="f" x="230.44" y="445.76" width="2.38" height="9.58"/><path class="f" d="M233.82,456.35h-4.38V444.76h4.38Zm-2.38-2h.38v-7.59h-.38Z"/><rect class="f" x="192.16" y="445.76" width="2.38" height="9.58"/><path class="f" d="M195.54,456.35h-4.38V444.76h4.38Zm-2.38-2h.38v-7.59h-.38Z"/><rect class="f" x="153.72" y="445.76" width="2.38" height="9.58"/><path class="f" d="M157.1,456.35h-4.38V444.76h4.38Zm-2.38-2h.38v-7.59h-.38Z"/><rect class="f" x="115.44" y="445.76" width="2.38" height="9.58"/><path class="f" d="M118.83,456.35h-4.39V444.76h4.39Zm-2.39-2h.39v-7.59h-.39Z"/><rect class="f" x="77" y="445.76" width="2.38" height="9.58"/><path class="f" d="M80.38,456.35H76V444.76h4.38Zm-2.38-2h.38v-7.59H78Z"/><rect class="f" x="38.72" y="445.76" width="2.38" height="9.58"/><path class="f" d="M42.1,456.35H37.72V444.76H42.1Zm-2.38-2h.38v-7.59h-.38Z"/><rect class="f" x="1.47" y="444.57" width="690.65" height="2.38"/><path class="f" d="M693.11,448H.47v-4.38H693.11ZM2.47,446H691.11v-.38H2.47Z"/><rect class="f" x="3.19" y="22.64" width="9.58" height="2.38"/><path class="f" d="M13.77,26H2.19V21.64H13.77ZM4.19,24h7.58v-.38H4.19Z"/><rect class="f" x="2.19" y="61.92" width="9.58" height="2.38"/><path class="f" d="M12.77,65.3H1.19V60.92H12.77Zm-9.58-2h7.58v-.38H3.19Z"/><rect class="f" x="2.19" y="100.36" width="9.58" height="2.38"/><path class="f" d="M12.77,103.74H1.19V99.36H12.77Zm-9.58-2h7.58v-.38H3.19Z"/><rect class="f" x="2.19" y="138.81" width="9.58" height="2.38"/><path class="f" d="M12.77,142.19H1.19v-4.38H12.77Zm-9.58-2h7.58v-.38H3.19Z"/><rect class="f" x="2.19" y="177.08" width="9.58" height="2.38"/><path class="f" d="M12.77,180.47H1.19v-4.39H12.77Zm-9.58-2h7.58v-.39H3.19Z"/><rect class="f" x="2.19" y="215.53" width="9.58" height="2.38"/><path class="f" d="M12.77,218.91H1.19v-4.38H12.77Zm-9.58-2h7.58v-.38H3.19Z"/><rect class="f" x="2.19" y="253.8" width="9.58" height="2.38"/><path class="f" d="M12.77,257.18H1.19V252.8H12.77Zm-9.58-2h7.58v-.38H3.19Z"/><rect class="f" x="2.19" y="292.25" width="9.58" height="2.38"/><path class="f" d="M12.77,295.63H1.19v-4.38H12.77Zm-9.58-2h7.58v-.38H3.19Z"/><rect class="f" x="2.19" y="330.52" width="9.58" height="2.38"/><path class="f" d="M12.77,333.9H1.19v-4.38H12.77Zm-9.58-2h7.58v-.38H3.19Z"/><rect class="f" x="2.19" y="368.97" width="9.58" height="2.38"/><path class="f" d="M12.77,372.35H1.19V368H12.77Zm-9.58-2h7.58V370H3.19Z"/><rect class="f" x="2.19" y="407.24" width="9.58" height="2.38"/><path class="f" d="M12.77,410.62H1.19v-4.38H12.77Zm-9.58-2h7.58v-.38H3.19Z"/><rect class="f" x="1" y="22.41" width="2.38" height="424.47"/><path class="f" d="M4.38,447.88H0V21.41H4.38Zm-2.38-2h.38V23.41H2Z"/><polygon class="g" points="43.33 368.17 3.29 355.89 4.76 351.11 41.33 362.32 77.33 311.03 115.61 323.89 150.5 358.22 184.29 334.41 220.53 278.5 257.13 269.22 294.04 248.48 330.04 271.67 364.07 253.93 395.45 198.63 439.4 244.3 473.26 264.31 508.47 227.72 544.14 222.77 579.88 166.51 616.01 154.24 651.84 110.47 690.93 89.35 693.3 93.75 655.09 114.4 618.98 158.52 583.16 170.68 547.12 227.4 510.88 232.43 474.13 270.62 436.26 248.25 396.5 206.92 367.69 257.68 329.77 277.44 293.86 254.31 259 273.9 223.66 282.87 187.96 337.94 149.97 364.71 112.92 328.26 79.28 316.96 43.33 368.17"/><polygon class="h" points="43.16 391.53 1.46 381.94 2.58 377.06 41.5 386.01 77.5 348.05 115.34 357.51 150.45 383.07 184.55 365.26 220.78 323.9 257.34 317.01 294.02 301.72 330.01 319.03 364.32 305.79 395.51 265.06 439.11 298.63 473.34 313.53 508.71 286.38 544.38 282.62 580.14 241.05 616.28 231.92 652.12 199.49 691.18 183.8 693.05 188.44 654.81 203.8 618.71 236.46 582.9 245.51 546.88 287.38 510.64 291.21 474.05 319.29 436.55 302.97 396.44 272.08 367.44 309.94 329.8 324.47 293.87 307.19 258.78 321.82 223.4 328.49 187.7 369.25 150.02 388.94 113.19 362.12 79.12 353.61 43.16 391.53"/><polygon class="i" points="42.73 432.48 3.33 429.49 3.71 424.51 41.93 427.41 77.93 412.75 114.94 416.34 150.33 426.35 185.37 419.23 221.48 403.4 257.77 400.73 293.98 394.9 329.95 401.55 365.12 396.35 395.73 380.89 438.4 393.55 473.54 399.53 509.26 388.84 545.05 387.42 580.87 371.32 616.96 367.9 652.85 355.26 653.08 355.22 691.73 349.23 692.5 354.18 654.08 360.13 618.04 372.82 582.17 376.22 546.21 392.38 510.09 393.81 473.85 404.66 437.12 398.39 396.21 386.25 366.65 401.18 329.86 406.62 293.92 399.97 258.25 405.71 222.7 408.33 186.88 424.02 186.62 424.08 150.14 431.49 113.8 421.21 78.68 417.84 42.73 432.48"/><path d="M163.28,249A180.21,180.21,0,0,1,352.46,78.25C451.85,83.33,528.3,168,523.22,267.43S433.43,443.28,334,438.19,158.19,348.4,163.28,249Z"/><path class="j" d="M350.63,75.25c106,5.43,187.81,96.07,182.39,202.06S437,465.12,331,459.69s-187.81-96.06-182.39-202S244.65,69.83,350.63,75.25ZM332.21,435.19c92.48,4.73,171.57-66.65,176.3-159.14S441.86,104.49,349.38,99.76s-171.57,66.65-176.3,159.13S239.74,430.46,332.21,435.19Z"/><path d="M350.68,83.26c5.35.28,10.73.78,16,1.5l-1.45,10.58a177,177,0,0,0-30.45-1.54l-.37-10.68C339.8,82.94,345.27,83,350.68,83.26Zm19.2,2c1.08.16,2.14.34,3.21.52l-1.84,10.51c-1-.17-2-.34-3-.49Zm-38.72-2,.58,10.65c-1,0-2,.11-3.05.19l-.75-10.65C329,83.4,330.09,83.33,331.16,83.28ZM404.34,94c1,.38,2,.75,3.05,1.14l-3.81,10c-.95-.37-1.91-.72-2.87-1.07ZM296,88.56l2.59,10.35c-1,.23-2,.5-3,.77l-2.78-10.3C293.91,89.09,295,88.82,296,88.56Zm114.41,7.8A183.82,183.82,0,0,1,439.25,111l-5.64,9a174.69,174.69,0,0,0-27.17-13.8ZM289.75,90.24l3,10.25a174.29,174.29,0,0,0-28.41,11l-4.7-9.58A185.07,185.07,0,0,1,289.75,90.24ZM442,112.75c.9.59,1.81,1.18,2.71,1.79l-6,8.84-2.55-1.67Zm-185.29-9.42,4.88,9.5c-.91.46-1.81.94-2.71,1.41l-5-9.41C254.8,104.32,255.76,103.83,256.71,103.33Zm213.14,31.53q1.17,1.13,2.31,2.28l-7.53,7.55c-.72-.72-1.45-1.43-2.18-2.13ZM226.78,122.49l6.58,8.4c-.8.63-1.6,1.27-2.38,1.91l-6.73-8.29Zm247.66,17a186.64,186.64,0,0,1,20.39,25.08l-8.83,6a175.89,175.89,0,0,0-19.23-23.64ZM221.75,126.58l6.87,8.17a174.77,174.77,0,0,0-21.53,21.57l-8.18-6.86A187,187,0,0,1,221.75,126.58Zm274.88,40.63c.58.91,1.17,1.81,1.74,2.73l-9,5.67c-.54-.85-1.09-1.72-1.64-2.56ZM196.85,152l8.3,6.7c-.64.79-1.28,1.59-1.9,2.4l-8.41-6.57C195.5,153.65,196.17,152.8,196.85,152ZM513.13,198.7c.41,1,.8,2,1.19,3l-10,3.84c-.36-.94-.75-1.88-1.13-2.82Zm-335.9-17.07,9.42,5c-.47.9-.94,1.8-1.41,2.72l-9.51-4.85C176.23,183.54,176.72,182.58,177.23,181.63Zm338.23,23.08a187.58,187.58,0,0,1,8.43,31.23l-10.51,1.87a174.18,174.18,0,0,0-7.94-29.42ZM174.29,187.42l9.59,4.67A174.51,174.51,0,0,0,173,220.56l-10.26-2.92A183.8,183.8,0,0,1,174.29,187.42Zm350.12,51.71c.18,1.07.35,2.13.49,3.21l-10.56,1.49c-.14-1-.29-2-.45-3ZM161.87,220.77l10.32,2.72c-.26,1-.51,2-.75,3l-10.37-2.56C161.33,222.86,161.61,221.82,161.87,220.77Zm364.76,53.84c0,1.08-.07,2.16-.13,3.24l-10.66-.54c.06-1,.09-2,.12-3.05ZM156.09,255.84l10.65.73c-.07,1-.13,2-.18,3.05l0,.37-10.66-.54,0-.37C156,258,156,256.91,156.09,255.84Zm359.57,24.52,10.65.72a185.27,185.27,0,0,1-5,31.94L511,310.48A176,176,0,0,0,515.66,280.36ZM166.41,263a175.52,175.52,0,0,0,1.67,30.43L157.51,295a188,188,0,0,1-1.77-32.29Zm343.84,50.41,10.32,2.72c-.29,1-.57,2.09-.86,3.13l-10.27-2.91C509.71,315.4,510,314.41,510.25,313.44Zm-341.72-17c.17,1,.33,2,.52,3l-10.51,1.87c-.19-1.06-.37-2.12-.54-3.2Zm330.06,48.37,9.6,4.67q-.72,1.47-1.44,2.91l-9.52-4.83C497.7,346.69,498.14,345.79,498.59,344.85ZM177,328.88c.36.95.71,1.9,1.08,2.86l-9.94,3.86c-.4-1-.78-2-1.15-3Zm318.81,21.44,9.43,5a185.64,185.64,0,0,1-17.58,27.14l-8.42-6.56A173.91,173.91,0,0,0,495.82,350.32ZM179.21,334.56a174.61,174.61,0,0,0,13.94,27.09l-9,5.69a185.87,185.87,0,0,1-14.79-28.75ZM477.36,378.3l8.3,6.7c-.68.84-1.36,1.68-2.05,2.5l-8.19-6.85C476.08,379.89,476.72,379.09,477.36,378.3ZM194.8,364.21c.56.86,1.12,1.7,1.69,2.54l-8.83,6c-.6-.89-1.2-1.78-1.79-2.69Zm259.11,38.05,6.87,8.15-2.49,2.07-6.73-8.28C452.35,403.57,453.13,402.91,453.91,402.26ZM215.75,390.38c.7.73,1.42,1.46,2.14,2.17l-7.53,7.57c-.76-.77-1.53-1.53-2.28-2.31ZM449.18,406.1l6.59,8.39a185.1,185.1,0,0,1-27.06,17.7l-5-9.4A174.91,174.91,0,0,0,449.18,406.1ZM220.07,394.69a177,177,0,0,0,23.72,19.13l-5.94,8.86a186.58,186.58,0,0,1-25.18-20.3ZM421,424.21l4.87,9.47c-1,.51-1.92,1-2.89,1.46l-4.7-9.57ZM246.34,415.5c.87.56,1.72,1.1,2.59,1.64l-5.63,9.07-2.75-1.74Zm143.51,21.07,3,10.24c-1.05.31-2.08.6-3.13.88l-2.78-10.29C387.9,437.12,388.88,436.86,389.85,436.57Zm-113.73-5.66L279,432l-3.81,10-3-1.19ZM384,438.16l2.6,10.35a184.91,184.91,0,0,1-31.93,5.12L353.87,443A175.47,175.47,0,0,0,384,438.16Zm-102.13-5.07a173.77,173.77,0,0,0,29.47,7.78l-1.82,10.52a185,185,0,0,1-31.26-8.26Zm69,10.07.58,10.67-3.23.15-.4-10.67C348.8,443.27,349.83,443.23,350.83,443.16Zm-36.51-1.8,3,.45-1.45,10.56c-1.06-.14-2.13-.3-3.2-.46Z"/><g class="k"><path class="l" d="M494,215.46C518.67,304.79,466.26,397.25,376.88,422a167.35,167.35,0,0,1-123.76-13.64A167.49,167.49,0,0,0,386.6,427.6C476,402.87,528.38,310.39,503.66,221.07a167.3,167.3,0,0,0-82.81-103.33A167.21,167.21,0,0,1,494,215.46Z"/></g><g class="m"><path class="n" d="M183.1,277a170.76,170.76,0,0,1,288.36-123.8A170.75,170.75,0,1,0,228.25,392.68,170.12,170.12,0,0,1,183.1,277Z"/></g><g class="o"><path class="j" d="M302,251.64h14.81a1.28,1.28,0,0,0,1.19.69l.23,0v69.63a13.15,13.15,0,0,0,13.13,13.14h19.83a13.15,13.15,0,0,0,13.13-13.14V297.48A1.27,1.27,0,0,0,365,297a13,13,0,0,0,5,1h12.69a3.22,3.22,0,0,0,3.3,2.75,3.37,3.37,0,0,0,1.83-.5c1.49,4.59,4.83,7.8,8.7,7.8s7.39-3.38,8.82-8.15a2.1,2.1,0,0,0,.64.1,1.72,1.72,0,0,0,1.73-2h17a1.79,1.79,0,0,0,1.84,1.59,2,2,0,0,0,.43-.05,13.17,13.17,0,0,0,12.56,9.28h37.6l.67,0a2.82,2.82,0,0,0,2.81,2,3.36,3.36,0,0,0,1.14-.2,13.14,13.14,0,0,0,11.86,7.5H515.7A13.14,13.14,0,0,0,528.83,305V260.18h0a2.81,2.81,0,0,0,2.65-1.59h55.29a13.14,13.14,0,0,0,13.13-13.13V198.59a13.14,13.14,0,0,0-13.13-13.13H527.54a13.14,13.14,0,0,0-13.13,13.13v1.86a2.15,2.15,0,0,0-1.92,2.78H500.36a2.15,2.15,0,0,0-1.66-2.75V197a13.14,13.14,0,0,0-7.54-11.87,1.4,1.4,0,0,0-1-1.67V123.65a13.14,13.14,0,0,0-13.13-13.13h-37.6a13.14,13.14,0,0,0-13.13,13.13v60.26H407.79a3.09,3.09,0,0,0-1.8-3.48V164.6c0-7.24-4.27-13.14-9.53-13.14s-9.52,5.9-9.52,13.14v17.71l-.24,0a1.37,1.37,0,0,0-1.36,1.62H365.39a1.86,1.86,0,0,0-1.12-1.61v-6.89a13.14,13.14,0,0,0-13.13-13.13H331.31a13.14,13.14,0,0,0-13.13,13.13v13.33a3.31,3.31,0,0,0-3.2,3.67H302a13.14,13.14,0,0,0-13.13,13.13v33A13.14,13.14,0,0,0,302,251.64Zm16.74-56a3.2,3.2,0,0,0,2.94-2.75h20.23a1.24,1.24,0,0,0,.74.64,12.93,12.93,0,0,0-.47,3.48v50c0,.44,0,.88.06,1.31a2.91,2.91,0,0,0-2.11,2.81h-8.57l.32-28.52c2.29-.2,2.22-3.86-.2-3.86s-2.48,3.52-.32,3.84L331,251.13H319.31a1.47,1.47,0,0,0-.62-1.44Zm43-11.24a1.8,1.8,0,0,0,1.85,1.6l.23,0v59.67a3,3,0,0,0-1.16,3.82,13.19,13.19,0,0,0-5.3,7.34,3.09,3.09,0,0,0-3.14,2.73,12.58,12.58,0,0,1-9.44-5.64,3.1,3.1,0,0,0,1.32-2.42,13.15,13.15,0,0,0,11.28-13v-33a13.14,13.14,0,0,0-12.91-13.12,1.52,1.52,0,0,0-.34-1.2,12.63,12.63,0,0,1,11.19-6.79Zm25.77.49a1.25,1.25,0,0,0,.45-.49H402a2.82,2.82,0,0,0,2.81,2,3.2,3.2,0,0,0,.63-.07v26a3,3,0,0,0-2.84,3.29H390.2a2.69,2.69,0,0,0-2.73-3h0Zm54.85-5.13v-9c0-7,4.05-12.62,9-12.62s9,5.66,9,12.62v9q0,.42,0,.84h-.22a2.94,2.94,0,0,0-3,3.29H443.29a1.43,1.43,0,0,0-.79-1.51A17,17,0,0,1,442.3,179.79Zm.83,4.64h14a2.87,2.87,0,0,0,1.74,2.16c-1.61,3.5-4.41,5.82-7.59,5.82-3.75,0-7-3.21-8.33-7.77Zm-1.2.69a1.39,1.39,0,0,0,.63-.13c1.47,4.66,4.84,7.93,8.76,7.93,3.4,0,6.39-2.47,8.08-6.19a3.64,3.64,0,0,0,.68.07,2.84,2.84,0,0,0,2.91-2.37h22.58a12.56,12.56,0,0,1,2.89.34,1.35,1.35,0,0,0,1.23,1.51v16.95H483.5a13.15,13.15,0,0,0-12.44,8.94h-.16a2.75,2.75,0,0,0-2.69,3.43h-39.3a2.14,2.14,0,0,0-2-2.78h0V184.43h13.88A1.29,1.29,0,0,0,441.93,185.12Zm56.25,19.7v14.63h-4.63c-.43,0-.86,0-1.28.06a2,2,0,0,0-2.06-1.68h0V203.74h6.26A2,2,0,0,0,498.18,204.82ZM513.08,220a1.8,1.8,0,0,0,1.33,1.54v9.91a1.78,1.78,0,0,0-1.22,2h-13.9a1.38,1.38,0,0,0-.59-1V220Zm1.84-15.17a1.93,1.93,0,0,0,1.47-1h12.44a12.63,12.63,0,0,1,12.62,12.62v4.38A12.63,12.63,0,0,1,531.7,233a3.19,3.19,0,0,0-3.05-2.57,13.14,13.14,0,0,0-11.86-10.95,1.82,1.82,0,0,0-1.87-1.8h0ZM526,258a12.64,12.64,0,0,1-11-12.52V235h0a1.62,1.62,0,0,0,1.61-1.08h8.55a3.3,3.3,0,0,0,3.23,3.52V254A3.07,3.07,0,0,0,526,258Zm-11-36.42a1.79,1.79,0,0,0,1.84-1.55,12.64,12.64,0,0,1,11.37,10.45,3.22,3.22,0,0,0-3,2.9h-8.46a1.74,1.74,0,0,0-1.74-2h0v-9.78Zm-34,83.06V269.71h0a1.44,1.44,0,0,0,.76-2.62,13,13,0,0,0,1.54-5.91,2.6,2.6,0,0,0,.4,0,2,2,0,0,0,1.85-1.07h.08a12.89,12.89,0,0,0,3.18-.4,1.84,1.84,0,0,0,.94,1.39v34.55a12.62,12.62,0,0,1-6.32,10.92A2.78,2.78,0,0,0,480.93,304.62ZM474,272.92a2.69,2.69,0,0,0-1.57-2.21v-7.46a3.25,3.25,0,0,0,3-3.11h5V267a1.46,1.46,0,0,0-.67,2.07A12.7,12.7,0,0,1,474,272.92Zm-45.66,24.56a1.81,1.81,0,0,0-1.49-1.73V277.1a3.26,3.26,0,0,0,2.59-3.06h39.19a2.75,2.75,0,0,0,3.29,2v8.78a12.63,12.63,0,0,1-12.62,12.62Zm-22.35-24V262a2,2,0,0,0,1.73-1.82h15.95a2.82,2.82,0,0,0,2.67,2v8.13l-.25,0a3.27,3.27,0,0,0-3.35,3.31Zm-.51,21.37c0,.53,0,1.05-.08,1.56a1.61,1.61,0,0,0-1.1,1h-15a3.46,3.46,0,0,0-1.83-3.37V275.77a2,2,0,0,0,1.34-1.73h16.69Zm-27.82-21.37a12.64,12.64,0,0,1-12.61-12.32h0a2,2,0,0,0,1.85-1.07h16.93a3.16,3.16,0,0,0,3.09,3.38v8h-.24a2.05,2.05,0,0,0-2.11,2Zm-13.9,21.16a1.26,1.26,0,0,0-1,.56,12.61,12.61,0,0,1-5.47-10.39V263.53h0a3.17,3.17,0,0,0,3.23-3.39h2.64a2,2,0,0,0,.54.65Zm23.71-76.48a2.61,2.61,0,0,0,2.66-2.11h12.58a2.84,2.84,0,0,0,2.77,2.36v25.89a3.23,3.23,0,0,0-3.18,2.91H388.88a1.77,1.77,0,0,0-1.43-1.34V218.21Zm39.38,15.35,21.65-.16a1.78,1.78,0,0,0,1.84,1.58c2.49,0,2.49-3.87,0-3.87a1.81,1.81,0,0,0-1.86,1.78l-21.63.15V217.18h0a2,2,0,0,0,1.85-1.08h39.63a2.54,2.54,0,0,0,2,1.68v3a13.15,13.15,0,0,0,9.29,12.55,2.45,2.45,0,0,0,.76,1.43v24.9h-5a3.26,3.26,0,0,0-3.35-3.3h-.27a13.16,13.16,0,0,0-12.49-9.07H426.85Zm62.84-11.41v8.95h-.26a2.62,2.62,0,0,0-2.69,2.27h-2.22a2.62,2.62,0,0,0-1.27-2.92v-1.72c0-.14,0-.28,0-.41,2.41-.5,3.06-3.38,2-5.18a12.94,12.94,0,0,1,3.14-2A1.92,1.92,0,0,0,489.69,222.15Zm-1,37.07a12.66,12.66,0,0,1-3,.4,2.14,2.14,0,0,0-2.05-2.78,2.38,2.38,0,0,0-.39,0V235.08a2.3,2.3,0,0,0,1.11-1.21h2.34a2.68,2.68,0,0,0,2.73,2.88h.26v20.95A1.87,1.87,0,0,0,488.73,259.22Zm-7.79,7.66h0v-6.74h.86a1.94,1.94,0,0,0,.94.89,12.52,12.52,0,0,1-1.51,5.87Zm1.54-38.5h.24c0,.12,0,.23,0,.35v1.54a2.53,2.53,0,0,0-.63-.07,2.63,2.63,0,0,0-1,.17,12.74,12.74,0,0,1,.55-2.06A4.09,4.09,0,0,0,482.48,228.38Zm-.38,7a2.53,2.53,0,0,0,.63-.08V257a2.22,2.22,0,0,0-1.13,2.6h-.67V235.08A2.66,2.66,0,0,0,482.1,235.34Zm-.91-7.2a13.31,13.31,0,0,0-.64,2.54,2.61,2.61,0,0,0-.94,2.06,12.63,12.63,0,0,1-8.72-12v-2.91h0a2.58,2.58,0,0,0,2.36-1.33,12.64,12.64,0,0,1,7.58,5.59C478.61,223.34,478.72,227.15,481.19,228.14Zm-9.91,42.34a2.7,2.7,0,0,0-2.73,3h-39.1a3.28,3.28,0,0,0-2.6-3.23v-8.21a2.79,2.79,0,0,0,2.44-1.95h39.42a3.24,3.24,0,0,0,3.21,3.13v7.27A3.24,3.24,0,0,0,471.28,270.48Zm-12-22.7a12.62,12.62,0,0,1,12,8.62,3.28,3.28,0,0,0-2.56,3.22H429.42a3,3,0,0,0-2.57-3.67v-8.17Zm-33,8.16a3,3,0,0,0-2.8,3.68H407.73a2,2,0,0,0-1.74-2v-6.36a3.3,3.3,0,0,0,3-3.5h17.35Zm-36.06,3.68a3.1,3.1,0,0,0-2.83-2.77v-7.13a1.83,1.83,0,0,0,1.5-1.94h13.31a3.3,3.3,0,0,0,3.22,3.51v6.32a2.06,2.06,0,0,0-2,2Zm-3.34-9.87v7.09a3.1,3.1,0,0,0-3.05,2.78H367.12a2.14,2.14,0,0,0-2.05-2.78h0V251h0A2.71,2.71,0,0,0,367.8,248a12.61,12.61,0,0,1,2.14-.18h15.28A1.83,1.83,0,0,0,386.94,249.75ZM364.27,257v-6l.26.05v5.91Zm-.51-6.23v6.52a2.3,2.3,0,0,0-.73,2.36h-2.49a3.09,3.09,0,0,0-2.71-2.75,12.68,12.68,0,0,1,5-6.92A2.46,2.46,0,0,0,363.76,250.74Zm25.05,22.79a2.09,2.09,0,0,0-1.36-1.9v-8.12a3.17,3.17,0,0,0,2.87-3.37h13.21a2,2,0,0,0,2,1.84v11.55Zm103-15.59a1.79,1.79,0,0,0-1.26-.46,1.61,1.61,0,0,0-.39,0V236.66a2.72,2.72,0,0,0,2-2.79h4.43a1.3,1.3,0,0,0,1.33,1.08l.25,0V247A12.61,12.61,0,0,1,491.85,257.94Zm6.33-25.8-.25,0a1.32,1.32,0,0,0-1.36,1.24h-4.45a2.61,2.61,0,0,0-1.92-2.18v-9h0a2.06,2.06,0,0,0,2.11-2.17,10,10,0,0,1,1.23-.07h4.63Zm-8.49-14.26a2.18,2.18,0,0,0-1.53,2.73,13.26,13.26,0,0,0-3.27,2.11,3.07,3.07,0,0,0-2.41-1,3.53,3.53,0,0,0-1.16.19,13.18,13.18,0,0,0-7.85-5.86,2.85,2.85,0,0,0-1.89-3.78,12.64,12.64,0,0,1,11.92-8.5h6.19Zm-63.35-.76v30.14H409a3.22,3.22,0,0,0-3-2.89V218.45a2.83,2.83,0,0,0,2.55-2.35H425A1.91,1.91,0,0,0,426.34,217.12Zm-39.4,1V245.9a1.78,1.78,0,0,0-1.65,1.36H369.94a13.48,13.48,0,0,0-2.22.19,2.6,2.6,0,0,0-2.65-2.07h0V228.72a12.63,12.63,0,0,1,12.61-12.62h7.15A2.59,2.59,0,0,0,386.94,218.16ZM342.64,247V197a12.5,12.5,0,0,1,.48-3.42,1.28,1.28,0,0,0,1.13-.69,12.63,12.63,0,0,1,12.56,12.61v33A12.63,12.63,0,0,1,346,251a2.88,2.88,0,0,0-3-2.78,2.06,2.06,0,0,0-.35,0C342.66,247.82,342.64,247.42,342.64,247Zm8.5,87.55H331.31a12.63,12.63,0,0,1-12.62-12.62V252.13a1.18,1.18,0,0,0,.45-.49h20.94a2.89,2.89,0,0,0,3,2.75,3,3,0,0,0,1.21-.23,13.13,13.13,0,0,0,9.85,5.93,3.19,3.19,0,0,0,2.7,3.4v21.37a13.13,13.13,0,0,0,5.78,10.88,1.38,1.38,0,0,0,1.17,1.77v24.43A12.63,12.63,0,0,1,351.14,334.56Zm18.8-37.08a12.61,12.61,0,0,1-4.73-.92,1.41,1.41,0,0,0-.94-1.83V261.07a1.38,1.38,0,0,0,.27.08A13.14,13.14,0,0,0,377.66,274h6.95a2,2,0,0,0,2.09,1.85h.24v18a3.62,3.62,0,0,0-1-.14,3.32,3.32,0,0,0-3.36,3.7Zm26.52,10c-3.7,0-6.88-3.14-8.27-7.61a3.42,3.42,0,0,0,1-1.92h15a1.91,1.91,0,0,0,.64,1.64C403.48,304.25,400.24,307.52,396.46,307.52Zm9.47-11.13c0-.49.06-1,.06-1.49V274h16.76a3.25,3.25,0,0,0,3.34,3.14h.25v18.55a1.81,1.81,0,0,0-1.72,1.76H407.53A1.63,1.63,0,0,0,405.93,296.39Zm71.14,11.9h-37.6a12.63,12.63,0,0,1-12.07-8.93,1.85,1.85,0,0,0,.92-1.37h31a13.14,13.14,0,0,0,13.13-13.13v-8.94a2.75,2.75,0,0,0,1.59-2.47,13.08,13.08,0,0,0,6.07-4,1.48,1.48,0,0,0,.33.18v35a3,3,0,0,0-2.81,3.68ZM528.31,305a12.62,12.62,0,0,1-12.61,12.61H493.55a12.64,12.64,0,0,1-11.4-7.2,3.18,3.18,0,0,0,1.34-3.24,13.13,13.13,0,0,0,6.71-11.44V261.3a1.61,1.61,0,0,0,.39,0,1.94,1.94,0,0,0,1.59-3A13.11,13.11,0,0,0,498.7,247V234.74a1.38,1.38,0,0,0,.56-.87h14.06a1.6,1.6,0,0,0,1.09,1v10.58a13.15,13.15,0,0,0,11.73,13.06,2.77,2.77,0,0,0,2.17,1.62Zm-.77-119h59.23a12.63,12.63,0,0,1,12.62,12.62v46.87a12.63,12.63,0,0,1-12.62,12.62h-55.1a3,3,0,0,0-2.84-4.08h0V237.37a3.33,3.33,0,0,0,2.95-3.84A13.14,13.14,0,0,0,542,220.74v-4.38a13.14,13.14,0,0,0-13.13-13.13H516.58a2.15,2.15,0,0,0-1.66-2.75v-1.89A12.63,12.63,0,0,1,527.54,186Zm-14.85,17.77a2,2,0,0,0,1.72,1.08v12.94a1.82,1.82,0,0,0-1.35,1.69H498.7V204.79a2,2,0,0,0,1.47-1ZM498.18,197v3.41a2.14,2.14,0,0,0-1.91,2.78H490.2v-17a1.22,1.22,0,0,0,.78-.59A12.63,12.63,0,0,1,498.18,197Zm-71.33-73.39A12.64,12.64,0,0,1,439.47,111h37.6a12.65,12.65,0,0,1,12.62,12.62V145.5l-20.29.07a1.8,1.8,0,0,0-1.85-1.66,1.93,1.93,0,0,0,0,3.86,1.8,1.8,0,0,0,1.85-1.68l20.29-.08v37.45a1.29,1.29,0,0,0-1.12.8,13,13,0,0,0-3-.35H463.06a3,3,0,0,0-2.24-3.21c0-.3,0-.6,0-.91v-9c0-7.25-4.27-13.13-9.52-13.13s-9.53,5.88-9.53,13.13v9a18.78,18.78,0,0,0,.17,2.51h0a1.37,1.37,0,0,0-1.36,1.62H426.85Zm-.51,60.78v28.43a2.18,2.18,0,0,0-1.52,2.73H408.6a3,3,0,0,0-2.61-3.28V186.22a2.82,2.82,0,0,0,1.67-1.79ZM387.45,164.6c0-7,4-12.62,9-12.62s9,5.66,9,12.62v15.69a4.21,4.21,0,0,0-.63-.06,3,3,0,0,0-2.94,3.68H388.05a1.44,1.44,0,0,0-.6-1.41Zm-.75,20.52h.24v19.27h-13a1.81,1.81,0,0,0-1.86-1.85c-2.49,0-2.49,3.87,0,3.87a1.78,1.78,0,0,0,1.82-1.51h13.06v7.71a2.72,2.72,0,0,0-2.2,3h-7.08a13.14,13.14,0,0,0-13.13,13.13v16.71l-.26,0V185.89a1.81,1.81,0,0,0,1.1-1.46H385.5A1.29,1.29,0,0,0,386.7,185.12ZM331.31,162.8h19.83a12.63,12.63,0,0,1,12.62,12.61v6.77h-.23a1.8,1.8,0,0,0-1.86,1.74h-6.41a13.15,13.15,0,0,0-11.61,7,1.56,1.56,0,0,0-.6-.12,1.36,1.36,0,0,0-1.35,1.62h-20a3.31,3.31,0,0,0-3-3.66V175.41A12.63,12.63,0,0,1,331.31,162.8Zm-42,42.74A12.63,12.63,0,0,1,302,192.92H315a3.21,3.21,0,0,0,3.14,2.76v53.83H318a1.36,1.36,0,0,0-1.35,1.63H302a12.63,12.63,0,0,1-12.62-12.62Z"/><path class="j" d="M375.28,137.28v46.59h.51V137.36h.09a1.93,1.93,0,0,0,0-3.86C373.62,133.5,373.41,136.7,375.28,137.28Z"/><path class="j" d="M313.79,205.53l-14.8-.11a1.31,1.31,0,0,0-1.19-.7l-.23,0,.52-69.63a13.14,13.14,0,0,0-13-13.23l-19.84-.15a13.14,13.14,0,0,0-13.22,13l-.19,24.47a1.24,1.24,0,0,0-.71.45,13.15,13.15,0,0,0-4.95-1l-12.69-.09a3.23,3.23,0,0,0-3.27-2.77,3.38,3.38,0,0,0-1.84.49c-1.46-4.61-4.77-7.84-8.65-7.87s-7.41,3.32-8.87,8.09a1.83,1.83,0,0,0-.64-.11,1.73,1.73,0,0,0-1.75,2l-17-.13a1.79,1.79,0,0,0-1.83-1.6,2,2,0,0,0-.43,0,13.17,13.17,0,0,0-12.48-9.37l-37.61-.27c-.22,0-.44,0-.67,0a2.82,2.82,0,0,0-2.79-2,3.36,3.36,0,0,0-1.14.19,13.15,13.15,0,0,0-11.8-7.59l-22.15-.16a13.15,13.15,0,0,0-13.23,13L87,195.31h0a2.78,2.78,0,0,0-2.65,1.57L29,196.47a13.15,13.15,0,0,0-13.23,13l-.34,46.87a13.14,13.14,0,0,0,13,13.23l59.23.44A13.15,13.15,0,0,0,101,257v-1.86a2.15,2.15,0,0,0,1.94-2.76l12.13.09a2.15,2.15,0,0,0,1.64,2.76l0,3.43a13.15,13.15,0,0,0,7.44,11.94,1.4,1.4,0,0,0,1,1.67l-.45,59.85a13.15,13.15,0,0,0,13,13.23l37.59.28a13.15,13.15,0,0,0,13.23-13l.45-60.25,18.55.13a3.07,3.07,0,0,0,1.77,3.49l-.12,15.84c-.05,7.24,4.18,13.16,9.43,13.2s9.57-5.82,9.63-13.06l.13-17.71.24,0a1.37,1.37,0,0,0,1.36-1.61l20,.14a1.84,1.84,0,0,0,1.1,1.62l-.05,6.89a13.15,13.15,0,0,0,13,13.23l19.83.15a13.14,13.14,0,0,0,13.23-13l.1-13.33a3.31,3.31,0,0,0,3.22-3.65l13,.1a13.15,13.15,0,0,0,13.23-13l.25-33A13.15,13.15,0,0,0,313.79,205.53Zm-17.15,55.85a3.19,3.19,0,0,0-3,2.72L273.45,264a1.22,1.22,0,0,0-.74-.64,13,13,0,0,0,.51-3.48l.37-50q0-.68-.06-1.32a2.93,2.93,0,0,0,2.14-2.79l8.57.07-.54,28.51c-2.29.18-2.25,3.84.17,3.86a1.94,1.94,0,0,0,.35-3.84l.53-28.53,11.69.08a1.44,1.44,0,0,0,.6,1.44ZM253.56,272.3a1.77,1.77,0,0,0-1.82-1.61h-.24l.44-59.66a3,3,0,0,0,1.19-3.81,13.21,13.21,0,0,0,5.36-7.29,3.11,3.11,0,0,0,3.16-2.72,12.65,12.65,0,0,1,9.4,5.72,3,3,0,0,0-1.34,2.41,13.14,13.14,0,0,0-11.38,12.91l-.24,33a13.14,13.14,0,0,0,12.81,13.22,1.5,1.5,0,0,0,.33,1.19A12.65,12.65,0,0,1,260,272.35Zm-25.76-.69a1.4,1.4,0,0,0-.45.49l-14.14-.1a2.83,2.83,0,0,0-2.8-2,4.1,4.1,0,0,0-.62.05l.19-25.93a3,3,0,0,0,2.86-3.27l12.44.09A2.7,2.7,0,0,0,228,244h0Zm-54.89,4.72-.06,9c0,7-4.14,12.59-9.11,12.55s-9-5.73-8.92-12.68l.07-9q0-.42,0-.84l.22,0a3,3,0,0,0,3-3.28l13.81.11a1.4,1.4,0,0,0,.78,1.51A17.26,17.26,0,0,1,172.91,276.33Zm-.79-4.64-14-.1a2.86,2.86,0,0,0-1.72-2.17c1.63-3.49,4.45-5.79,7.64-5.77,3.74,0,6.93,3.27,8.26,7.84A1.43,1.43,0,0,0,172.12,271.69Zm1.21-.68a1.29,1.29,0,0,0-.64.13c-1.43-4.68-4.77-8-8.69-8-3.41,0-6.42,2.43-8.13,6.13a3,3,0,0,0-.68-.07,2.85,2.85,0,0,0-2.93,2.35l-22.58-.17a12.41,12.41,0,0,1-2.88-.36,1.35,1.35,0,0,0-1.22-1.52l.13-16.95,6.17,0a13.19,13.19,0,0,0,12.52-8.85h.16a2.75,2.75,0,0,0,2.71-3.4l39.3.29a2.14,2.14,0,0,0,2,2.8h0l-.21,28.37-13.88-.1A1.27,1.27,0,0,0,173.33,271ZM117.22,250.9l.11-14.63,4.63,0c.43,0,.86,0,1.28-.05a2,2,0,0,0,2.05,1.7h0L125.19,252l-6.26,0A2,2,0,0,0,117.22,250.9Zm-14.79-15.26a1.79,1.79,0,0,0-1.31-1.54l.07-9.92a1.75,1.75,0,0,0,1.23-1.93l13.9.1a1.41,1.41,0,0,0,.59,1l-.09,12.37Zm-2,15.16a1.93,1.93,0,0,0-1.48,1l-12.43-.09A12.64,12.64,0,0,1,74,239l0-4.39a12.64,12.64,0,0,1,9.83-12.21,3.19,3.19,0,0,0,3,2.6,13.16,13.16,0,0,0,11.79,11,1.8,1.8,0,0,0,1.84,1.81h0ZM89.85,197.54a12.62,12.62,0,0,1,10.93,12.59l-.08,10.51h0a1.66,1.66,0,0,0-1.62,1.07l-8.54-.07a3.31,3.31,0,0,0-3.21-3.54l.12-16.65A3.06,3.06,0,0,0,89.85,197.54ZM100.6,234a1.78,1.78,0,0,0-1.84,1.54A12.65,12.65,0,0,1,87.46,225a3.22,3.22,0,0,0,3-2.88l8.47.06a1.73,1.73,0,0,0,1.71,2h0L100.6,234Zm34.61-82.8L135,186.14h0a1.45,1.45,0,0,0-.79,2.62,13.06,13.06,0,0,0-1.58,5.9,2.58,2.58,0,0,0-.4,0,2,2,0,0,0-1.86,1.06h-.07a12.9,12.9,0,0,0-3.19.37,1.85,1.85,0,0,0-.92-1.39l.25-34.55a12.59,12.59,0,0,1,6.4-10.87A2.8,2.8,0,0,0,135.21,151.23Zm6.7,31.75a2.71,2.71,0,0,0,1.55,2.22l-.05,7.45a3.25,3.25,0,0,0-3,3.1l-5,0,0-6.83a1.47,1.47,0,0,0,.67-2.07A12.7,12.7,0,0,1,141.91,183Zm45.84-24.23a1.81,1.81,0,0,0,1.47,1.75v.07l-.13,18.57a3.27,3.27,0,0,0-2.62,3l-39.18-.29a2.59,2.59,0,0,0-2.64-2.12,3.24,3.24,0,0,0-.64.06l.07-8.78a12.62,12.62,0,0,1,12.71-12.52Zm22.17,24.12-.09,11.58a2,2,0,0,0-1.74,1.8l-16-.12a2.79,2.79,0,0,0-2.65-2l.06-8.14.24,0a3.27,3.27,0,0,0,3.38-3.28Zm.67-21.37c0-.53,0-1,.08-1.55a1.61,1.61,0,0,0,1.11-1l15,.12a3.43,3.43,0,0,0,1.8,3.38l-.13,18.34a2.05,2.05,0,0,0-1.36,1.71l-16.68-.12Zm27.66,21.58a12.64,12.64,0,0,1,12.52,12.41h0a2,2,0,0,0-1.86,1.06L232,196.42a3.17,3.17,0,0,0-3.06-3.4l.06-8h.24a2.05,2.05,0,0,0,2.12-2ZM252.31,162a1.24,1.24,0,0,0,1-.55,12.61,12.61,0,0,1,5.39,10.43l-.16,21.33h0a3.17,3.17,0,0,0-3.26,3.37l-2.64,0a2,2,0,0,0-.54-.66ZM228,238.32a2.6,2.6,0,0,0-2.67,2.09l-12.59-.09a2.84,2.84,0,0,0-2.74-2.38l.19-25.89a3.22,3.22,0,0,0,3.19-2.88l13.43.1a1.73,1.73,0,0,0,1.42,1.34l-.21,27.71Zm-39.27-15.63H167.12a1.8,1.8,0,0,0-1.83-1.59c-2.49,0-2.52,3.85,0,3.87a1.82,1.82,0,0,0,1.88-1.76h21.62l-.12,15.86h0a2,2,0,0,0-1.86,1.07l-39.64-.3a2.54,2.54,0,0,0-2-1.69l0-3A13.15,13.15,0,0,0,136,222.56a2.55,2.55,0,0,0-.75-1.43l.18-24.91,5,0a3.27,3.27,0,0,0,3.33,3.33H144a13.14,13.14,0,0,0,12.42,9.16l32.45.24Zm-62.91,10.94.06-8.95.25,0a2.62,2.62,0,0,0,2.71-2.26l2.22,0a2.63,2.63,0,0,0,1.26,2.93l0,1.72c0,.14,0,.27,0,.41-2.42.48-3.09,3.36-2,5.16a12.39,12.39,0,0,1-3.16,2A1.93,1.93,0,0,0,125.85,233.63Zm1.22-37.06a12.31,12.31,0,0,1,3.05-.38,2.14,2.14,0,0,0,2,2.8l.39,0-.16,21.79a2.32,2.32,0,0,0-1.13,1.2l-2.33,0a2.68,2.68,0,0,0-2.72-2.9H126l.16-20.95A1.86,1.86,0,0,0,127.07,196.57Zm7.85-7.6h0l-.05,6.74H134a2,2,0,0,0-.93-.9,12.6,12.6,0,0,1,1.55-5.86A1.33,1.33,0,0,0,134.92,189Zm-1.83,38.48h-.24v-1.89a2.53,2.53,0,0,0,.63.08,2.63,2.63,0,0,0,1-.17,11.83,11.83,0,0,1-.57,2.06A3.32,3.32,0,0,0,133.09,227.45Zm.44-6.95a2.48,2.48,0,0,0-.63.07l.16-21.76a2.22,2.22,0,0,0,1.15-2.59h.67l-.18,24.55A2.53,2.53,0,0,0,133.53,220.5Zm.86,7.2a14.12,14.12,0,0,0,.65-2.54,2.59,2.59,0,0,0,1-2,12.61,12.61,0,0,1,8.63,12.06l0,2.91h0a2.58,2.58,0,0,0-2.37,1.31,12.65,12.65,0,0,1-7.54-5.65C136.94,232.52,136.85,228.71,134.39,227.7Zm10.22-42.27a2.69,2.69,0,0,0,2.75-3l39.1.29A3.28,3.28,0,0,0,189,186l-.07,8.2a2.8,2.8,0,0,0-2.45,1.94l-39.41-.29a3.26,3.26,0,0,0-3.19-3.16l.05-7.27A3.24,3.24,0,0,0,144.61,185.43Zm11.81,22.8a12.64,12.64,0,0,1-11.9-8.71,3.29,3.29,0,0,0,2.59-3.21l39.28.29a3,3,0,0,0,2.54,3.69l-.06,8.18Zm33-7.92a3,3,0,0,0,2.82-3.66l15.81.11a2,2,0,0,0,1.73,2l-.05,6.36a3.31,3.31,0,0,0-3,3.48l-17.35-.13Zm36.09-3.42a3.1,3.1,0,0,0,2.81,2.8l-.06,7.13a1.83,1.83,0,0,0-1.51,1.93l-13.31-.1a3.29,3.29,0,0,0-3.19-3.54l0-6.32a2,2,0,0,0,2-2Zm3.27,9.91,0-7.1a3.11,3.11,0,0,0,3.07-2.76l16.77.12a2.14,2.14,0,0,0,2,2.81h0l0,5.79h0a2.71,2.71,0,0,0-2.75,3.06,13.73,13.73,0,0,1-2.14.17l-15.28-.12A1.82,1.82,0,0,0,228.8,206.8Zm22.71-7.06,0,6-.26-.06,0-5.9ZM252,206l.05-6.52a2.32,2.32,0,0,0,.75-2.36l2.48,0a3.11,3.11,0,0,0,2.7,2.78,12.7,12.7,0,0,1-5.09,6.88A2.46,2.46,0,0,0,252,206ZM227.1,183a2.07,2.07,0,0,0,1.34,1.9l-.06,8.12a3.18,3.18,0,0,0-2.89,3.36l-13.21-.1a2,2,0,0,0-1.93-1.85l.08-11.55ZM123.94,197.82a1.77,1.77,0,0,0,1.26.47,2.38,2.38,0,0,0,.39,0l-.15,20.86a2.72,2.72,0,0,0-2,2.77l-4.42,0a1.3,1.3,0,0,0-1.32-1.09l-.26,0,.09-12.08A12.66,12.66,0,0,1,123.94,197.82Zm-6.52,25.76.25,0a1.32,1.32,0,0,0,1.37-1.23l4.45,0a2.61,2.61,0,0,0,1.91,2.19l-.07,9h0a2.08,2.08,0,0,0-2.14,2.16c-.4,0-.81.06-1.22.06l-4.64,0Zm8.39,14.32a2.19,2.19,0,0,0,1.55-2.72,13.32,13.32,0,0,0,3.28-2.08,3.07,3.07,0,0,0,2.4,1,3.31,3.31,0,0,0,1.17-.18,13.14,13.14,0,0,0,7.81,5.91,2.86,2.86,0,0,0,1.86,3.81,12.64,12.64,0,0,1-12,8.4l-6.18,0Zm63.35,1.22.22-30.13,17.39.12A3.23,3.23,0,0,0,209.7,212L209.51,238a2.82,2.82,0,0,0-2.56,2.33l-16.48-.12A1.94,1.94,0,0,0,189.16,239.12Zm39.4-.74.21-27.74a1.77,1.77,0,0,0,1.66-1.35l15.35.11a12.62,12.62,0,0,0,2.22-.17,2.6,2.6,0,0,0,2.63,2.1h0L250.53,228a12.63,12.63,0,0,1-12.71,12.52l-7.15-.06A2.57,2.57,0,0,0,228.56,238.38Zm44.51-28.51-.37,49.95a12.4,12.4,0,0,1-.5,3.42,1.27,1.27,0,0,0-1.14.69,12.63,12.63,0,0,1-12.46-12.71l.25-33a12.63,12.63,0,0,1,10.86-12.41,2.9,2.9,0,0,0,3,2.81l.36,0C273.05,209,273.07,209.45,273.07,209.87Zm-7.85-87.62,19.83.14a12.63,12.63,0,0,1,12.52,12.72l-.51,69.8a1.35,1.35,0,0,0-.46.49l-20.94-.15a2.88,2.88,0,0,0-3-2.77,3.21,3.21,0,0,0-1.2.21,13.14,13.14,0,0,0-9.81-6,3.18,3.18,0,0,0-2.67-3.42l.16-21.37a13.15,13.15,0,0,0-5.7-10.93,1.39,1.39,0,0,0-1.16-1.78l.18-24.43A12.62,12.62,0,0,1,265.22,122.25Zm-19.07,36.94a12.39,12.39,0,0,1,4.72,1,1.4,1.4,0,0,0,.92,1.83l-.25,33.66a1.14,1.14,0,0,0-.26-.09,13.15,13.15,0,0,0-13-13l-6.94-.06a2,2,0,0,0-2.08-1.86H229l.14-18a3.88,3.88,0,0,0,1,.15,3.32,3.32,0,0,0,3.39-3.67ZM219.7,149c3.7,0,6.86,3.18,8.21,7.67a3.44,3.44,0,0,0-1,1.91l-15-.11a1.87,1.87,0,0,0-.63-1.64C212.66,152.17,215.92,148.92,219.7,149ZM210.15,160c0,.49-.07,1-.08,1.49l-.15,20.86-16.75-.13a3.26,3.26,0,0,0-3.33-3.16l-.24,0,.14-18.52v0a1.81,1.81,0,0,0,1.73-1.75l17.08.13A1.65,1.65,0,0,0,210.15,160ZM139.1,147.58l37.6.28a12.63,12.63,0,0,1,12,9,1.85,1.85,0,0,0-.93,1.35l-31-.23a13.16,13.16,0,0,0-13.23,13L143.5,180a2.71,2.71,0,0,0-1.6,2.45,13.21,13.21,0,0,0-6.11,4,1.65,1.65,0,0,0-.32-.18l.26-35a3,3,0,0,0,2.83-3.66Zm-51.27,3A12.64,12.64,0,0,1,100.54,138l22.15.17A12.61,12.61,0,0,1,134,145.48a3.18,3.18,0,0,0-1.36,3.22,13.13,13.13,0,0,0-6.79,11.4l-.26,34.37a2.34,2.34,0,0,0-.39,0,2,2,0,0,0-1.61,3,13.12,13.12,0,0,0-6.6,11.29L116.93,221a1.36,1.36,0,0,0-.58.86l-14-.11a1.57,1.57,0,0,0-1.08-1l.08-10.58A13.16,13.16,0,0,0,89.66,197a2.78,2.78,0,0,0-2.16-1.64Zm-.11,119-59.23-.43A12.65,12.65,0,0,1,16,256.37l.35-46.87A12.63,12.63,0,0,1,29,197l55.09.41a3,3,0,0,0,2.82,4.1h0l-.12,16.62a3.35,3.35,0,0,0-3,3.82,13.16,13.16,0,0,0-10.27,12.72l0,4.38a13.14,13.14,0,0,0,13,13.23l12.25.09a2.15,2.15,0,0,0,1.64,2.76l0,1.89A12.62,12.62,0,0,1,87.72,269.52Zm15-17.65a2,2,0,0,0-1.72-1.09l.1-12.95a1.83,1.83,0,0,0,1.36-1.68l14.36.11-.11,14.66a2,2,0,0,0-1.48,1Zm14.45,6.8,0-3.41a2.14,2.14,0,0,0,1.93-2.76l6.07.05-.13,17a1.2,1.2,0,0,0-.78.58A12.64,12.64,0,0,1,117.16,258.67ZM188,332.59a12.62,12.62,0,0,1-12.71,12.52l-37.6-.28a12.63,12.63,0,0,1-12.53-12.71l.17-21.84,20.29.07a1.8,1.8,0,0,0,1.84,1.68,1.93,1.93,0,0,0,0-3.86,1.79,1.79,0,0,0-1.86,1.67l-20.29-.08.28-37.44a1.28,1.28,0,0,0,1.12-.8,12.91,12.91,0,0,0,3,.38l22.51.16a3,3,0,0,0,2.22,3.23c0,.3,0,.6,0,.91l-.06,9c-.06,7.24,4.17,13.17,9.43,13.21s9.57-5.82,9.62-13.07l.07-9a17.26,17.26,0,0,0-.16-2.51h0a1.36,1.36,0,0,0,1.36-1.61l13.73.1Zm1-60.77.22-28.44a2.17,2.17,0,0,0,1.53-2.71l16.22.12a3,3,0,0,0,2.59,3.3l-.2,26.09a2.82,2.82,0,0,0-1.68,1.78Zm38.74,20.12c-.05,6.95-4.13,12.58-9.1,12.55s-9-5.73-8.92-12.69l.11-15.69a3.21,3.21,0,0,0,.63.06,3,3,0,0,0,3-3.65l13.86.1a1.47,1.47,0,0,0,.6,1.42Zm.9-20.53-.23,0,.14-19.27,13,.1a1.82,1.82,0,0,0,1.86,1.86c2.48,0,2.51-3.85,0-3.86a1.76,1.76,0,0,0-1.83,1.48l-13.05-.09.05-7.71a2.72,2.72,0,0,0,2.22-3l7.08.05a13.15,13.15,0,0,0,13.23-13l.12-16.71.26-.05L251,270.82a1.81,1.81,0,0,0-1.11,1.45l-20.13-.15A1.31,1.31,0,0,0,228.55,271.41Zm55.23,22.74L264,294a12.64,12.64,0,0,1-12.53-12.71l.05-6.77.24,0a1.81,1.81,0,0,0,1.87-1.74l6.41.05A13.13,13.13,0,0,0,271.64,266a1.4,1.4,0,0,0,.6.12,1.36,1.36,0,0,0,1.37-1.61l20,.15a3.33,3.33,0,0,0,3,3.69l-.1,13.33A12.62,12.62,0,0,1,283.78,294.15Zm42.29-42.43a12.62,12.62,0,0,1-12.71,12.52l-13.09-.09a3.22,3.22,0,0,0-3.12-2.78l.4-53.84a.9.9,0,0,0,.23,0,1.35,1.35,0,0,0,1.36-1.61l14.65.11a12.62,12.62,0,0,1,12.52,12.71Z"/><path class="j" d="M239.62,319.35l.35-46.59h-.52l-.34,46.5H239a1.93,1.93,0,0,0,0,3.86C241.26,323.13,241.48,319.94,239.62,319.35Z"/><path class="j" d="M315.44,343.36h14.81a1.28,1.28,0,0,0,1.19.69h.23v69.63A13.14,13.14,0,0,0,344.8,426.8h19.83a13.14,13.14,0,0,0,13.13-13.13V389.2a1.22,1.22,0,0,0,.71-.46,13,13,0,0,0,5,1h12.7a3.2,3.2,0,0,0,3.29,2.74,3.37,3.37,0,0,0,1.83-.5c1.49,4.59,4.83,7.8,8.7,7.8s7.39-3.37,8.82-8.15a1.83,1.83,0,0,0,.64.11,1.73,1.73,0,0,0,1.73-2h17A1.79,1.79,0,0,0,440,391.3a2,2,0,0,0,.43,0A13.17,13.17,0,0,0,453,400.53h38.27a2.81,2.81,0,0,0,2.81,2,3.13,3.13,0,0,0,1.14-.2A13.15,13.15,0,0,0,507,409.81h22.15a13.15,13.15,0,0,0,13.13-13.14V351.91h0a2.81,2.81,0,0,0,2.65-1.59h55.29a13.14,13.14,0,0,0,13.13-13.13V290.31a13.14,13.14,0,0,0-13.13-13.13H541a13.14,13.14,0,0,0-13.13,13.13v1.87A2.14,2.14,0,0,0,526,295H513.85a2.16,2.16,0,0,0-1.66-2.75v-3.43a13.16,13.16,0,0,0-7.54-11.88,1.4,1.4,0,0,0-1-1.67V215.38a13.15,13.15,0,0,0-13.13-13.14H453a13.15,13.15,0,0,0-13.13,13.14v60.26H421.28a3.09,3.09,0,0,0-1.8-3.48V256.32c0-7.24-4.27-13.13-9.53-13.13s-9.52,5.89-9.52,13.13V274l-.24,0a1.37,1.37,0,0,0-1.36,1.62h-20a1.81,1.81,0,0,0-1.11-1.61v-6.89A13.15,13.15,0,0,0,364.63,254H344.8a13.15,13.15,0,0,0-13.13,13.14v13.32a3.31,3.31,0,0,0-3.2,3.67h-13a13.15,13.15,0,0,0-13.13,13.14v33A13.14,13.14,0,0,0,315.44,343.36Zm16.74-56a3.2,3.2,0,0,0,2.94-2.74h20.23a1.26,1.26,0,0,0,.74.63,13,13,0,0,0-.47,3.49v50c0,.44,0,.88.06,1.31a3,3,0,0,0-2.12,2.81H345l.32-28.52c2.29-.2,2.22-3.85-.2-3.85s-2.48,3.52-.32,3.84l-.32,28.53H332.8a1.46,1.46,0,0,0-.62-1.43Zm43-11.24a1.79,1.79,0,0,0,1.85,1.6h.23V337.4a3,3,0,0,0-1.16,3.83,13.2,13.2,0,0,0-5.3,7.33,3.09,3.09,0,0,0-3.14,2.74,12.62,12.62,0,0,1-9.44-5.65,3.06,3.06,0,0,0,1.32-2.42,13.15,13.15,0,0,0,11.28-13v-33a13.15,13.15,0,0,0-12.91-13.13,1.5,1.5,0,0,0-.34-1.19,12.62,12.62,0,0,1,11.19-6.8Zm25.77.5a1.44,1.44,0,0,0,.45-.5h14.14a2.82,2.82,0,0,0,2.81,2,3.21,3.21,0,0,0,.63-.06V304a3,3,0,0,0-2.84,3.29H403.69a2.7,2.7,0,0,0-2.73-3h0Zm54.85-5.13v-9c0-6.95,4-12.62,9-12.62s9,5.67,9,12.62v9c0,.28,0,.56,0,.83h-.23a2.94,2.94,0,0,0-3,3.29H456.78a1.42,1.42,0,0,0-.79-1.51A17.14,17.14,0,0,1,455.79,271.52Zm.83,4.63h14a2.86,2.86,0,0,0,1.73,2.16c-1.6,3.5-4.4,5.82-7.58,5.82-3.75,0-7-3.21-8.33-7.77A.77.77,0,0,0,456.62,276.15Zm-1.2.7a1.47,1.47,0,0,0,.64-.14c1.46,4.67,4.83,7.94,8.75,7.94,3.4,0,6.39-2.48,8.08-6.19a3.64,3.64,0,0,0,.68.07,2.85,2.85,0,0,0,2.91-2.38h22.58a12.56,12.56,0,0,1,2.89.34,1.35,1.35,0,0,0,1.23,1.51V295H497a13.16,13.16,0,0,0-12.44,8.95h-.16a2.75,2.75,0,0,0-2.69,3.42H442.4a2.13,2.13,0,0,0-2-2.78h0V276.15h13.88A1.29,1.29,0,0,0,455.42,276.85Zm56.25,19.69v14.63H507c-.43,0-.86,0-1.28.07a2,2,0,0,0-2.06-1.69h0V295.47H510A2,2,0,0,0,511.67,296.54Zm14.9,15.15a1.8,1.8,0,0,0,1.33,1.53v9.92a1.76,1.76,0,0,0-1.22,1.94h-13.9a1.36,1.36,0,0,0-.59-1V311.69Zm1.84-15.17a1.93,1.93,0,0,0,1.47-1h12.44a12.62,12.62,0,0,1,12.61,12.61v4.38a12.64,12.64,0,0,1-9.74,12.29,3.19,3.19,0,0,0-3.05-2.57,13.15,13.15,0,0,0-11.86-11,1.81,1.81,0,0,0-1.87-1.8h0Zm11,53.18a12.64,12.64,0,0,1-11-12.51V326.67h0A1.65,1.65,0,0,0,530,325.6h8.54a3.29,3.29,0,0,0,3.23,3.51v16.66A3.05,3.05,0,0,0,539.44,349.7Zm-11-36.42a1.79,1.79,0,0,0,1.84-1.54,12.62,12.62,0,0,1,11.37,10.44,3.23,3.23,0,0,0-3,2.9h-8.46a1.74,1.74,0,0,0-1.74-2h0v-9.79Zm-34,83.06V361.43h0a1.44,1.44,0,0,0,.76-2.62,13,13,0,0,0,1.54-5.91,2.58,2.58,0,0,0,.4,0,2,2,0,0,0,1.85-1.08h.08a12.88,12.88,0,0,0,3.18-.39,1.84,1.84,0,0,0,.94,1.38V387.4a12.65,12.65,0,0,1-6.32,10.93A2.8,2.8,0,0,0,494.42,396.34Zm-6.93-31.7a2.7,2.7,0,0,0-1.57-2.21V355a3.25,3.25,0,0,0,3-3.12h5v6.83a1.46,1.46,0,0,0-.66,2.08A12.69,12.69,0,0,1,487.49,364.64ZM441.83,389.2a1.81,1.81,0,0,0-1.49-1.73V368.83a3.25,3.25,0,0,0,2.59-3.06h39.19a2.6,2.6,0,0,0,2.65,2.1,3.24,3.24,0,0,0,.64-.06v8.78a12.63,12.63,0,0,1-12.62,12.61Zm-22.35-23.95V353.68a2,2,0,0,0,1.73-1.82h16a2.81,2.81,0,0,0,2.67,2V362h-.24a3.27,3.27,0,0,0-3.36,3.3ZM419,386.63c0,.53,0,1-.07,1.55a1.63,1.63,0,0,0-1.11,1h-15a3.47,3.47,0,0,0-1.83-3.37V367.49a2,2,0,0,0,1.34-1.72H419Zm-27.82-21.38a12.63,12.63,0,0,1-12.61-12.31h0a2,2,0,0,0,1.85-1.08h16.93a3.17,3.17,0,0,0,3.09,3.39v8l-.24,0a2.05,2.05,0,0,0-2.11,2Zm-13.9,21.17a1.26,1.26,0,0,0-1,.56,12.62,12.62,0,0,1-5.47-10.39V355.25h0a3.17,3.17,0,0,0,3.23-3.39h2.64a2,2,0,0,0,.54.66ZM401,309.94a2.61,2.61,0,0,0,2.66-2.11H416.2a2.85,2.85,0,0,0,2.77,2.36v25.89a3.22,3.22,0,0,0-3.18,2.91H402.37a1.75,1.75,0,0,0-1.43-1.34V309.94Zm39.38,15.34,21.65-.16a1.78,1.78,0,0,0,1.84,1.58,1.93,1.93,0,0,0,0-3.86,1.8,1.8,0,0,0-1.86,1.77l-21.63.16V308.91h0a2,2,0,0,0,1.85-1.08h39.63a2.56,2.56,0,0,0,2,1.68v2.95A13.16,13.16,0,0,0,493.15,325a2.57,2.57,0,0,0,.76,1.43v24.9h-5a3.27,3.27,0,0,0-3.36-3.31l-.26,0A13.16,13.16,0,0,0,472.79,339H440.34Zm62.84-11.41v8.95h-.25a2.63,2.63,0,0,0-2.7,2.27H498a2.62,2.62,0,0,0-1.27-2.92v-1.71c0-.14,0-.28,0-.42,2.41-.5,3.06-3.38,2-5.17a12.38,12.38,0,0,1,3.14-2A1.91,1.91,0,0,0,503.18,313.87Zm-1,37.08a12.66,12.66,0,0,1-3,.4,2.15,2.15,0,0,0-2.05-2.79,2.38,2.38,0,0,0-.39,0V326.81a2.39,2.39,0,0,0,1.12-1.21h2.33a2.69,2.69,0,0,0,2.74,2.88l.25,0v21A1.84,1.84,0,0,0,502.22,351Zm-7.79,7.65h0v-6.74h.86a1.92,1.92,0,0,0,.94.9,12.55,12.55,0,0,1-1.51,5.87A1.27,1.27,0,0,0,494.43,358.6ZM496,320.11l.24,0c0,.12,0,.24,0,.36V322a3.2,3.2,0,0,0-.63-.07,2.63,2.63,0,0,0-1,.17,12.74,12.74,0,0,1,.55-2.06A3.44,3.44,0,0,0,496,320.11Zm-.38,6.95a3.2,3.2,0,0,0,.63-.07v21.75a2.23,2.23,0,0,0-1.13,2.61h-.67V326.8A2.66,2.66,0,0,0,495.59,327.06Zm-.91-7.19a12.59,12.59,0,0,0-.63,2.54,2.61,2.61,0,0,0-1,2,12.63,12.63,0,0,1-8.71-12v-2.91h0a2.58,2.58,0,0,0,2.36-1.33,12.61,12.61,0,0,1,7.58,5.6C492.09,315.07,492.21,318.88,494.68,319.87Zm-9.91,42.34a2.7,2.7,0,0,0-2.73,3h-39.1a3.29,3.29,0,0,0-2.6-3.23v-8.2a2.8,2.8,0,0,0,2.44-2H482.2a3.24,3.24,0,0,0,3.21,3.13v7.28A3.24,3.24,0,0,0,484.77,362.21Zm-12-22.71a12.63,12.63,0,0,1,12,8.62,3.3,3.3,0,0,0-2.56,3.23H442.91a3,3,0,0,0-2.57-3.67V339.5Zm-33,8.17a3,3,0,0,0-2.8,3.68H421.22a2,2,0,0,0-1.74-2V343a3.31,3.31,0,0,0,3-3.51h17.35Zm-36.06,3.68a3.09,3.09,0,0,0-2.83-2.77v-7.13a1.85,1.85,0,0,0,1.5-1.95h13.31A3.3,3.3,0,0,0,419,343v6.32a2.05,2.05,0,0,0-2,2Zm-3.34-9.88v7.1a3.1,3.1,0,0,0-3.05,2.78H380.6a2.14,2.14,0,0,0-2-2.79h0v-5.8h0a2.71,2.71,0,0,0,2.73-3.08,12.61,12.61,0,0,1,2.14-.19h15.28A1.83,1.83,0,0,0,400.43,341.47Zm-22.67,7.23v-6l.26.06v5.9Zm-.51-6.24V349a2.31,2.31,0,0,0-.73,2.37H374a3.1,3.1,0,0,0-2.71-2.76,12.62,12.62,0,0,1,5-6.91A2.52,2.52,0,0,0,377.25,342.46Zm25.05,22.79a2.09,2.09,0,0,0-1.36-1.89v-8.12a3.18,3.18,0,0,0,2.87-3.38H417a2,2,0,0,0,2,1.84v11.55Zm103-15.59a1.79,1.79,0,0,0-1.26-.46,2.34,2.34,0,0,0-.39,0V328.38a2.71,2.71,0,0,0,2-2.78h4.43a1.29,1.29,0,0,0,1.33,1.07l.25,0v12.08A12.61,12.61,0,0,1,505.34,349.66Zm6.33-25.8-.25,0a1.32,1.32,0,0,0-1.36,1.24h-4.44a2.63,2.63,0,0,0-1.93-2.17v-9h0a2.07,2.07,0,0,0,2.11-2.18q.62-.06,1.23-.06h4.63Zm-8.49-14.25a2.17,2.17,0,0,0-1.53,2.73,13.33,13.33,0,0,0-3.27,2.1,3.07,3.07,0,0,0-2.41-1,3.53,3.53,0,0,0-1.16.19,13.15,13.15,0,0,0-7.85-5.85,2.85,2.85,0,0,0-1.89-3.79A12.63,12.63,0,0,1,497,295.47h6.19Zm-63.35-.76V339H422.44a3.23,3.23,0,0,0-3-2.9V310.18a2.84,2.84,0,0,0,2.55-2.35H438.5A2,2,0,0,0,439.83,308.85Zm-39.4,1v27.73a1.76,1.76,0,0,0-1.65,1.37H383.43a13.48,13.48,0,0,0-2.22.19,2.6,2.6,0,0,0-2.65-2.08h0V320.45a12.63,12.63,0,0,1,12.61-12.62h7.16A2.57,2.57,0,0,0,400.43,309.89Zm-44.3,28.84v-50a12.39,12.39,0,0,1,.48-3.42,1.29,1.29,0,0,0,1.13-.7,12.64,12.64,0,0,1,12.56,12.62v33a12.63,12.63,0,0,1-10.78,12.48,2.88,2.88,0,0,0-3-2.78l-.36,0C356.15,339.55,356.13,339.14,356.13,338.73Zm8.5,87.56H344.8a12.63,12.63,0,0,1-12.62-12.62V343.86a1.27,1.27,0,0,0,.45-.5h20.95a2.87,2.87,0,0,0,3,2.75,3.21,3.21,0,0,0,1.2-.22,13.14,13.14,0,0,0,9.85,5.92,3.18,3.18,0,0,0,2.7,3.4v21.38a13.13,13.13,0,0,0,5.77,10.87,1.4,1.4,0,0,0,1.18,1.78v24.43A12.63,12.63,0,0,1,364.63,426.29Zm18.8-37.09a12.42,12.42,0,0,1-4.73-.92,1.41,1.41,0,0,0-.94-1.83V352.8l.27.08a13.14,13.14,0,0,0,13.12,12.89h7a2,2,0,0,0,2.09,1.85l.24,0v18a4,4,0,0,0-1-.13,3.31,3.31,0,0,0-3.36,3.69ZM410,399.25c-3.7,0-6.88-3.14-8.27-7.61a3.49,3.49,0,0,0,1-1.92h15a1.88,1.88,0,0,0,.64,1.63C417,396,413.73,399.25,410,399.25Zm9.47-11.14c0-.48.06-1,.06-1.48V365.77h16.76a3.25,3.25,0,0,0,3.35,3.13h.24v18.56a1.79,1.79,0,0,0-1.72,1.75H421A1.65,1.65,0,0,0,419.42,388.11ZM490.56,400H453a12.64,12.64,0,0,1-12.07-8.94,1.85,1.85,0,0,0,.92-1.36h31a13.14,13.14,0,0,0,13.13-13.13v-8.94a2.76,2.76,0,0,0,1.59-2.47,13.18,13.18,0,0,0,6.07-4,1.06,1.06,0,0,0,.33.18v35A3,3,0,0,0,491.1,400Zm51.24-3.35a12.63,12.63,0,0,1-12.61,12.62H507a12.63,12.63,0,0,1-11.4-7.21,3.19,3.19,0,0,0,1.35-3.23,13.16,13.16,0,0,0,6.7-11.45V353a2.38,2.38,0,0,0,.39,0,1.94,1.94,0,0,0,1.59-3,13.13,13.13,0,0,0,6.52-11.34V326.46a1.35,1.35,0,0,0,.56-.86h14.06a1.61,1.61,0,0,0,1.09,1v10.59a13.14,13.14,0,0,0,11.73,13.05,2.78,2.78,0,0,0,2.17,1.63Zm-.77-119h59.23a12.63,12.63,0,0,1,12.62,12.61v46.88a12.63,12.63,0,0,1-12.62,12.61H545.17a3,3,0,0,0-2.85-4.07h0V329.1a3.33,3.33,0,0,0,2.95-3.84,13.15,13.15,0,0,0,10.18-12.8v-4.38A13.14,13.14,0,0,0,542.32,295H530.07a2.16,2.16,0,0,0-1.66-2.75v-1.89A12.63,12.63,0,0,1,541,277.7Zm-14.85,17.77a1.94,1.94,0,0,0,1.72,1.07v12.95a1.79,1.79,0,0,0-1.34,1.68H512.19V296.52a1.93,1.93,0,0,0,1.47-1Zm-14.51-6.7v3.41a2.14,2.14,0,0,0-1.91,2.77h-6.07V278a1.22,1.22,0,0,0,.78-.59A12.64,12.64,0,0,1,511.67,288.77Zm-71.33-73.39A12.63,12.63,0,0,1,453,202.76h37.6a12.63,12.63,0,0,1,12.62,12.62v21.84l-20.3.08a1.79,1.79,0,0,0-1.84-1.67,1.94,1.94,0,0,0,0,3.87,1.81,1.81,0,0,0,1.85-1.69l20.29-.07v37.44a1.29,1.29,0,0,0-1.12.81,13,13,0,0,0-3-.35H476.55a3,3,0,0,0-2.24-3.22c0-.3,0-.6,0-.9v-9c0-7.24-4.27-13.13-9.52-13.13s-9.53,5.89-9.53,13.13v9a18.63,18.63,0,0,0,.17,2.5h0a1.37,1.37,0,0,0-1.36,1.62H440.34Zm-.51,60.77v28.44a2.17,2.17,0,0,0-1.52,2.72H422.1a3,3,0,0,0-2.62-3.28V277.94a2.8,2.8,0,0,0,1.67-1.79Zm-38.89-19.83c0-6.95,4-12.62,9-12.62s9,5.67,9,12.62V272a4.23,4.23,0,0,0-.63-.05,3,3,0,0,0-2.94,3.68H401.54a1.43,1.43,0,0,0-.6-1.41Zm-.75,20.53.24,0V296.1h-13a1.81,1.81,0,0,0-1.86-1.85c-2.49,0-2.49,3.87,0,3.87a1.78,1.78,0,0,0,1.82-1.51h13.06v7.71a2.72,2.72,0,0,0-2.2,3h-7.08A13.15,13.15,0,0,0,378,320.45v16.7a1.22,1.22,0,0,0-.26.06v-59.6a1.81,1.81,0,0,0,1.1-1.46H399A1.29,1.29,0,0,0,400.19,276.85ZM344.8,254.52h19.83a12.63,12.63,0,0,1,12.62,12.62v6.76H377a1.8,1.8,0,0,0-1.86,1.75h-6.41a13.16,13.16,0,0,0-11.61,7,1.55,1.55,0,0,0-.59-.11,1.36,1.36,0,0,0-1.36,1.61h-20a3.31,3.31,0,0,0-3-3.66V267.14A12.63,12.63,0,0,1,344.8,254.52Zm-42,42.75a12.63,12.63,0,0,1,12.62-12.62h13.09a3.2,3.2,0,0,0,3.14,2.75v53.84l-.23,0a1.37,1.37,0,0,0-1.35,1.63H315.44a12.63,12.63,0,0,1-12.62-12.62Z"/><path class="j" d="M388.77,229v46.59h.51V229.08h.09a1.93,1.93,0,0,0,0-3.86C387.11,225.23,386.91,228.42,388.77,229Z"/><path class="j" d="M327.28,297.25l-14.8-.11a1.3,1.3,0,0,0-1.19-.69h-.23l.52-69.63a13.13,13.13,0,0,0-13-13.22l-19.84-.16a13.15,13.15,0,0,0-13.22,13L265.3,251a1.24,1.24,0,0,0-.71.45,12.91,12.91,0,0,0-4.95-1L247,250.3a3.21,3.21,0,0,0-3.27-2.76,3.37,3.37,0,0,0-1.84.48c-1.45-4.6-4.77-7.83-8.65-7.86s-7.41,3.32-8.87,8.09a1.82,1.82,0,0,0-.64-.12,1.74,1.74,0,0,0-1.75,2l-17-.13a1.77,1.77,0,0,0-1.83-1.59,2.9,2.9,0,0,0-.43,0,13.15,13.15,0,0,0-12.48-9.36l-37.6-.28h-.68a2.84,2.84,0,0,0-2.79-2A3.36,3.36,0,0,0,148,237a13.14,13.14,0,0,0-11.8-7.58L114,229.23a13.15,13.15,0,0,0-13.23,13L100.48,287h0a2.8,2.8,0,0,0-2.66,1.57l-55.3-.41a13.15,13.15,0,0,0-13.23,13l-.35,46.87a13.15,13.15,0,0,0,13,13.22l59.23.44a13.14,13.14,0,0,0,13.23-13v-1.87a2.13,2.13,0,0,0,1.94-2.75l12.13.09a2.16,2.16,0,0,0,1.64,2.76l0,3.43a13.13,13.13,0,0,0,7.44,11.93,1.41,1.41,0,0,0,.95,1.68l-.44,59.84a13.15,13.15,0,0,0,13,13.23l37.6.28a13.15,13.15,0,0,0,13.23-13l.44-60.26,18.55.14a3.08,3.08,0,0,0,1.77,3.49l-.12,15.83c0,7.25,4.18,13.17,9.43,13.21s9.57-5.82,9.63-13.06l.13-17.72.24,0a1.36,1.36,0,0,0,1.36-1.61l20,.15a1.85,1.85,0,0,0,1.1,1.62L264.4,373a13.15,13.15,0,0,0,13,13.23l19.83.14a13.13,13.13,0,0,0,13.23-13l.1-13.33a3.29,3.29,0,0,0,3.22-3.64l13,.09a13.15,13.15,0,0,0,13.23-13l.25-33A13.16,13.16,0,0,0,327.28,297.25ZM310.13,353.1a3.2,3.2,0,0,0-3,2.72l-20.23-.15a1.25,1.25,0,0,0-.74-.64,12.83,12.83,0,0,0,.5-3.48l.38-50q0-.66-.06-1.32a2.93,2.93,0,0,0,2.14-2.78l8.57.06-.53,28.51c-2.3.19-2.26,3.84.16,3.86s2.51-3.5.35-3.84l.53-28.53,11.69.09a1.45,1.45,0,0,0,.6,1.44ZM267.06,364a1.8,1.8,0,0,0-1.84-1.61H265l.44-59.66a3,3,0,0,0,1.19-3.82,13.23,13.23,0,0,0,5.36-7.29,3.1,3.1,0,0,0,3.16-2.71,12.64,12.64,0,0,1,9.4,5.71,3,3,0,0,0-1.34,2.41A13.14,13.14,0,0,0,271.82,310l-.25,33a13.15,13.15,0,0,0,12.82,13.22,1.51,1.51,0,0,0,.33,1.2,12.64,12.64,0,0,1-11.24,6.71Zm-25.77-.68a1.33,1.33,0,0,0-.45.49l-14.14-.11a2.82,2.82,0,0,0-2.8-2,2.48,2.48,0,0,0-.62,0l.19-25.94a3,3,0,0,0,2.86-3.27l12.44.09a2.7,2.7,0,0,0,2.71,3.06h0Zm-54.89,4.72-.06,9c-.05,7-4.14,12.59-9.11,12.55s-9-5.72-8.92-12.68l.07-9q0-.44,0-.84h.22a3,3,0,0,0,3-3.27l13.81.1a1.42,1.42,0,0,0,.78,1.52A17.09,17.09,0,0,1,186.4,368.06Zm-.79-4.64-14-.1a2.88,2.88,0,0,0-1.72-2.18c1.63-3.48,4.45-5.79,7.64-5.76,3.74,0,6.93,3.26,8.26,7.83Zm1.21-.69a1.41,1.41,0,0,0-.64.14c-1.43-4.68-4.78-8-8.69-8-3.41,0-6.42,2.43-8.13,6.13a3.64,3.64,0,0,0-.68-.07,2.85,2.85,0,0,0-2.93,2.35l-22.58-.17a12,12,0,0,1-2.88-.36,1.36,1.36,0,0,0-1.22-1.52l.13-17,6.18.05a13.17,13.17,0,0,0,12.51-8.85h.16a2.75,2.75,0,0,0,2.71-3.41l39.3.3a2.13,2.13,0,0,0,2,2.79h0l-.21,28.38-13.88-.1A1.26,1.26,0,0,0,186.82,362.73Zm-56.11-20.11.11-14.63,4.63,0a10.87,10.87,0,0,0,1.28,0,2,2,0,0,0,2.05,1.7h0l-.11,14.09-6.26-.05A2,2,0,0,0,130.71,342.62Zm-14.79-15.26a1.8,1.8,0,0,0-1.31-1.54l.07-9.92a1.74,1.74,0,0,0,1.23-1.93l13.9.11a1.41,1.41,0,0,0,.59,1l-.09,12.37Zm-2,15.16a2,2,0,0,0-1.48,1l-12.44-.09a12.63,12.63,0,0,1-12.52-12.71l0-4.38a12.64,12.64,0,0,1,9.84-12.21,3.18,3.18,0,0,0,3,2.59,13.15,13.15,0,0,0,11.79,11,1.8,1.8,0,0,0,1.84,1.82h0Zm-10.63-53.26a12.63,12.63,0,0,1,10.93,12.59l-.08,10.52h0a1.64,1.64,0,0,0-1.62,1.06l-8.54-.06a3.29,3.29,0,0,0-3.21-3.54l.12-16.66A3.06,3.06,0,0,0,103.34,289.26Zm10.75,36.5a1.78,1.78,0,0,0-1.84,1.53A12.65,12.65,0,0,1,101,316.76a3.2,3.2,0,0,0,3-2.88l8.47.07a1.73,1.73,0,0,0,1.72,2h0l-.07,9.79ZM148.7,243l-.26,34.91h0a1.44,1.44,0,0,0-.79,2.61,13.06,13.06,0,0,0-1.58,5.9,2.6,2.6,0,0,0-.4,0,2,2,0,0,0-1.86,1.06h-.07a13.4,13.4,0,0,0-3.19.38,1.85,1.85,0,0,0-.92-1.4l.25-34.54a12.61,12.61,0,0,1,6.4-10.88A2.77,2.77,0,0,0,148.7,243Zm6.7,31.75a2.72,2.72,0,0,0,1.55,2.23l-.06,7.45a3.24,3.24,0,0,0-3,3.09l-5,0,.05-6.82a1.47,1.47,0,0,0,.67-2.07A12.72,12.72,0,0,1,155.4,274.7Zm45.84-24.22a1.8,1.8,0,0,0,1.47,1.74v.07l-.13,18.58a3.26,3.26,0,0,0-2.62,3l-39.18-.3a2.6,2.6,0,0,0-2.64-2.12,3.24,3.24,0,0,0-.64.06l.07-8.77a12.63,12.63,0,0,1,12.71-12.53Zm22.17,24.12-.09,11.57a2,2,0,0,0-1.73,1.8l-16-.12a2.79,2.79,0,0,0-2.65-2l.06-8.13h.24a3.26,3.26,0,0,0,3.38-3.28Zm.67-21.38c0-.52,0-1,.08-1.55a1.59,1.59,0,0,0,1.11-1l15,.11a3.42,3.42,0,0,0,1.8,3.38L242,272.49a2.05,2.05,0,0,0-1.36,1.72l-16.68-.13Zm27.66,21.58a12.63,12.63,0,0,1,12.51,12.42h0a2,2,0,0,0-1.86,1.06l-16.93-.13a3.18,3.18,0,0,0-3.06-3.41l.06-8,.24,0a2.06,2.06,0,0,0,2.12-2Zm14.06-21.06a1.24,1.24,0,0,0,1-.55,12.62,12.62,0,0,1,5.39,10.43L272,285h0a3.17,3.17,0,0,0-3.26,3.37l-2.64,0a2.08,2.08,0,0,0-.53-.65Zm-24.28,76.31a2.59,2.59,0,0,0-2.67,2.09l-12.59-.1a2.84,2.84,0,0,0-2.74-2.38l.19-25.89a3.21,3.21,0,0,0,3.19-2.88l13.43.1a1.74,1.74,0,0,0,1.42,1.35l-.21,27.71Zm-39.27-15.64H180.61a1.79,1.79,0,0,0-1.83-1.59,1.93,1.93,0,0,0,0,3.86,1.82,1.82,0,0,0,1.88-1.76h21.62l-.12,15.87h0a2,2,0,0,0-1.86,1.06l-39.64-.29a2.53,2.53,0,0,0-2-1.7l0-2.95a13.17,13.17,0,0,0-9.19-12.63,2.62,2.62,0,0,0-.75-1.43l.18-24.9,5,0a3.26,3.26,0,0,0,3.33,3.33h.27a13.17,13.17,0,0,0,12.42,9.17l32.44.24Zm-62.91,10.94.06-9,.25,0a2.62,2.62,0,0,0,2.71-2.25l2.22,0a2.61,2.61,0,0,0,1.26,2.92l0,1.72c0,.14,0,.27,0,.41-2.42.48-3.09,3.36-2,5.16a12.7,12.7,0,0,1-3.16,2A2,2,0,0,0,139.34,325.35Zm1.22-37.06a12.8,12.8,0,0,1,3.05-.38,2.15,2.15,0,0,0,2,2.8,2.38,2.38,0,0,0,.39,0l-.16,21.79a2.32,2.32,0,0,0-1.13,1.2l-2.33,0a2.69,2.69,0,0,0-2.72-2.9h-.25l.16-20.95A1.86,1.86,0,0,0,140.56,288.29Zm7.86-7.6h0l0,6.74h-.86a2,2,0,0,0-.93-.9,12.52,12.52,0,0,1,1.56-5.86A1.2,1.2,0,0,0,148.42,280.69Zm-1.84,38.48h-.24V317.3a3.2,3.2,0,0,0,.63.07,2.86,2.86,0,0,0,1-.16,12.93,12.93,0,0,1-.56,2.05A4.1,4.1,0,0,0,146.58,319.17Zm.44-6.95a2.53,2.53,0,0,0-.63.07l.16-21.75a2.23,2.23,0,0,0,1.15-2.6h.67l-.18,24.55A2.8,2.8,0,0,0,147,312.22Zm.86,7.2a13.23,13.23,0,0,0,.65-2.53,2.59,2.59,0,0,0,1-2.05,12.61,12.61,0,0,1,8.63,12.06l0,2.92h0a2.57,2.57,0,0,0-2.37,1.32,12.74,12.74,0,0,1-7.55-5.65C150.43,324.24,150.34,320.43,147.88,319.42Zm10.22-42.26a2.7,2.7,0,0,0,2.75-3l39.1.29a3.28,3.28,0,0,0,2.58,3.25l-.07,8.21a2.79,2.79,0,0,0-2.45,1.93l-39.41-.29a3.26,3.26,0,0,0-3.19-3.15l.05-7.28A3.22,3.22,0,0,0,158.1,277.16ZM169.91,300a12.63,12.63,0,0,1-11.9-8.71,3.28,3.28,0,0,0,2.59-3.2l39.28.29a3,3,0,0,0,2.54,3.69l-.06,8.17Zm33-7.92a3,3,0,0,0,2.82-3.66l15.81.12a2.06,2.06,0,0,0,1.73,2l0,6.35a3.29,3.29,0,0,0-3,3.48l-17.36-.12ZM239,288.62a3.09,3.09,0,0,0,2.81,2.79l-.06,7.13a1.83,1.83,0,0,0-1.51,1.93l-13.31-.1a3.29,3.29,0,0,0-3.19-3.53l.05-6.33a2,2,0,0,0,2-2Zm3.27,9.9.05-7.1a3.1,3.1,0,0,0,3.07-2.76l16.77.13a2.14,2.14,0,0,0,2,2.8h0l0,5.8h0a2.7,2.7,0,0,0-2.75,3.05,11.66,11.66,0,0,1-2.14.17L244,300.5A1.82,1.82,0,0,0,242.29,298.52ZM265,291.46l0,6a1.1,1.1,0,0,0-.26-.06l.05-5.9Zm.47,6.24,0-6.52a2.33,2.33,0,0,0,.75-2.36l2.48,0a3.1,3.1,0,0,0,2.7,2.77,12.63,12.63,0,0,1-5.09,6.88A2.35,2.35,0,0,0,265.47,297.7Zm-24.88-23a2.09,2.09,0,0,0,1.35,1.91l-.06,8.12a3.17,3.17,0,0,0-2.9,3.35l-13.21-.1a2,2,0,0,0-1.93-1.85l.08-11.55ZM137.43,289.55a1.86,1.86,0,0,0,1.26.47,1.61,1.61,0,0,0,.39,0l-.15,20.87a2.69,2.69,0,0,0-2,2.76l-4.43,0a1.31,1.31,0,0,0-1.32-1.09l-.26,0,.09-12.08A12.63,12.63,0,0,1,137.43,289.55Zm-6.52,25.75.25,0a1.32,1.32,0,0,0,1.37-1.23l4.45,0a2.6,2.6,0,0,0,1.91,2.18l-.07,9h0a2.07,2.07,0,0,0-2.14,2.16c-.4,0-.81.05-1.22.05l-4.64,0Zm8.39,14.32a2.17,2.17,0,0,0,1.55-2.72,13,13,0,0,0,3.28-2.08,3.12,3.12,0,0,0,2.41,1.05,3.28,3.28,0,0,0,1.16-.19,13.15,13.15,0,0,0,7.81,5.92,2.85,2.85,0,0,0,1.86,3.8,12.65,12.65,0,0,1-12,8.41l-6.18-.05Zm63.35,1.23.22-30.14,17.39.13a3.22,3.22,0,0,0,2.93,2.92L223,329.67a2.83,2.83,0,0,0-2.56,2.33L204,331.88A1.93,1.93,0,0,0,202.65,330.85Zm39.4-.75.21-27.74a1.77,1.77,0,0,0,1.66-1.34l15.35.11a13.66,13.66,0,0,0,2.22-.18,2.59,2.59,0,0,0,2.63,2.1h0L264,319.71a12.63,12.63,0,0,1-12.71,12.52l-7.15-.05A2.58,2.58,0,0,0,242.05,330.1Zm44.51-28.51-.37,50a12.51,12.51,0,0,1-.5,3.42,1.26,1.26,0,0,0-1.14.68,12.62,12.62,0,0,1-12.46-12.71l.24-33a12.64,12.64,0,0,1,10.87-12.4,2.89,2.89,0,0,0,2.95,2.8h.36A12.19,12.19,0,0,1,286.56,301.59ZM278.71,214l19.83.15a12.62,12.62,0,0,1,12.52,12.71l-.51,69.81a1.27,1.27,0,0,0-.46.49L289.15,297a2.88,2.88,0,0,0-2.95-2.77,3.21,3.21,0,0,0-1.2.22,13.15,13.15,0,0,0-9.81-6,3.2,3.2,0,0,0-2.67-3.42l.16-21.37a13.14,13.14,0,0,0-5.7-10.92,1.38,1.38,0,0,0-1.16-1.78L266,226.5A12.63,12.63,0,0,1,278.71,214Zm-19.07,36.94a12.79,12.79,0,0,1,4.72,1,1.42,1.42,0,0,0,.92,1.84L265,287.36l-.26-.08a13.15,13.15,0,0,0-13-13l-6.94-.05a2,2,0,0,0-2.08-1.86h-.24l.14-18a3.5,3.5,0,0,0,1,.14,3.31,3.31,0,0,0,3.38-3.67Zm-26.45-10.24c3.7,0,6.86,3.19,8.21,7.68a3.44,3.44,0,0,0-1,1.9l-15-.11a1.9,1.9,0,0,0-.62-1.64C226.15,243.89,229.41,240.64,233.19,240.67Zm-9.55,11.06c0,.49-.07,1-.07,1.49l-.16,20.86L206.66,274a3.26,3.26,0,0,0-3.33-3.15h-.24l.14-18.51v-.05a1.81,1.81,0,0,0,1.73-1.74l17.09.12A1.61,1.61,0,0,0,223.64,251.73Zm-71-12.43,37.6.28a12.63,12.63,0,0,1,12,9,1.87,1.87,0,0,0-.93,1.35l-31-.22a13.13,13.13,0,0,0-13.22,13l-.07,8.94a2.73,2.73,0,0,0-1.6,2.46,13.05,13.05,0,0,0-6.11,4A.92.92,0,0,0,149,278l.26-35a3,3,0,0,0,2.83-3.66Zm-51.27,3A12.63,12.63,0,0,1,114,229.75l22.15.16a12.66,12.66,0,0,1,11.35,7.29,3.17,3.17,0,0,0-1.37,3.23,13.11,13.11,0,0,0-6.79,11.39l-.26,34.38a2.3,2.3,0,0,0-.39-.05,2,2,0,0,0-1.61,3,13.12,13.12,0,0,0-6.6,11.29l-.09,12.28a1.34,1.34,0,0,0-.58.85l-14-.1a1.6,1.6,0,0,0-1.08-1l.08-10.58a13.14,13.14,0,0,0-11.64-13.14,2.74,2.74,0,0,0-2.16-1.64Zm-.11,119L42,360.81A12.63,12.63,0,0,1,29.46,348.1l.35-46.87A12.63,12.63,0,0,1,42.52,288.7l55.09.41a3,3,0,0,0,2.82,4.1h0l-.12,16.63a3.34,3.34,0,0,0-3,3.82,13.15,13.15,0,0,0-10.27,12.71l0,4.39a13.15,13.15,0,0,0,13,13.23l12.25.09a2.16,2.16,0,0,0,1.64,2.76v1.89A12.65,12.65,0,0,1,101.21,361.25Zm15-17.66a2,2,0,0,0-1.71-1.09l.09-12.94a1.83,1.83,0,0,0,1.36-1.68l14.36.1-.11,14.66a2,2,0,0,0-1.48,1Zm14.45,6.8,0-3.4a2.14,2.14,0,0,0,1.93-2.76l6.07,0-.13,17a1.23,1.23,0,0,0-.78.58A12.65,12.65,0,0,1,130.65,350.39Zm70.79,73.92a12.64,12.64,0,0,1-12.71,12.53l-37.6-.28a12.62,12.62,0,0,1-12.52-12.71l.16-21.85,20.29.08a1.79,1.79,0,0,0,1.84,1.68c2.49,0,2.52-3.85,0-3.87a1.81,1.81,0,0,0-1.87,1.67l-20.29-.07.28-37.45a1.27,1.27,0,0,0,1.12-.79,13.46,13.46,0,0,0,3,.37l22.51.17a3,3,0,0,0,2.21,3.22l0,.91-.06,9c-.06,7.24,4.17,13.16,9.43,13.2s9.57-5.82,9.62-13.06l.07-9a17.12,17.12,0,0,0-.16-2.5h0a1.37,1.37,0,0,0,1.37-1.61l13.71.1Zm1-60.77.21-28.43a2.18,2.18,0,0,0,1.54-2.72l16.22.13a3,3,0,0,0,2.58,3.29l-.19,26.1a2.78,2.78,0,0,0-1.68,1.77Zm38.74,20.12c0,7-4.13,12.59-9.1,12.55s-9-5.73-8.92-12.68l.11-15.7a4.19,4.19,0,0,0,.63.07,3,3,0,0,0,3-3.66l13.86.1a1.45,1.45,0,0,0,.6,1.42Zm.9-20.52h-.23l.14-19.26,13,.09a1.81,1.81,0,0,0,1.85,1.86c2.48,0,2.51-3.84,0-3.86a1.77,1.77,0,0,0-1.83,1.49l-13-.1,0-7.7a2.72,2.72,0,0,0,2.22-3l7.08.06a13.16,13.16,0,0,0,13.23-13l.12-16.7.26-.06-.44,59.59a1.84,1.84,0,0,0-1.11,1.46l-20.13-.15A1.27,1.27,0,0,0,242,363.14Zm55.23,22.74-19.83-.15A12.63,12.63,0,0,1,264.91,373l0-6.76h.24a1.8,1.8,0,0,0,1.87-1.73l6.41,0a13.13,13.13,0,0,0,11.65-6.91,1.56,1.56,0,0,0,.6.13,1.36,1.36,0,0,0,1.37-1.61l20,.15a3.32,3.32,0,0,0,3,3.68l-.1,13.34A12.63,12.63,0,0,1,297.27,385.88Zm42.29-42.44A12.63,12.63,0,0,1,326.85,356l-13.09-.1a3.2,3.2,0,0,0-3.12-2.77l.4-53.84.23,0a1.36,1.36,0,0,0,1.36-1.62l14.65.11a12.62,12.62,0,0,1,12.52,12.71Z"/><path class="j" d="M253.11,411.07l.35-46.58h-.52L252.6,411h-.09a1.93,1.93,0,0,0,0,3.86C254.75,414.86,255,411.66,253.11,411.07Z"/></g><path class="p" d="M339.47,433.09c-2.07,0-4.15-.12-6.22-.23.23-4.18-1.26-7.23,3.37-7.05S339.55,428.9,339.47,433.09Zm6.21,0c-.07-4.18-1.78-7.1,2.85-7.28s3.14,2.87,3.37,7.05Q348.79,433,345.68,433.08Zm-18.62-.69c-2.07-.19-4.13-.43-6.18-.7.54-4.15-.73-7.3,3.88-6.78S327.44,428.23,327.06,432.39Zm31,0c-.39-4.17-2.31-7,2.3-7.49s3.34,2.63,3.88,6.78Q361.19,432.08,358.1,432.38Zm-43.38-1.63q-3.06-.53-6.1-1.18c.84-4.09-.18-7.33,4.37-6.46S315.42,426.62,314.72,430.75Zm55.71,0c-.7-4.12-2.83-6.76,1.73-7.64s3.52,2.37,4.38,6.46Q373.5,430.19,370.43,430.72Zm-67.88-2.56c-2-.5-4-1.05-6-1.63,1.15-4,.38-7.33,4.85-6.11S303.55,424.11,302.55,428.16Zm80.05,0c-1-4.06-3.32-6.53,1.15-7.76s3.7,2.09,4.85,6.1C386.61,427.07,384.6,427.62,382.6,428.13Zm-92-3.48c-2-.66-3.93-1.36-5.88-2.11,1.45-3.92.93-7.27,5.3-5.7S291.92,420.67,290.61,424.65Zm103.93,0c-1.31-4-3.8-6.25.56-7.81s3.85,1.78,5.3,5.7C398.46,423.23,396.5,423.93,394.54,424.6Zm-115.61-4.39c-1.91-.81-3.82-1.66-5.7-2.56,1.75-3.8,1.48-7.17,5.72-5.27S280.53,416.35,278.93,420.21Zm127.23,0c-1.59-3.85-4.26-5.94,0-7.83s4,1.5,5.71,5.28Q409,419,406.16,420.17Zm-138.53-5.29c-1.84-.95-3.67-1.95-5.48-3,2-3.64,2-7,6.08-4.83S269.52,411.15,267.63,414.88Zm149.77,0c-1.87-3.72-4.68-5.59-.61-7.81s4.06,1.19,6.09,4.84C421.07,412.91,419.25,413.9,417.4,414.86Zm-160.63-6.15q-2.65-1.65-5.24-3.39c2.29-3.49,2.53-6.88,6.43-4.35S258.93,405.14,256.77,408.71Zm171.46,0c-2.16-3.56-5.09-5.22-1.19-7.74s4.14.87,6.42,4.36C431.74,406.48,430,407.6,428.23,408.7Zm10.34-7c-2.42-3.39-5.47-4.81-1.77-7.63s4.2.56,6.74,3.85C441.9,399.25,440.25,400.5,438.57,401.73Zm-192.16,0q-2.52-1.85-5-3.78c2.55-3.3,3-6.66,6.75-3.84S248.83,398.33,246.41,401.72Zm202-7.73c-2.65-3.2-5.8-4.38-2.33-7.47s4.23.23,7,3.32Q450.75,392,448.36,394ZM236.6,394c-1.58-1.35-3.15-2.74-4.68-4.15,2.78-3.1,3.53-6.41,7-3.32S239.26,390.77,236.6,394Zm221-8.45c-2.89-3-6.11-3.93-2.87-7.28s4.23-.09,7.23,2.78C460.5,382.55,459,384.05,457.56,385.52Zm-230.15,0q-2.24-2.21-4.36-4.5c3-2.86,4-6.12,7.23-2.77S230.3,382.51,227.41,385.49Zm238.7-9.12c-3.11-2.76-6.4-3.45-3.41-7s4.22-.42,7.42,2.22C468.82,373.18,467.47,374.79,466.11,376.37Zm-247.25,0q-2-2.37-4-4.82c3.21-2.63,4.44-5.8,7.42-2.22S222,373.59,218.86,376.35ZM474,366.58c-3.3-2.51-6.63-2.95-3.91-6.75s4.16-.74,7.56,1.65C476.42,363.2,475.2,364.91,474,366.58Zm-262.92,0c-1.25-1.67-2.46-3.38-3.64-5.1,3.39-2.38,4.85-5.45,7.56-1.65S214.33,364.06,211,366.57Zm-7.09-10.33c-1.11-1.77-2.19-3.55-3.24-5.36,3.56-2.12,5.24-5.07,7.66-1.08S207.42,354,203.94,356.24Zm277.11,0c-3.48-2.25-6.83-2.44-4.41-6.44s4.1-1.06,7.66,1.06Q482.73,353.58,481.05,356.23ZM197.65,345.4c-1-1.85-1.92-3.71-2.83-5.6,3.7-1.83,5.6-4.64,7.72-.47S201.28,343.42,197.65,345.4Zm289.71,0c-3.64-2-7-1.9-4.88-6.09s4-1.37,7.72.47Q488.84,342.58,487.36,345.36ZM192.19,334.11c-.84-1.92-1.64-3.84-2.4-5.79,3.82-1.54,5.93-4.2,7.73.11S196,332.42,192.19,334.11ZM492.83,334c-3.78-1.7-7.11-1.36-5.32-5.69s3.9-1.68,7.74-.13Q494.11,331.13,492.83,334Zm-305.24-11.6q-1-3-2-6c3.94-1.25,6.23-3.73,7.7.72S191.48,321,187.59,322.42Zm309.86-.13c-3.91-1.4-7.21-.81-5.74-5.27s3.76-2,7.71-.73C498.8,318.31,498.14,320.3,497.45,322.29ZM183.88,310.4c-.55-2-1-4.06-1.52-6.11,4-.94,6.5-3.23,7.63,1.31S187.86,309.31,183.88,310.4Zm317.27-.15c-4-1.1-7.24-.26-6.11-4.8s3.6-2.25,7.63-1.32Q502,307.21,501.15,310.25ZM181.07,298.13c-.39-2.06-.73-4.13-1-6.2,4.08-.64,6.73-2.73,7.51,1.89S185.13,297.35,181.07,298.13ZM503.94,298c-4.05-.78-7.23.31-6.45-4.31s3.42-2.53,7.5-1.9Q504.53,294.88,503.94,298ZM179.2,285.68c-.24-2.09-.43-4.17-.58-6.27,4.11-.31,6.9-2.21,7.34,2.46S183.3,285.21,179.2,285.68Zm326.6-.17c-4.1-.46-7.19.87-6.75-3.8s3.21-2.78,7.34-2.46Q506.17,282.39,505.8,285.51ZM178.26,273.13c-.07-2.1-.12-4.2-.12-6.3,4.13,0,7.05-1.68,7.15,3S182.39,273,178.26,273.13ZM506.73,273c-4.12-.16-7.11,1.41-7-3.28.09-5.11,2.53-3.33,7.14-3.35Q506.85,269.65,506.73,273ZM185.36,260.8l-7.11-.26c.07-2.1.19-4.19.34-6.29l4.3.32C187.14,254.89,185.51,256.63,185.36,260.8Zm314.25-.48c-.08-2.24-1.77-5.9,1.06-6.13l5.69-.43q.24,3.13.36,6.28ZM186.24,248.78l-7.07-.8q.35-3.14.8-6.25l4.27.65C188.45,243,186.69,244.63,186.24,248.78Zm312.46-.47c-.25-2.23-2.2-5.76.61-6.19l5.63-.88c.32,2.08.59,4.16.83,6.25ZM188,236.86l-7-1.34c.39-2.06.81-4.12,1.28-6.16l4.2,1C190.64,231.29,188.77,232.76,188,236.86Zm308.9-.46c-.41-2.21-2.63-5.57.14-6.22l5.55-1.3q.71,3.06,1.3,6.16ZM190.66,225.12l-6.87-1.88q.81-3,1.73-6.05l4.12,1.3C193.71,219.77,191.73,221.09,190.66,225.12Zm303.55-.46c-.59-2.17-3-5.35-.33-6.21l5.44-1.73c.63,2,1.21,4,1.76,6.05Zm-300-11.06-6.7-2.4q1-3,2.19-5.92l4,1.62C197.65,208.48,195.57,209.66,194.19,213.6Zm296.46-.43c-.75-2.12-3.44-5.1-.8-6.16l5.29-2.15q1.16,2.92,2.21,5.89ZM198.59,202.38l-6.5-2.92c.84-1.92,1.71-3.83,2.63-5.72l3.87,1.92C202.42,197.54,200.26,198.55,198.59,202.38ZM486.24,202c-.91-2.05-3.8-4.81-1.26-6.07l5.12-2.55q1.36,2.82,2.63,5.69ZM203.82,191.52l-6.27-3.4c1-1.85,2-3.68,3-5.5l3.72,2.21C208,187,205.77,187.84,203.82,191.52ZM481,191.21c-1.05-2-4.15-4.51-1.7-6l4.92-2.93c1,1.81,2,3.63,3,5.48ZM209.84,181.12q-3-2-6-3.88,1.68-2.66,3.45-5.25l3.55,2.49C214.35,176.93,212.07,177.59,209.84,181.12ZM475,180.84c-1.2-1.89-4.48-4.17-2.14-5.82l4.68-3.3c1.18,1.73,2.33,3.47,3.45,5.24ZM216.63,171.2l-5.69-4.32c1.24-1.69,2.52-3.34,3.83-5l3.35,2.75C221.43,167.37,219.1,167.86,216.63,171.2ZM468.18,171c-1.33-1.79-4.77-3.83-2.57-5.64l4.43-3.65q1.95,2.45,3.83,5Zm-244-9.13-5.35-4.74c1.36-1.58,2.76-3.14,4.18-4.67,1,1,2.09,2,3.14,3C229.19,158.39,226.84,158.69,224.13,161.83Zm236.55-.21c-1.47-1.69-5.05-3.45-3-5.43l4.14-4q2.15,2.28,4.19,4.65ZM232.3,153.07c-1.66-1.72-3.33-3.43-5-5.14q2.22-2.2,4.52-4.33l2.9,3.23C237.6,150,235.24,150.14,232.3,153.07Zm220.2-.2c-1.59-1.57-5.3-3.06-3.39-5.19l3.83-4.27c1.54,1.4,3.05,2.85,4.53,4.32C455.81,149.43,454.15,151.16,452.5,152.87ZM241.09,145l-4.59-5.5q2.37-2,4.82-4,1.34,1.71,2.66,3.44C246.6,142.31,244.24,142.26,241.09,145Zm202.59-.18c-1.69-1.45-5.5-2.65-3.76-4.93l3.51-4.55q2.46,1.94,4.83,4C446.74,141.1,445.21,142.93,443.68,144.77Zm-193.23-7.24-4.16-5.84c1.68-1.22,3.38-2.42,5.1-3.58.8,1.2,1.6,2.42,2.39,3.63C256.15,135.32,253.8,135.09,250.45,137.53Zm183.84-.17c-1.8-1.32-5.69-2.23-4.12-4.63q1.59-2.4,3.16-4.81c1.73,1.17,3.44,2.36,5.12,3.59Zm-174-6.51-3.72-6.13c1.76-1.1,3.55-2.17,5.35-3.19l2.12,3.81C266.17,129.09,263.85,128.67,260.34,130.85Zm164-.17c-1.89-1.17-5.84-1.78-4.45-4.29.92-1.68,1.86-3.36,2.78-5,1.81,1,3.61,2.09,5.38,3.19C426.84,126.58,425.61,128.63,424.37,130.68ZM270.69,125l-3.25-6.4c1.84-1,3.69-1.88,5.57-2.77l1.82,4C276.63,123.64,274.36,123,270.69,125ZM414,124.78c-2-1-6-1.33-4.77-3.93l2.4-5.25q2.82,1.34,5.6,2.77C416.13,120.51,415.05,122.64,414,124.78Zm-132.54-4.91-2.76-6.64c1.9-.82,3.82-1.59,5.76-2.33L286,115C287.46,119,285.24,118.24,281.44,119.87Zm121.72-.17c-2.05-.87-6-.86-5.05-3.56.67-1.8,1.33-3.61,2-5.41q2.92,1.11,5.79,2.33Zm-110.6-4.08c-.75-2.28-1.51-4.56-2.26-6.83q2.94-1,5.93-1.89c.41,1.4.81,2.8,1.22,4.19C298.64,115.23,296.46,114.29,292.56,115.62Zm99.43-.15c-2.11-.71-6.08-.39-5.29-3.16q.8-2.78,1.58-5.55c2,.59,4,1.2,6,1.87C393.48,110.91,392.74,113.19,392,115.47Zm-88-3.24c-.58-2.33-1.15-4.66-1.73-7,2-.52,4-1,6.05-1.43l.9,4.28C310.07,112.31,308,111.21,304,112.23Zm76.59-.12c-2.15-.54-6.09.08-5.51-2.73l1.17-5.66q3,.65,6.06,1.41Q381.42,108.61,380.56,112.11Zm-64.95-2.37c-.4-2.37-.81-4.74-1.21-7.1q3.08-.54,6.15-1l.57,4.33C321.69,110.29,319.67,109,315.61,109.74Zm53.3-.09c-2.18-.37-6.06.55-5.69-2.3.24-1.91.49-3.82.73-5.73q3.09.41,6.15.94C369.71,104.92,369.32,107.29,368.91,109.65Zm-41.51-1.51q-.33-3.58-.67-7.17,3.09-.3,6.2-.48l.24,4.36C333.42,109.15,331.51,107.75,327.4,108.14Zm29.72,0c-2.21-.21-6,1-5.86-1.87q.17-2.88.31-5.77,3.1.18,6.2.46C357.55,103.32,357.34,105.71,357.12,108.1Zm-17.84-.65q-.06-3.6-.14-7.2c2.07,0,4.15,0,6.22,0,0,1.45-.05,2.91-.07,4.37C345.21,108.91,343.41,107.37,339.28,107.45Z"/></svg>