<svg xmlns="http://www.w3.org/2000/svg" xmlns:xlink="http://www.w3.org/1999/xlink" viewBox="0 0 139.8 90"><defs><style>.a{mask:url(#a);filter:url(#h);}.b,.d{mix-blend-mode:multiply;}.b{fill:url(#c);}.c{mask:url(#d);filter:url(#k);}.d{fill:url(#f);}.e{fill:none;}.f{fill:#76bd43;}.g{fill:#fff;}.h{mask:url(#g);}.i,.k{opacity:0.59;}.i{fill:url(#i);}.j{mask:url(#j);}.k{fill:url(#l);}.l{clip-path:url(#m);}.m{filter:url(#e);}.n{filter:url(#b);}</style><filter id="b" x="55.57" y="-7876" width="60.01" height="32766" filterUnits="userSpaceOnUse" color-interpolation-filters="sRGB"><feFlood flood-color="#fff" result="bg"/><feBlend in="SourceGraphic" in2="bg"/></filter><mask id="a" x="55.57" y="-7876" width="60.01" height="32766" maskUnits="userSpaceOnUse"><g class="n"/></mask><linearGradient id="c" x1="55.57" y1="46.93" x2="115.57" y2="46.93" gradientUnits="userSpaceOnUse"><stop offset="0" stop-color="#ccc"/><stop offset="0.09" stop-color="#dbdbdb"/><stop offset="0.24" stop-color="#efefef"/><stop offset="0.4" stop-color="#fbfbfb"/><stop offset="0.56" stop-color="#fff"/><stop offset="0.64" stop-color="#ededed"/><stop offset="0.81" stop-color="#bdbdbd"/><stop offset="1" stop-color="gray"/></linearGradient><filter id="e" x="37.33" y="-7876" width="69.29" height="32766" filterUnits="userSpaceOnUse" color-interpolation-filters="sRGB"><feFlood flood-color="#fff" result="bg"/><feBlend in="SourceGraphic" in2="bg"/></filter><mask id="d" x="37.33" y="-7876" width="69.29" height="32766" maskUnits="userSpaceOnUse"><g class="m"/></mask><linearGradient id="f" x1="45.71" y1="71.94" x2="85.08" y2="3.75" gradientUnits="userSpaceOnUse"><stop offset="0" stop-color="#1a1a1a"/><stop offset="0.03" stop-color="#373737"/><stop offset="0.11" stop-color="#767676"/><stop offset="0.17" stop-color="#a4a4a4"/><stop offset="0.22" stop-color="silver"/><stop offset="0.25" stop-color="#cbcbcb"/><stop offset="0.33" stop-color="#dbdbdb"/><stop offset="0.46" stop-color="#efefef"/><stop offset="0.6" stop-color="#fbfbfb"/><stop offset="0.73" stop-color="#fff"/><stop offset="0.76" stop-color="#ededed"/><stop offset="0.82" stop-color="#bdbdbd"/><stop offset="0.91" stop-color="#717171"/><stop offset="1" stop-color="#1a1a1a"/></linearGradient><filter id="h" x="55.57" y="9.99" width="60.01" height="73.88" filterUnits="userSpaceOnUse" color-interpolation-filters="sRGB"><feFlood flood-color="#fff" result="bg"/><feBlend in="SourceGraphic" in2="bg"/></filter><mask id="g" x="55.57" y="9.99" width="60.01" height="73.88" maskUnits="userSpaceOnUse"><g class="a"><path class="b" d="M111.87,32.84a39.26,39.26,0,0,1-56.3,45.1A39.25,39.25,0,1,0,94.78,10,39.1,39.1,0,0,1,111.87,32.84Z"/></g></mask><linearGradient id="i" x1="55.57" y1="46.93" x2="115.57" y2="46.93" gradientUnits="userSpaceOnUse"><stop offset="0" stop-color="#4e2c11"/><stop offset="0.14" stop-color="#512d10"/><stop offset="0.56" stop-color="#552e0f"/><stop offset="0.77" stop-color="#43240e"/><stop offset="1" stop-color="#2b170d"/></linearGradient><filter id="k" x="37.33" y="5.41" width="69.29" height="68.87" filterUnits="userSpaceOnUse" color-interpolation-filters="sRGB"><feFlood flood-color="#fff" result="bg"/><feBlend in="SourceGraphic" in2="bg"/></filter><mask id="j" x="37.33" y="5.41" width="69.29" height="68.87" maskUnits="userSpaceOnUse"><g class="c"><path class="d" d="M39.2,47.24a39.92,39.92,0,0,1,67.42-28.95,39.92,39.92,0,1,0-56.87,56A39.76,39.76,0,0,1,39.2,47.24Z"/></g></mask><linearGradient id="l" x1="45.71" y1="71.94" x2="85.08" y2="3.75" gradientUnits="userSpaceOnUse"><stop offset="0" stop-color="#f47521"/><stop offset="0.05" stop-color="#c15d1c"/><stop offset="0.12" stop-color="#824016"/><stop offset="0.18" stop-color="#542a11"/><stop offset="0.22" stop-color="#381d0e"/><stop offset="0.25" stop-color="#2d180d"/><stop offset="0.28" stop-color="#351b0e"/><stop offset="0.39" stop-color="#512712"/><stop offset="0.5" stop-color="#653015"/><stop offset="0.62" stop-color="#713516"/><stop offset="0.73" stop-color="#753717"/><stop offset="0.78" stop-color="#874018"/><stop offset="0.88" stop-color="#b7571c"/><stop offset="1" stop-color="#f47521"/></linearGradient><clipPath id="m"><path class="e" d="M34.56,43A42.13,42.13,0,1,1,74.49,87.26,42.13,42.13,0,0,1,34.56,43Z"/></clipPath></defs><title>crypto-coins-white</title><path class="f" d="M34.56,40.68A42.14,42.14,0,1,1,74.49,84.91,42.13,42.13,0,0,1,34.56,40.68Z"/><path class="g" d="M78.37.06A45,45,0,1,1,31.12,42.7,45.06,45.06,0,0,1,78.37.06ZM74.06,84.21A39.26,39.26,0,1,0,36.85,43,39.31,39.31,0,0,0,74.06,84.21Z"/><path class="f" d="M78.38,1.93c1.25.07,2.51.18,3.74.35l-.34,2.48a41.35,41.35,0,0,0-7.12-.37L74.57,1.9C75.83,1.86,77.11,1.87,78.38,1.93Zm4.48.46.76.12L83.19,5l-.7-.11Zm-9-.45L74,4.43l-.72,0L73.06,2ZM90.92,4.45l.71.27-.89,2.33-.67-.25ZM65.59,3.17l.61,2.42-.69.18-.65-2.41ZM92.34,5a43.13,43.13,0,0,1,6.74,3.43l-1.31,2.12a40.43,40.43,0,0,0-6.36-3.23ZM64.13,3.56,64.82,6a40.87,40.87,0,0,0-6.64,2.57l-1.1-2.24A43.37,43.37,0,0,1,64.13,3.56Zm35.6,5.27q.31.2.63.42L99,11.31l-.59-.39ZM56.4,6.62l1.15,2.22-.64.34L55.74,7ZM106.24,14l.54.53L105,16.29l-.51-.49ZM49.41,11.1l1.54,2-.56.44-1.57-1.93Zm57.9,4a43.29,43.29,0,0,1,4.77,5.86L110,22.33a41.73,41.73,0,0,0-4.49-5.53Zm-59.08-3L49.84,14a40.59,40.59,0,0,0-5,5l-1.92-1.6A44.24,44.24,0,0,1,48.23,12.06Zm64.27,9.5.41.64-2.12,1.32c-.12-.2-.25-.4-.38-.6ZM42.41,18l1.94,1.56c-.15.19-.3.37-.44.56l-2-1.53C42.09,18.39,42.25,18.19,42.41,18Zm74,10.92.27.7-2.32.9c-.09-.22-.18-.44-.26-.66Zm-78.54-4L40,26.1c-.12.21-.22.42-.33.64L37.47,25.6Zm79.08,5.4a42.77,42.77,0,0,1,2,7.3l-2.45.43a41,41,0,0,0-1.86-6.87Zm-79.76-4,2.24,1.1A40.54,40.54,0,0,0,36.83,34l-2.4-.68A42.94,42.94,0,0,1,37.14,26.28ZM119,38.37c0,.25.08.5.11.75l-2.47.35c0-.23-.07-.47-.11-.7ZM34.23,34.08l2.42.64c-.07.23-.12.46-.18.69l-2.42-.6Zm85.28,12.59c0,.25,0,.5,0,.76L117,47.3l0-.71ZM32.88,42.28l2.49.17c0,.24,0,.47,0,.71v.09l-2.49-.12V43C32.85,42.78,32.86,42.53,32.88,42.28ZM117,48l2.49.17a43.65,43.65,0,0,1-1.16,7.47l-2.42-.6A41.43,41.43,0,0,0,117,48ZM35.29,44a42.28,42.28,0,0,0,.39,7.12l-2.47.35a44.19,44.19,0,0,1-.41-7.55Zm80.39,11.79,2.42.63-.21.74-2.39-.68Zm-79.89-4,.12.71-2.46.43-.12-.74ZM113,63.09l2.24,1.09c-.11.23-.22.46-.34.68l-2.22-1.13C112.75,63.52,112.85,63.31,113,63.09ZM37.77,59.36c.09.22.17.44.25.67l-2.32.9-.27-.71Zm74.54,5,2.21,1.17a44.72,44.72,0,0,1-4.11,6.35l-2-1.54A41,41,0,0,0,112.31,64.37Zm-74-3.69A40.76,40.76,0,0,0,41.54,67l-2.11,1.33A43.93,43.93,0,0,1,36,61.63ZM108,70.91l2,1.57c-.16.2-.32.39-.49.58l-1.91-1.6ZM41.93,67.62l.4.59-2.07,1.4L39.84,69Zm60.58,8.89,1.61,1.91-.58.48L102,77ZM46.83,73.74c.16.17.33.34.5.5L45.57,76c-.18-.18-.36-.35-.53-.54Zm54.58,3.67,1.54,2a43,43,0,0,1-6.33,4.14l-1.18-2.2A41.09,41.09,0,0,0,101.41,77.41ZM47.84,74.74a41.21,41.21,0,0,0,5.55,4.48L52,81.29a43.27,43.27,0,0,1-5.89-4.75Zm47,6.9L96,83.86l-.67.34L94.18,82ZM54,79.61c.2.13.4.26.61.38l-1.32,2.12-.64-.4Zm33.55,4.93.7,2.39-.73.21-.65-2.41ZM60.94,83.21l.67.27-.89,2.33-.7-.28Zm25.22,1.7.61,2.42a42.74,42.74,0,0,1-7.47,1.19L79.12,86A41.81,41.81,0,0,0,86.16,84.91ZM62.28,83.72a40,40,0,0,0,6.89,1.82L68.75,88a43.46,43.46,0,0,1-7.31-1.93Zm16.13,2.36.14,2.49-.76,0-.09-2.5Zm-8.54-.43.71.11-.34,2.47-.75-.11Z"/><g class="h"><path class="i" d="M111.87,32.84a39.26,39.26,0,0,1-56.3,45.1A39.25,39.25,0,1,0,94.78,10,39.1,39.1,0,0,1,111.87,32.84Z"/></g><g class="j"><path class="k" d="M39.2,47.24a39.92,39.92,0,0,1,67.42-28.95,39.92,39.92,0,1,0-56.87,56A39.76,39.76,0,0,1,39.2,47.24Z"/></g><g class="l"><path class="g" d="M67,41.3h3.47a.29.29,0,0,0,.27.16h.06V57.74a3.07,3.07,0,0,0,3.07,3.07h4.63a3.07,3.07,0,0,0,3.07-3.07V52a.3.3,0,0,0,.17-.11,3,3,0,0,0,1.16.23h3a.75.75,0,0,0,.77.64.83.83,0,0,0,.43-.12,2.31,2.31,0,0,0,2,1.82,2.35,2.35,0,0,0,2.06-1.9l.15,0a.41.41,0,0,0,.41-.46h4a.42.42,0,0,0,.43.37h.1a3.09,3.09,0,0,0,2.93,2.17h9a.67.67,0,0,0,.66.47.76.76,0,0,0,.27-.05,3.07,3.07,0,0,0,2.77,1.75H117A3.08,3.08,0,0,0,120,53.76V43.3h0a.66.66,0,0,0,.62-.38h12.92a3.06,3.06,0,0,0,3.07-3.07v-11a3.06,3.06,0,0,0-3.07-3.07H119.73a3.06,3.06,0,0,0-3.07,3.07v.43a.5.5,0,0,0-.45.65h-2.84a.5.5,0,0,0-.39-.64v-.81a3.07,3.07,0,0,0-1.76-2.77.32.32,0,0,0-.22-.39v-14a3.08,3.08,0,0,0-3.07-3.07h-8.8a3.08,3.08,0,0,0-3.07,3.07V25.46H91.73a.73.73,0,0,0-.42-.81V21c0-1.69-1-3.07-2.23-3.07S86.85,19.26,86.85,21v4.14h0a.31.31,0,0,0-.32.37H81.81a.41.41,0,0,0-.26-.37V23.48a3.06,3.06,0,0,0-3.07-3.07H73.85a3.06,3.06,0,0,0-3.07,3.07v3.11a.78.78,0,0,0-.75.86H67a3.08,3.08,0,0,0-3.07,3.07v7.71A3.08,3.08,0,0,0,67,41.3ZM70.9,28.21a.73.73,0,0,0,.68-.64h4.73a.34.34,0,0,0,.18.15,3.1,3.1,0,0,0-.11.81V40.22c0,.1,0,.2,0,.3a.69.69,0,0,0-.49.66h-2L74,34.51a.45.45,0,1,0-.12,0l-.08,6.67H71a.34.34,0,0,0-.14-.34Zm10-2.63a.42.42,0,0,0,.43.38h.05V39.9a.7.7,0,0,0-.27.9,3.12,3.12,0,0,0-1.24,1.71.73.73,0,0,0-.73.64A3,3,0,0,1,77,41.83a.7.7,0,0,0,.31-.56,3.07,3.07,0,0,0,2.64-3V30.52a3.08,3.08,0,0,0-3-3.07.36.36,0,0,0-.08-.28,3,3,0,0,1,2.62-1.59Zm6,.12a.32.32,0,0,0,.11-.12h3.3a.67.67,0,0,0,.66.47l.15,0V32.1a.68.68,0,0,0-.66.77H87.62a.63.63,0,0,0-.64-.71h0ZM99.8,24.5V22.39c0-1.62.94-2.95,2.1-2.95S104,20.77,104,22.39V24.7H104a.69.69,0,0,0-.69.77H100a.33.33,0,0,0-.19-.35A4.08,4.08,0,0,1,99.8,24.5Zm.19,1.08h3.28a.69.69,0,0,0,.41.51,2.07,2.07,0,0,1-1.78,1.36A2.24,2.24,0,0,1,100,25.63Zm-.28.17a.33.33,0,0,0,.15,0,2.33,2.33,0,0,0,2,1.85,2.18,2.18,0,0,0,1.89-1.45l.16,0a.68.68,0,0,0,.69-.56h5.27a3,3,0,0,1,.68.08.32.32,0,0,0,.29.36v4h-1.45a3.08,3.08,0,0,0-2.91,2.09h0a.64.64,0,0,0-.62.8H96.67a.5.5,0,0,0-.48-.65h0V25.58h3.25A.29.29,0,0,0,99.71,25.75Zm13.15,4.6v3.42h-1.08l-.3,0a.47.47,0,0,0-.48-.4h0V30.1h1.46A.46.46,0,0,0,112.86,30.35Zm3.49,3.54a.4.4,0,0,0,.31.36v2.32a.41.41,0,0,0-.29.45h-3.25a.32.32,0,0,0-.14-.24V33.89Zm.43-3.54a.47.47,0,0,0,.34-.25H120a3,3,0,0,1,3,2.95v1A3,3,0,0,1,120.7,37a.73.73,0,0,0-.71-.6,3.09,3.09,0,0,0-2.78-2.57.42.42,0,0,0-.43-.42h0Zm2.57,12.43a2.94,2.94,0,0,1-2.57-2.93V37.4h0a.37.37,0,0,0,.37-.26h2a.78.78,0,0,0,.76.83v3.89A.72.72,0,0,0,119.35,42.78Zm-2.57-8.51a.43.43,0,0,0,.43-.37,3,3,0,0,1,2.65,2.45.74.74,0,0,0-.7.67h-2a.41.41,0,0,0-.4-.47h0V34.27Zm-8,19.41V45.52h0a.33.33,0,0,0,.18-.61,3,3,0,0,0,.36-1.38h.09a.45.45,0,0,0,.43-.25h0a3.08,3.08,0,0,0,.75-.1.43.43,0,0,0,.22.33v8.07a3,3,0,0,1-1.48,2.56A.67.67,0,0,0,108.83,53.68Zm-1.62-7.41a.62.62,0,0,0-.37-.51V44a.76.76,0,0,0,.7-.72h1.17v1.59a.35.35,0,0,0-.16.49A3,3,0,0,1,107.21,46.27ZM96.53,52a.43.43,0,0,0-.34-.41V47.25a.75.75,0,0,0,.61-.71H106a.61.61,0,0,0,.62.49l.15,0v2.06a3,3,0,0,1-3,3Zm-5.22-5.6V43.71a.48.48,0,0,0,.4-.42h3.73a.68.68,0,0,0,.62.46v1.9h0a.77.77,0,0,0-.79.78Zm-.12,5c0,.13,0,.25,0,.37a.37.37,0,0,0-.26.24H87.4a.79.79,0,0,0-.43-.79V46.94a.49.49,0,0,0,.32-.4h3.9Zm-6.51-5a3,3,0,0,1-2.94-2.88h0a.46.46,0,0,0,.43-.25h4a.75.75,0,0,0,.72.79V46h0a.48.48,0,0,0-.5.48Zm-3.25,4.94a.29.29,0,0,0-.22.14,3,3,0,0,1-1.28-2.43v-5h0a.74.74,0,0,0,.76-.79h.62a.57.57,0,0,0,.12.15ZM87,33.48A.6.6,0,0,0,87.6,33h2.94a.66.66,0,0,0,.65.55V39.6a.74.74,0,0,0-.74.68H87.31A.4.4,0,0,0,87,40V33.48Zm9.2,3.59,5.07,0a.41.41,0,0,0,.43.37.45.45,0,0,0,0-.9.43.43,0,0,0-.44.41l-5.06,0V33.24h0a.45.45,0,0,0,.43-.25h9.27a.6.6,0,0,0,.47.39v.69A3.09,3.09,0,0,0,108.53,37a.52.52,0,0,0,.18.33v5.83h-1.17a.77.77,0,0,0-.79-.78h-.06a3.08,3.08,0,0,0-2.92-2.12H96.18Zm14.7-2.67v2.1h-.06a.62.62,0,0,0-.63.53h-.52a.62.62,0,0,0-.3-.68v-.5a.81.81,0,0,0,.46-1.21,2.77,2.77,0,0,1,.73-.47A.45.45,0,0,0,110.88,34.4Zm-.23,8.67a2.76,2.76,0,0,1-.71.09.5.5,0,0,0-.48-.65h-.09V37.43a.57.57,0,0,0,.26-.29h.55a.63.63,0,0,0,.64.68h.06v4.89A.46.46,0,0,0,110.65,43.07Zm-1.82,1.79h0V43.29h.2a.43.43,0,0,0,.22.2,2.91,2.91,0,0,1-.35,1.38Zm.36-9h.06v.44l-.15,0a.72.72,0,0,0-.22,0,4.21,4.21,0,0,1,.12-.48Zm-.09,1.63.15,0v5.09a.53.53,0,0,0-.27.61h-.15V37.43A.76.76,0,0,0,109.1,37.49Zm-.21-1.69a2.93,2.93,0,0,0-.15.6.59.59,0,0,0-.22.48,3,3,0,0,1-2-2.81v-.68h0a.58.58,0,0,0,.55-.31,3,3,0,0,1,1.78,1.31A.81.81,0,0,0,108.89,35.8Zm-2.32,9.9a.64.64,0,0,0-.64.72H96.79a.76.76,0,0,0-.61-.76V43.74a.63.63,0,0,0,.57-.45H106a.76.76,0,0,0,.75.73v1.7Zm-2.8-5.3a3,3,0,0,1,2.8,2,.76.76,0,0,0-.6.76H96.78a.7.7,0,0,0-.6-.86V40.4Zm-7.71,1.9a.7.7,0,0,0-.65.87H91.72a.5.5,0,0,0-.41-.47V41.22a.78.78,0,0,0,.7-.82h4Zm-8.43.87a.7.7,0,0,0-.66-.65V40.85a.42.42,0,0,0,.35-.45h3.12a.76.76,0,0,0,.75.82V42.7a.47.47,0,0,0-.46.47Zm-.78-2.31v1.65a.73.73,0,0,0-.71.66H82.22a.51.51,0,0,0-.48-.66h0V41.16h0a.63.63,0,0,0,.64-.72,2.74,2.74,0,0,1,.5,0h3.57A.43.43,0,0,0,86.85,40.86Zm-5.3,1.69V41.13l.06,0v1.38Zm-.12-1.46v1.52a.56.56,0,0,0-.17.56h-.58a.72.72,0,0,0-.63-.65,3,3,0,0,1,1.17-1.62A.76.76,0,0,0,81.43,41.09Zm5.86,5.33A.48.48,0,0,0,87,46v-1.9a.73.73,0,0,0,.67-.78h3.09a.48.48,0,0,0,.46.43v2.7Zm24.09-3.65a.45.45,0,0,0-.29-.11H111V37.8a.65.65,0,0,0,.46-.66h1a.31.31,0,0,0,.31.26h.06v2.83A2.93,2.93,0,0,1,111.38,42.77Zm1.48-6h-.06a.3.3,0,0,0-.31.29h-1a.61.61,0,0,0-.45-.5v-2.1h0a.48.48,0,0,0,.49-.51l.29,0h1.08Zm-2-3.33a.5.5,0,0,0-.36.63,3,3,0,0,0-.76.5.72.72,0,0,0-.57-.24.77.77,0,0,0-.27,0A3.08,3.08,0,0,0,107.08,33a.66.66,0,0,0-.44-.88,3,3,0,0,1,2.79-2h1.45Zm-14.82-.18v7.05H92a.75.75,0,0,0-.69-.68V33.54A.66.66,0,0,0,91.9,33h3.86A.46.46,0,0,0,96.06,33.23Zm-9.21.24V40a.4.4,0,0,0-.38.32H82.88a3,3,0,0,0-.52,0,.61.61,0,0,0-.62-.49h0V35.94a3,3,0,0,1,3-2.95h1.68A.6.6,0,0,0,86.85,33.47ZM76.5,40.22V28.53a3.09,3.09,0,0,1,.11-.8.27.27,0,0,0,.26-.16,3,3,0,0,1,2.94,2.95v7.71a3,3,0,0,1-2.52,2.92.67.67,0,0,0-.7-.65h-.08A2.62,2.62,0,0,1,76.5,40.22Zm2,20.47H73.85a3,3,0,0,1-2.95-2.95V41.41a.35.35,0,0,0,.1-.11h4.9a.67.67,0,0,0,.69.64.78.78,0,0,0,.28,0,3.07,3.07,0,0,0,2.31,1.38.74.74,0,0,0,.63.8v5a3.06,3.06,0,0,0,1.35,2.54.32.32,0,0,0,.27.41v5.72A3,3,0,0,1,78.48,60.69ZM82.88,52a3,3,0,0,1-1.11-.22.33.33,0,0,0-.22-.43V43.5l.07,0a3.07,3.07,0,0,0,3.06,3h1.63a.48.48,0,0,0,.49.43h0v4.21a.85.85,0,0,0-.23,0,.78.78,0,0,0-.79.87Zm6.2,2.34a2.22,2.22,0,0,1-1.93-1.78.86.86,0,0,0,.24-.44h3.5a.42.42,0,0,0,.14.38A2.24,2.24,0,0,1,89.08,54.36Zm2.21-2.6c0-.11,0-.23,0-.35V46.54h3.92a.76.76,0,0,0,.78.73h0v4.32h0a.43.43,0,0,0-.4.42h-4A.38.38,0,0,0,91.29,51.76Zm16.64,2.78h-8.8a3,3,0,0,1-2.82-2.08.43.43,0,0,0,.22-.32h7.24a3.08,3.08,0,0,0,3.07-3.07V47a.65.65,0,0,0,.37-.58,3.14,3.14,0,0,0,1.42-.94l.08,0v8.18a.71.71,0,0,0-.66.86Zm12-.78a3,3,0,0,1-3,3h-5.18A3,3,0,0,1,109.11,55a.75.75,0,0,0,.32-.76A3.09,3.09,0,0,0,111,51.59v-8h.09a.45.45,0,0,0,.37-.7A3.09,3.09,0,0,0,113,40.22V37.35a.34.34,0,0,0,.14-.21h3.28a.39.39,0,0,0,.26.24v2.47a3.08,3.08,0,0,0,2.74,3.06.66.66,0,0,0,.51.38ZM119.73,26h13.84a3,3,0,0,1,3,2.95v11a3,3,0,0,1-3,2.95H120.69a.71.71,0,0,0-.66-.95h0V38a.77.77,0,0,0,.69-.89,3.09,3.09,0,0,0,2.38-3v-1A3.08,3.08,0,0,0,120,30h-2.87a.5.5,0,0,0-.38-.64V28.9A3,3,0,0,1,119.73,26Zm-3.48,4.15a.46.46,0,0,0,.41.25v3a.43.43,0,0,0-.32.39H113V30.35a.49.49,0,0,0,.35-.25Zm-3.39-1.57v.8a.5.5,0,0,0-.44.65H111V26a.28.28,0,0,0,.18-.14A3,3,0,0,1,112.86,28.53ZM96.18,11.37a3,3,0,0,1,2.95-2.94h8.8a3,3,0,0,1,2.95,2.94v5.11l-4.75,0a.42.42,0,0,0-.43-.39.45.45,0,0,0,0,.9.41.41,0,0,0,.43-.39l4.75,0v8.76a.31.31,0,0,0-.27.19,2.69,2.69,0,0,0-.7-.09h-5.26a.7.7,0,0,0-.52-.75V22.39c0-1.69-1-3.07-2.23-3.07s-2.22,1.38-2.22,3.07V24.5a3.81,3.81,0,0,0,0,.59h0a.32.32,0,0,0-.32.37H96.18Zm-.12,14.21v6.65a.52.52,0,0,0-.35.64H91.92a.7.7,0,0,0-.61-.77V26a.63.63,0,0,0,.39-.42ZM87,21c0-1.63,1-2.95,2.11-2.95s2.11,1.32,2.11,2.95v3.67l-.15,0a.71.71,0,0,0-.69.86H87.11a.33.33,0,0,0-.14-.33Zm-.17,4.8h0v4.51h-3a.42.42,0,0,0-.44-.43.45.45,0,0,0,0,.9.42.42,0,0,0,.43-.35h3v1.8a.64.64,0,0,0-.51.7H84.68a3.08,3.08,0,0,0-3.07,3.07v3.91h-.06V25.93a.43.43,0,0,0,.26-.35h4.71A.29.29,0,0,0,86.8,25.75Zm-13-5.22h4.63a3,3,0,0,1,3,2.95v1.58h-.05a.42.42,0,0,0-.44.4H79.45a3.09,3.09,0,0,0-2.72,1.64.29.29,0,0,0-.14,0,.31.31,0,0,0-.31.38H71.6a.77.77,0,0,0-.7-.85V23.48A3,3,0,0,1,73.85,20.53ZM64,30.52a3,3,0,0,1,3-2.95H70a.75.75,0,0,0,.74.64V40.8h-.06a.31.31,0,0,0-.31.38H67a3,3,0,0,1-3-3Z"/><path class="g" d="M84.13,14.56V25.45h.12V14.58h0a.45.45,0,1,0-.14,0Z"/><path class="g" d="M69.75,30.52l-3.46,0a.3.3,0,0,0-.28-.16H66l.12-16.28A3.07,3.07,0,0,0,63,11l-4.63,0a3.07,3.07,0,0,0-3.1,3l0,5.72a.34.34,0,0,0-.17.11,3.11,3.11,0,0,0-1.15-.24l-3,0a.76.76,0,0,0-.77-.65.83.83,0,0,0-.43.12,2.33,2.33,0,0,0-2-1.84,2.34,2.34,0,0,0-2.07,1.89.4.4,0,0,0-.15,0,.41.41,0,0,0-.41.47l-4,0a.41.41,0,0,0-.43-.37.33.33,0,0,0-.1,0,3.09,3.09,0,0,0-2.92-2.19l-8.79-.06h-.16a.66.66,0,0,0-.65-.47.76.76,0,0,0-.27.05,3.06,3.06,0,0,0-2.76-1.78l-5.18,0a3.08,3.08,0,0,0-3.09,3.05l-.08,10.47h0a.67.67,0,0,0-.62.36L3.17,28.4A3.07,3.07,0,0,0,.08,31.45L0,42.4a3.08,3.08,0,0,0,3.05,3.1l13.85.1A3.07,3.07,0,0,0,20,42.55v-.43a.5.5,0,0,0,.45-.65l2.84,0a.51.51,0,0,0,.38.65v.8a3.06,3.06,0,0,0,1.74,2.79.32.32,0,0,0,.22.39l-.1,14a3.07,3.07,0,0,0,3.05,3.09l8.79.06a3.06,3.06,0,0,0,3.09-3l.1-14.09,4.34,0a.73.73,0,0,0,.41.82l0,3.7c0,1.69,1,3.08,2.2,3.08s2.24-1.36,2.25-3.05l0-4.14h.06a.31.31,0,0,0,.32-.37l4.66,0a.46.46,0,0,0,.26.38v1.61a3.07,3.07,0,0,0,3.05,3.09l4.63,0a3.09,3.09,0,0,0,3.1-3l0-3.11a.78.78,0,0,0,.75-.86l3.05,0a3.08,3.08,0,0,0,3.09-3l.06-7.71A3.08,3.08,0,0,0,69.75,30.52Zm-4,13.06a.74.74,0,0,0-.69.63l-4.73,0a.26.26,0,0,0-.17-.15,3.12,3.12,0,0,0,.11-.82l.09-11.68c0-.1,0-.2,0-.31a.69.69,0,0,0,.5-.65l2,0-.12,6.66a.46.46,0,1,0,.12,0L63,30.59l2.73,0a.34.34,0,0,0,.14.33ZM55.67,46.13a.42.42,0,0,0-.43-.38h-.05l.1-13.95a.69.69,0,0,0,.28-.89,3,3,0,0,0,1.25-1.7.72.72,0,0,0,.74-.64,3,3,0,0,1,2.2,1.34.68.68,0,0,0-.31.56,3.09,3.09,0,0,0-2.67,3l-.05,7.71a3.06,3.06,0,0,0,3,3.09.35.35,0,0,0,.08.28,3,3,0,0,1-2.63,1.57Zm-6-.16a.38.38,0,0,0-.11.11l-3.3,0a.67.67,0,0,0-.66-.47h-.14l0-6.06a.7.7,0,0,0,.67-.77l2.91,0a.63.63,0,0,0,.63.72h0Zm-12.84,1.1v2.11c0,1.63-1,2.94-2.13,2.93s-2.1-1.33-2.09-3l0-2.11a1.15,1.15,0,0,1,0-.19h0a.69.69,0,0,0,.7-.77l3.23,0a.32.32,0,0,0,.18.35A3.08,3.08,0,0,1,36.81,47.07ZM36.63,46l-3.28,0a.67.67,0,0,0-.41-.5,2.06,2.06,0,0,1,1.79-1.35,2.23,2.23,0,0,1,1.93,1.83Zm.28-.16a.33.33,0,0,0-.15,0,2.32,2.32,0,0,0-2-1.87,2.17,2.17,0,0,0-1.9,1.43l-.16,0A.69.69,0,0,0,32,46l-5.27,0a3,3,0,0,1-.68-.08.32.32,0,0,0-.28-.36l0-4h1.44a3.09,3.09,0,0,0,2.93-2.07h0a.64.64,0,0,0,.63-.79l9.19.07a.49.49,0,0,0,.47.65h0l0,6.64-3.24,0A.3.3,0,0,0,36.91,45.83Zm-13.12-4.7,0-3.43H25.2a.47.47,0,0,0,.48.4h0l0,3.29H24.19A.45.45,0,0,0,23.79,41.13Zm-3.45-3.57A.43.43,0,0,0,20,37.2l0-2.32a.41.41,0,0,0,.28-.45l3.25,0a.32.32,0,0,0,.14.24l0,2.89Zm-.46,3.54a.48.48,0,0,0-.35.24l-2.9,0a3,3,0,0,1-2.93-3v-1A3,3,0,0,1,16,34.47a.72.72,0,0,0,.7.61,3.08,3.08,0,0,0,2.76,2.58.41.41,0,0,0,.43.42h0ZM17.39,28.65A3,3,0,0,1,20,31.59l0,2.46h0a.39.39,0,0,0-.38.25h-2a.77.77,0,0,0-.75-.83l0-3.9A.7.7,0,0,0,17.39,28.65Zm2.52,8.53a.42.42,0,0,0-.43.36,2.94,2.94,0,0,1-2.64-2.46.75.75,0,0,0,.7-.67h2a.4.4,0,0,0,.4.47h0v2.29ZM28,17.82,27.94,26h0a.34.34,0,0,0-.19.62A3.18,3.18,0,0,0,27.38,28h-.09a.44.44,0,0,0-.43.24h0a3.08,3.08,0,0,0-.75.09.46.46,0,0,0-.21-.33l.06-8.07a3,3,0,0,1,1.49-2.55A.66.66,0,0,0,28,17.82Zm1.57,7.43a.63.63,0,0,0,.36.52l0,1.74a.76.76,0,0,0-.7.72H28V26.63a.35.35,0,0,0,.16-.49A2.92,2.92,0,0,1,29.57,25.25Zm10.71-5.67a.42.42,0,0,0,.35.41v0l0,4.34a.77.77,0,0,0-.62.71L30.82,25a.6.6,0,0,0-.61-.49h-.15V22.46a3,3,0,0,1,3-2.93Zm5.19,5.64,0,2.71a.48.48,0,0,0-.41.42l-3.73,0a.64.64,0,0,0-.62-.46V26h.06a.77.77,0,0,0,.79-.77Zm.15-5c0-.12,0-.24,0-.36a.37.37,0,0,0,.26-.24l3.51,0a.8.8,0,0,0,.43.79l0,4.29a.46.46,0,0,0-.31.4l-3.9,0Zm6.47,5.05A3,3,0,0,1,55,28.17h0a.46.46,0,0,0-.43.25l-4,0a.74.74,0,0,0-.72-.8l0-1.87h0a.48.48,0,0,0,.5-.47Zm3.29-4.92a.28.28,0,0,0,.22-.13,2.92,2.92,0,0,1,1.26,2.43l0,5h0a.75.75,0,0,0-.76.79h-.62a.48.48,0,0,0-.12-.16ZM49.7,38.19a.6.6,0,0,0-.62.48l-2.95,0a.64.64,0,0,0-.64-.55l0-6.06a.74.74,0,0,0,.74-.67l3.14,0a.43.43,0,0,0,.33.32l0,6.48Zm-9.18-3.66H35.46a.41.41,0,0,0-.43-.37.45.45,0,0,0,0,.9.42.42,0,0,0,.44-.41h5.06l0,3.71h0a.46.46,0,0,0-.44.25l-9.26-.07a.59.59,0,0,0-.47-.4v-.69a3.06,3.06,0,0,0-2.15-3,.61.61,0,0,0-.17-.34l0-5.82h1.17a.77.77,0,0,0,.78.78h.06A3.09,3.09,0,0,0,33,31.27l7.58.06ZM25.81,37.09V35h.06a.63.63,0,0,0,.64-.53H27a.6.6,0,0,0,.29.68v.5a.8.8,0,0,0-.47,1.21,3,3,0,0,1-.74.47A.44.44,0,0,0,25.81,37.09Zm.29-8.67a2.71,2.71,0,0,1,.71-.09.5.5,0,0,0,.47.66h.1l0,5.1a.53.53,0,0,0-.27.28h-.54a.63.63,0,0,0-.64-.68h-.06l0-4.9A.45.45,0,0,0,26.1,28.42Zm1.83-1.77h0v1.57h-.2A.45.45,0,0,0,27.5,28a2.89,2.89,0,0,1,.37-1.37Zm-.43,9h-.05V35.2l.15,0a.51.51,0,0,0,.22,0,2.42,2.42,0,0,1-.13.48ZM27.61,34h-.15l0-5.08a.54.54,0,0,0,.27-.61h.15l0,5.74A.6.6,0,0,0,27.61,34Zm.2,1.68a3,3,0,0,0,.15-.59.59.59,0,0,0,.22-.48,3,3,0,0,1,2,2.82v.68h0a.61.61,0,0,0-.55.31,3,3,0,0,1-1.76-1.32A.82.82,0,0,0,27.81,35.7Zm2.39-9.88a.64.64,0,0,0,.64-.71l9.14.07a.77.77,0,0,0,.6.76v1.92a.65.65,0,0,0-.57.45l-9.22-.07a.75.75,0,0,0-.74-.73V25.8ZM33,31.15a3,3,0,0,1-2.78-2,.77.77,0,0,0,.6-.75l9.19.07a.69.69,0,0,0,.59.86l0,1.91Zm7.72-1.85a.71.71,0,0,0,.66-.86l3.69,0a.49.49,0,0,0,.41.47v1.48a.78.78,0,0,0-.71.82l-4.06,0Zm8.44-.8a.72.72,0,0,0,.65.65v1.67a.42.42,0,0,0-.35.45l-3.12,0a.77.77,0,0,0-.74-.83V28.94a.47.47,0,0,0,.46-.46Zm.76,2.31V29.15a.72.72,0,0,0,.72-.64l3.92,0a.5.5,0,0,0,.47.65h0v1.36h0a.63.63,0,0,0-.64.71,2.74,2.74,0,0,1-.5,0l-3.57,0A.44.44,0,0,0,49.88,30.81Zm5.31-1.65v1.41h-.06V29.18Zm.11,1.46V29.1a.55.55,0,0,0,.18-.55h.58a.72.72,0,0,0,.63.65,3,3,0,0,1-1.19,1.61A.55.55,0,0,0,55.3,30.62Zm-5.82-5.37a.49.49,0,0,0,.32.45l0,1.89a.74.74,0,0,0-.67.79l-3.09,0a.48.48,0,0,0-.45-.44l0-2.7ZM25.36,28.72a.47.47,0,0,0,.3.11h.09l0,4.88a.62.62,0,0,0-.46.64h-1a.3.3,0,0,0-.31-.26h-.06l0-2.83A2.93,2.93,0,0,1,25.36,28.72Zm-1.52,6h.06a.31.31,0,0,0,.32-.28h1a.6.6,0,0,0,.44.51v2.1h0a.48.48,0,0,0-.5.51H23.82Zm2,3.35a.51.51,0,0,0,.36-.64,3,3,0,0,0,.77-.49.71.71,0,0,0,.56.25,1.1,1.1,0,0,0,.27,0,3.15,3.15,0,0,0,1.83,1.38.67.67,0,0,0,.44.89,3,3,0,0,1-2.81,2H25.78Zm14.81.28,0-7,4.07,0a.75.75,0,0,0,.69.68l-.05,6.06a.66.66,0,0,0-.6.54l-3.85,0A.48.48,0,0,0,40.61,38.37Zm9.22-.17,0-6.49a.4.4,0,0,0,.39-.31l3.59,0a2.24,2.24,0,0,0,.52,0,.59.59,0,0,0,.61.49h0l0,3.9a3,3,0,0,1-3,2.93l-1.67,0A.61.61,0,0,0,49.83,38.2Zm10.4-6.67-.09,11.68A3,3,0,0,1,60,44a.3.3,0,0,0-.27.16,3,3,0,0,1-2.91-3l.06-7.71a3,3,0,0,1,2.54-2.9.67.67,0,0,0,.69.66h.08A2.53,2.53,0,0,1,60.23,31.53ZM58.4,11.05l4.63,0a3,3,0,0,1,2.93,3l-.12,16.32a.32.32,0,0,0-.11.12l-4.89,0a.68.68,0,0,0-.69-.65.78.78,0,0,0-.28.05,3.08,3.08,0,0,0-2.3-1.4.75.75,0,0,0-.62-.8l0-5a3.07,3.07,0,0,0-1.33-2.56.31.31,0,0,0-.27-.41l0-5.72A3,3,0,0,1,58.4,11.05Zm-4.46,8.63a3.09,3.09,0,0,1,1.1.23.33.33,0,0,0,.22.43L55.2,28.2h-.06a3.08,3.08,0,0,0-3-3H50.47A.48.48,0,0,0,50,24.7h0l0-4.21a.85.85,0,0,0,.23,0,.78.78,0,0,0,.79-.86Zm-6.19-2.39a2.21,2.21,0,0,1,1.92,1.79.8.8,0,0,0-.24.45l-3.5,0a.42.42,0,0,0-.14-.38A2.24,2.24,0,0,1,47.75,17.29Zm-2.23,2.59c0,.11,0,.23,0,.34l0,4.88-3.92,0a.77.77,0,0,0-.78-.74h-.05l0-4.33h0a.42.42,0,0,0,.4-.41l4,0A.39.39,0,0,0,45.52,19.88ZM28.91,17,37.7,17a3,3,0,0,1,2.81,2.11.43.43,0,0,0-.22.32L33,19.41A3.07,3.07,0,0,0,30,22.46v2.09a.63.63,0,0,0-.38.57,3.13,3.13,0,0,0-1.43.93l-.07,0,.06-8.18a.71.71,0,0,0,.66-.86Zm-12,.69a3,3,0,0,1,3-2.93l5.18,0a2.94,2.94,0,0,1,2.65,1.71.76.76,0,0,0-.32.75,3.07,3.07,0,0,0-1.58,2.67l-.06,8h-.09a.45.45,0,0,0-.38.7,3,3,0,0,0-1.54,2.64l0,2.87a.34.34,0,0,0-.13.2l-3.28,0a.39.39,0,0,0-.26-.24l0-2.48a3.08,3.08,0,0,0-2.72-3.07.66.66,0,0,0-.51-.38Zm0,27.82-13.85-.1a3,3,0,0,1-2.93-3l.08-11a3,3,0,0,1,3-2.93l12.88.09a.72.72,0,0,0,.66,1h0l0,3.89a.77.77,0,0,0-.69.89,3.09,3.09,0,0,0-2.41,3v1a3.07,3.07,0,0,0,3,3.09l2.87,0a.51.51,0,0,0,.38.65v.44A3,3,0,0,1,16.9,45.48Zm3.5-4.13a.45.45,0,0,0-.4-.25l0-3a.43.43,0,0,0,.32-.39l3.36,0,0,3.43a.44.44,0,0,0-.34.24Zm3.38,1.59v-.79a.51.51,0,0,0,.45-.65h1.42l0,4a.28.28,0,0,0-.19.14A3,3,0,0,1,23.78,42.94ZM40.33,60.22a3,3,0,0,1-3,2.93l-8.79-.06a3,3,0,0,1-2.93-3l0-5.11,4.74,0a.42.42,0,0,0,.43.39.45.45,0,0,0,0-.9.42.42,0,0,0-.44.39l-4.74,0,.06-8.76A.28.28,0,0,0,26,46a3.29,3.29,0,0,0,.71.08l5.26,0a.7.7,0,0,0,.52.76,1.48,1.48,0,0,0,0,.21l0,2.11c0,1.69,1,3.08,2.21,3.08s2.24-1.36,2.25-3V47.07a3.69,3.69,0,0,0,0-.58h0a.33.33,0,0,0,.32-.38l3.2,0ZM40.56,46l0-6.65a.52.52,0,0,0,.36-.64l3.79,0a.69.69,0,0,0,.61.77l0,6.1a.68.68,0,0,0-.39.42Zm9,4.7c0,1.63-1,2.94-2.13,2.93s-2.09-1.33-2.08-3l0-3.67h.15a.69.69,0,0,0,.69-.85l3.24,0a.34.34,0,0,0,.14.33Zm.21-4.8h0l0-4.51,3,0a.43.43,0,0,0,.44.44.45.45,0,0,0,0-.9.42.42,0,0,0-.43.34l-3.05,0,0-1.8a.63.63,0,0,0,.51-.7l1.66,0a3.08,3.08,0,0,0,3.09-3l0-3.91h.06l-.1,13.93a.43.43,0,0,0-.26.34l-4.71,0A.29.29,0,0,0,49.82,45.92Zm12.91,5.32-4.63,0a3,3,0,0,1-2.93-3V46.65h.06a.4.4,0,0,0,.43-.4h1.5a3.08,3.08,0,0,0,2.73-1.62.29.29,0,0,0,.14,0,.32.32,0,0,0,.32-.37l4.67,0a.77.77,0,0,0,.7.86l0,3.12A3,3,0,0,1,62.73,51.24Zm9.89-9.92a3,3,0,0,1-3,2.93l-3.06,0a.75.75,0,0,0-.73-.65L66,31H66a.33.33,0,0,0,.32-.38l3.42,0a3,3,0,0,1,2.93,3Z"/><path class="g" d="M52.41,57.13l.08-10.89h-.12l-.08,10.87h0a.45.45,0,1,0,.14,0Z"/><path class="g" d="M70.14,62.74H73.6a.29.29,0,0,0,.28.17h.05V79.18A3.08,3.08,0,0,0,77,82.25h4.64a3.08,3.08,0,0,0,3.07-3.07V73.46a.31.31,0,0,0,.16-.11,3,3,0,0,0,1.16.23h3a.75.75,0,0,0,.77.64.83.83,0,0,0,.43-.11A2.05,2.05,0,0,0,94.29,74a.41.41,0,0,0,.56-.44h4a.42.42,0,0,0,.43.37h.1a3.08,3.08,0,0,0,2.94,2.17h8.95a.65.65,0,0,0,.65.46.76.76,0,0,0,.27,0,3.07,3.07,0,0,0,2.77,1.76h5.18a3.08,3.08,0,0,0,3.07-3.07V64.74h0a.65.65,0,0,0,.62-.37h12.93a3.08,3.08,0,0,0,3.07-3.07v-11a3.08,3.08,0,0,0-3.07-3.07H122.88a3.08,3.08,0,0,0-3.07,3.07v.44a.49.49,0,0,0-.45.64h-2.83a.51.51,0,0,0-.39-.64V50a3.07,3.07,0,0,0-1.76-2.78.34.34,0,0,0-.23-.39v-14a3.08,3.08,0,0,0-3.07-3.07h-8.79a3.08,3.08,0,0,0-3.07,3.07V46.91H94.88a.7.7,0,0,0-.42-.81V42.39c0-1.69-1-3.07-2.23-3.07S90,40.7,90,42.39v4.14H90a.33.33,0,0,0-.32.38H85a.44.44,0,0,0-.26-.38V44.92a3.08,3.08,0,0,0-3.07-3.07H77a3.08,3.08,0,0,0-3.07,3.07V48a.77.77,0,0,0-.75.86h-3A3.06,3.06,0,0,0,67.07,52v7.7A3.06,3.06,0,0,0,70.14,62.74Zm3.91-13.08a.76.76,0,0,0,.69-.64h4.73a.27.27,0,0,0,.17.14,3.18,3.18,0,0,0-.11.82V61.66c0,.1,0,.21,0,.31a.67.67,0,0,0-.5.65h-2L77.12,56A.45.45,0,1,0,77,56l-.07,6.67H74.19a.33.33,0,0,0-.14-.33ZM84.1,47a.42.42,0,0,0,.43.37h.06v14a.69.69,0,0,0-.27.89A3.09,3.09,0,0,0,83.08,64a.72.72,0,0,0-.74.64,3,3,0,0,1-2.2-1.32.71.71,0,0,0,.3-.57,3.07,3.07,0,0,0,2.64-3V52a3.07,3.07,0,0,0-3-3.07.32.32,0,0,0-.08-.28A3,3,0,0,1,82.6,47Zm6,.12a.29.29,0,0,0,.1-.12h3.31a.65.65,0,0,0,.66.46h.14v6.07a.68.68,0,0,0-.66.76H90.77a.64.64,0,0,0-.64-.71h0ZM103,46V43.84c0-1.63,1-3,2.11-3s2.11,1.32,2.11,3V46c0,.06,0,.13,0,.19h0a.69.69,0,0,0-.7.77h-3.23a.32.32,0,0,0-.18-.35A4.07,4.07,0,0,1,103,46Zm.19,1.08h3.29a.64.64,0,0,0,.4.5,2.06,2.06,0,0,1-1.77,1.37,2.25,2.25,0,0,1-2-1.82S103.14,47.05,103.14,47Zm-.28.16a.33.33,0,0,0,.15,0,2.35,2.35,0,0,0,2,1.86A2.19,2.19,0,0,0,107,47.57h.16a.66.66,0,0,0,.68-.55h5.28a3,3,0,0,1,.67.08.32.32,0,0,0,.29.35v4h-1.45a3.09,3.09,0,0,0-2.91,2.1h0a.64.64,0,0,0-.63.8H99.82a.5.5,0,0,0-.48-.65h0V47h3.24A.32.32,0,0,0,102.86,47.19ZM116,51.8v3.42h-1.39a.46.46,0,0,0-.48-.39h0V51.55h1.46A.5.5,0,0,0,116,51.8Zm3.48,3.54a.44.44,0,0,0,.31.36V58a.4.4,0,0,0-.28.45h-3.25a.32.32,0,0,0-.14-.24V55.34Zm.43-3.55a.45.45,0,0,0,.34-.24h2.91a3,3,0,0,1,2.95,3v1a3,3,0,0,1-2.28,2.87.74.74,0,0,0-.71-.6,3.08,3.08,0,0,0-2.77-2.56.43.43,0,0,0-.44-.42h0Zm2.58,12.44a3,3,0,0,1-2.58-2.93V58.84h0a.39.39,0,0,0,.38-.25h2a.76.76,0,0,0,.75.82v3.9A.7.7,0,0,0,122.51,64.23Zm-2.58-8.52a.42.42,0,0,0,.43-.36A3,3,0,0,1,123,57.79a.76.76,0,0,0-.71.68h-2a.41.41,0,0,0-.41-.47h0V55.71Zm-8,19.42V67h0a.33.33,0,0,0,.18-.61,3.12,3.12,0,0,0,.36-1.39h.1a.46.46,0,0,0,.43-.25h0a3.06,3.06,0,0,0,.74-.09A.41.41,0,0,0,114,65V73a3,3,0,0,1-1.48,2.55A.64.64,0,0,0,112,75.13Zm-1.62-7.41a.64.64,0,0,0-.36-.52V65.46a.75.75,0,0,0,.69-.73h1.17v1.6a.34.34,0,0,0-.15.48A2.93,2.93,0,0,1,110.36,67.72ZM99.69,73.46a.42.42,0,0,0-.35-.4V68.7a.76.76,0,0,0,.6-.72h9.17a.6.6,0,0,0,.62.49h.15v2.05a3,3,0,0,1-2.95,2.95Zm-5.23-5.6v-2.7a.5.5,0,0,0,.41-.43H98.6a.64.64,0,0,0,.62.46v1.9h-.06a.76.76,0,0,0-.78.77Zm-.12,5c0,.12,0,.24,0,.36a.39.39,0,0,0-.26.24H90.55a.8.8,0,0,0-.42-.79V68.39a.49.49,0,0,0,.31-.41h3.9Zm-6.5-5a3,3,0,0,1-3-2.88h0a.46.46,0,0,0,.44-.25h4a.74.74,0,0,0,.73.79v1.87H90a.47.47,0,0,0-.49.47Zm-3.25,5a.3.3,0,0,0-.23.13,3,3,0,0,1-1.28-2.43v-5h0a.74.74,0,0,0,.76-.79h.61a.37.37,0,0,0,.13.15Zm5.54-17.88a.6.6,0,0,0,.62-.49h3a.67.67,0,0,0,.64.55v6a.76.76,0,0,0-.74.68H90.46a.41.41,0,0,0-.33-.31V54.93Zm9.21,3.59,5.06,0a.42.42,0,0,0,.43.37.46.46,0,0,0,0-.91.42.42,0,0,0-.43.42l-5.06,0V54.69h0a.48.48,0,0,0,.44-.25H109a.6.6,0,0,0,.47.39v.69a3.07,3.07,0,0,0,2.17,2.93.7.7,0,0,0,.18.34v5.82h-1.17a.76.76,0,0,0-.78-.77h-.06a3.08,3.08,0,0,0-2.92-2.12H99.34ZM114,55.85v2.09H114a.62.62,0,0,0-.63.53h-.52a.59.59,0,0,0-.3-.68v-.5a.8.8,0,0,0,.46-1.21,3,3,0,0,1,.74-.48A.42.42,0,0,0,114,55.85Zm-.22,8.67a2.84,2.84,0,0,1-.72.09.49.49,0,0,0-.47-.65h-.1v-5.1a.53.53,0,0,0,.27-.28h.54a.63.63,0,0,0,.64.67H114v4.9A.42.42,0,0,0,113.81,64.52ZM112,66.31h0V64.73h.2a.45.45,0,0,0,.22.21,2.87,2.87,0,0,1-.35,1.37Zm.37-9h.05v.44h-.14a.56.56,0,0,0-.23,0,2.42,2.42,0,0,1,.13-.48Zm-.09,1.62a.32.32,0,0,0,.14,0V64a.52.52,0,0,0-.26.61H112V58.87A.61.61,0,0,0,112.26,58.93ZM112,57.25a2.41,2.41,0,0,0-.14.59.62.62,0,0,0-.23.48,3,3,0,0,1-2-2.8v-.68h0a.6.6,0,0,0,.55-.31A2.94,2.94,0,0,1,112,55.84.81.81,0,0,0,112,57.25Zm-2.31,9.9a.63.63,0,0,0-.64.71H100a.77.77,0,0,0-.61-.75V65.19a.66.66,0,0,0,.57-.46h9.22a.75.75,0,0,0,.75.73v1.7Zm-2.8-5.31a3,3,0,0,1,2.79,2,.78.78,0,0,0-.6.75H99.94a.71.71,0,0,0-.6-.86V61.84Zm-7.71,1.91a.7.7,0,0,0-.65.86h-3.7a.47.47,0,0,0-.41-.46V62.66a.76.76,0,0,0,.7-.82h4.06Zm-8.43.86a.73.73,0,0,0-.66-.65V62.3a.44.44,0,0,0,.35-.46h3.11a.77.77,0,0,0,.75.82v1.48a.49.49,0,0,0-.46.47ZM90,62.3V64a.74.74,0,0,0-.72.65H85.37a.49.49,0,0,0-.48-.65h0V62.6h0a.63.63,0,0,0,.64-.72,4.21,4.21,0,0,1,.5,0h3.58A.42.42,0,0,0,90,62.3ZM84.71,64V62.58h.06V64Zm-.12-1.46v1.53a.53.53,0,0,0-.17.55h-.58A.72.72,0,0,0,83.2,64a3,3,0,0,1,1.18-1.62A.46.46,0,0,0,84.59,62.53Zm5.86,5.33a.5.5,0,0,0-.32-.44v-1.9a.75.75,0,0,0,.67-.79h3.09a.47.47,0,0,0,.45.43v2.7Zm24.09-3.64a.41.41,0,0,0-.3-.11h-.09V59.24a.64.64,0,0,0,.46-.65h1a.29.29,0,0,0,.31.25H116v2.82A3,3,0,0,1,114.54,64.22Zm1.48-6H116a.31.31,0,0,0-.32.29h-1a.62.62,0,0,0-.45-.51v-2.1h0a.48.48,0,0,0,.5-.51H116Zm-2-3.33a.52.52,0,0,0-.36.64,3.19,3.19,0,0,0-.76.49.73.73,0,0,0-.56-.24.78.78,0,0,0-.28,0,3,3,0,0,0-1.83-1.37.67.67,0,0,0-.44-.89,3,3,0,0,1,2.78-2H114Zm-14.81-.18v7H95.15a.74.74,0,0,0-.69-.68V55a.66.66,0,0,0,.6-.54h3.85A.44.44,0,0,0,99.22,54.67ZM90,54.92V61.4a.42.42,0,0,0-.39.32H86a3.05,3.05,0,0,0-.52.05.6.6,0,0,0-.62-.49h0V57.39a3,3,0,0,1,3-3h1.67A.61.61,0,0,0,90,54.92ZM79.65,61.66V50a3,3,0,0,1,.11-.8A.32.32,0,0,0,80,49,2.94,2.94,0,0,1,83,52v7.7a3,3,0,0,1-2.52,2.92.68.68,0,0,0-.69-.65h-.09C79.66,61.85,79.65,61.76,79.65,61.66Zm2,20.47H77a3,3,0,0,1-3-2.95V62.86a.32.32,0,0,0,.11-.12h4.89a.68.68,0,0,0,.7.65.64.64,0,0,0,.28-.06,3.09,3.09,0,0,0,2.3,1.39.74.74,0,0,0,.63.79v5a3.07,3.07,0,0,0,1.35,2.54.33.33,0,0,0,.28.42v5.71A3,3,0,0,1,81.64,82.13ZM86,73.46a3.07,3.07,0,0,1-1.1-.21.33.33,0,0,0-.22-.43V65l.06,0a3.06,3.06,0,0,0,3.07,3h1.62a.48.48,0,0,0,.49.43H90v4.22a.93.93,0,0,0-.24,0,.76.76,0,0,0-.78.86Zm6.2,2.35A2.22,2.22,0,0,1,90.3,74a.8.8,0,0,0,.24-.45H94a.45.45,0,0,0,.15.38A2.25,2.25,0,0,1,92.23,75.81Zm2.22-2.6c0-.12,0-.23,0-.35V68h3.92a.75.75,0,0,0,.78.73h.06V73h0a.42.42,0,0,0-.4.41h-4A.38.38,0,0,0,94.45,73.21ZM111.08,76h-8.79a3,3,0,0,1-2.82-2.09.44.44,0,0,0,.21-.32h7.25A3.08,3.08,0,0,0,110,70.51V68.42a.65.65,0,0,0,.37-.58,3.09,3.09,0,0,0,1.42-.94.18.18,0,0,0,.07,0v8.18a.69.69,0,0,0-.65.86Zm12-.78a3,3,0,0,1-3,3h-5.18a2.94,2.94,0,0,1-2.66-1.69.73.73,0,0,0,.31-.75A3.07,3.07,0,0,0,114.15,73V65h.09a.45.45,0,0,0,.37-.7,3.07,3.07,0,0,0,1.53-2.65V58.79a.34.34,0,0,0,.13-.2h3.28a.41.41,0,0,0,.26.24V61.3a3.07,3.07,0,0,0,2.74,3,.66.66,0,0,0,.51.38Zm-.18-27.82h13.85a3,3,0,0,1,3,3v11a3,3,0,0,1-3,3H123.85a.71.71,0,0,0-.67-1h0V59.41a.78.78,0,0,0,.69-.9,3.08,3.08,0,0,0,2.38-3v-1a3.07,3.07,0,0,0-3.07-3.08h-2.86a.51.51,0,0,0-.39-.64v-.44A3,3,0,0,1,122.88,47.39Zm-3.47,4.16a.46.46,0,0,0,.4.25v3a.41.41,0,0,0-.31.4h-3.36V51.79a.46.46,0,0,0,.34-.24ZM116,50v.8a.5.5,0,0,0-.45.64h-1.42v-4a.28.28,0,0,0,.18-.13A2.94,2.94,0,0,1,116,50ZM99.34,32.82a3,3,0,0,1,3-2.95h8.79a3,3,0,0,1,3,2.95v5.11l-4.74,0a.42.42,0,0,0-.44-.39.45.45,0,0,0,0,.9.43.43,0,0,0,.44-.39l4.74,0V46.8a.3.3,0,0,0-.26.19,3.27,3.27,0,0,0-.7-.08h-5.26a.7.7,0,0,0-.53-.75c0-.07,0-.14,0-.21V43.84c0-1.69-1-3.07-2.23-3.07s-2.23,1.38-2.23,3.07V46a5.46,5.46,0,0,0,0,.58h0a.32.32,0,0,0-.31.38H99.34ZM99.22,47v6.65a.51.51,0,0,0-.36.63H95.07a.68.68,0,0,0-.61-.76v-6.1a.67.67,0,0,0,.39-.42Zm-9.09-4.64c0-1.62.94-3,2.1-3s2.11,1.33,2.11,3v3.67H94.2a.7.7,0,0,0-.69.86H90.27a.34.34,0,0,0-.14-.33ZM90,47.19H90v4.5H87a.41.41,0,0,0-.43-.43.46.46,0,0,0,0,.91.41.41,0,0,0,.42-.36H90v1.81a.63.63,0,0,0-.52.69H87.84a3.08,3.08,0,0,0-3.07,3.08v3.9h-.06V47.37A.41.41,0,0,0,85,47h4.71A.3.3,0,0,0,90,47.19ZM77,42h4.64a3,3,0,0,1,3,3V46.5h-.06a.42.42,0,0,0-.43.41H82.6a3.05,3.05,0,0,0-2.71,1.64.33.33,0,0,0-.46.35H74.75a.77.77,0,0,0-.7-.86V44.92A3,3,0,0,1,77,42ZM67.19,52a3,3,0,0,1,3-2.95H73.2a.75.75,0,0,0,.73.64V62.25h-.05a.32.32,0,0,0-.32.38H70.14a3,3,0,0,1-3-2.95Z"/><path class="g" d="M87.28,36V46.9h.12V36h0a.46.46,0,0,0,0-.91A.46.46,0,0,0,87.28,36Z"/><path class="g" d="M72.91,52l-3.47,0a.3.3,0,0,0-.27-.17h-.06l.12-16.28a3.06,3.06,0,0,0-3-3.09l-4.64,0a3.08,3.08,0,0,0-3.09,3.05l0,5.72a.29.29,0,0,0-.17.1A3.2,3.2,0,0,0,57.09,41l-3,0a.74.74,0,0,0-.76-.65.81.81,0,0,0-.43.11,2.33,2.33,0,0,0-2-1.83,2.35,2.35,0,0,0-2.08,1.89.33.33,0,0,0-.15,0,.41.41,0,0,0-.41.46l-4,0a.42.42,0,0,0-.43-.37h-.1a3.07,3.07,0,0,0-2.92-2.19l-8.79-.07h-.15a.66.66,0,0,0-.66-.47.71.71,0,0,0-.26,0,3.08,3.08,0,0,0-2.76-1.77l-5.18,0a3.07,3.07,0,0,0-3.09,3l-.08,10.46h0a.65.65,0,0,0-.62.37l-12.93-.1a3.08,3.08,0,0,0-3.09,3l-.09,11A3.08,3.08,0,0,0,6.2,66.94l13.85.11a3.08,3.08,0,0,0,3.09-3v-.44a.5.5,0,0,0,.45-.64l2.83,0a.5.5,0,0,0,.39.64v.81a3.09,3.09,0,0,0,1.74,2.79.33.33,0,0,0,.23.39l-.11,14a3.08,3.08,0,0,0,3,3.09l8.79.07a3.08,3.08,0,0,0,3.09-3l.11-14.09,4.33,0a.74.74,0,0,0,.42.82l0,3.7c0,1.7,1,3.08,2.21,3.09s2.23-1.36,2.25-3l0-4.15h0a.32.32,0,0,0,.32-.38l4.67,0a.44.44,0,0,0,.26.38l0,1.61a3.08,3.08,0,0,0,3,3.09l4.64,0a3.06,3.06,0,0,0,3.09-3l0-3.12a.78.78,0,0,0,.76-.85l3,0a3.08,3.08,0,0,0,3.1-3.05l0-7.7A3.07,3.07,0,0,0,72.91,52ZM68.9,65a.76.76,0,0,0-.7.64l-4.73,0a.28.28,0,0,0-.17-.15,2.74,2.74,0,0,0,.12-.81L63.51,53a3,3,0,0,0,0-.31A.67.67,0,0,0,64,52h2l-.13,6.67a.45.45,0,1,0,.12,0L66.12,52l2.73,0a.34.34,0,0,0,.14.34ZM58.82,67.57a.41.41,0,0,0-.42-.37h-.06l.11-14a.69.69,0,0,0,.27-.89A3.11,3.11,0,0,0,60,50.65a.71.71,0,0,0,.73-.63,3,3,0,0,1,2.2,1.33.72.72,0,0,0-.31.57,3.07,3.07,0,0,0-2.66,3l-.06,7.7a3.08,3.08,0,0,0,3,3.1A.35.35,0,0,0,63,66a2.94,2.94,0,0,1-2.62,1.56Zm-6-.16a.29.29,0,0,0-.1.12l-3.31,0a.65.65,0,0,0-.65-.46.37.37,0,0,0-.15,0l0-6.07a.68.68,0,0,0,.67-.76l2.91,0a.63.63,0,0,0,.63.71h0ZM40,68.52l0,2.11c0,1.62-1,2.94-2.13,2.93s-2.09-1.34-2.08-3v-2.1c0-.07,0-.13,0-.2h.05a.69.69,0,0,0,.71-.76l3.23,0a.34.34,0,0,0,.18.36A4,4,0,0,1,40,68.52Zm-.19-1.09-3.28,0a.67.67,0,0,0-.4-.51,2.08,2.08,0,0,1,1.78-1.35,2.27,2.27,0,0,1,1.94,1.83Zm.29-.16a.33.33,0,0,0-.15,0,2.36,2.36,0,0,0-2-1.87A2.21,2.21,0,0,0,36,66.87l-.16,0a.66.66,0,0,0-.68.55l-5.28,0a2.93,2.93,0,0,1-.67-.08.32.32,0,0,0-.29-.36l0-4h1.45A3.07,3.07,0,0,0,33.3,60.9h0a.64.64,0,0,0,.63-.8l9.19.07a.51.51,0,0,0,.47.66h0l0,6.63-3.25,0A.28.28,0,0,0,40.07,67.27ZM27,62.57l0-3.42h1.09l.29,0a.48.48,0,0,0,.48.4h0l0,3.3-1.46,0A.48.48,0,0,0,27,62.57ZM23.49,59a.43.43,0,0,0-.31-.36l0-2.32a.41.41,0,0,0,.29-.45l3.25,0a.34.34,0,0,0,.13.24l0,2.89ZM23,62.55a.44.44,0,0,0-.34.24l-2.91,0a3,3,0,0,1-2.93-3v-1a3,3,0,0,1,2.3-2.85.74.74,0,0,0,.71.6,3.08,3.08,0,0,0,2.75,2.59.43.43,0,0,0,.44.42h0ZM20.55,50.09A3,3,0,0,1,23.1,53V55.5h0a.37.37,0,0,0-.38.25l-2,0A.77.77,0,0,0,20,54.9L20,51A.73.73,0,0,0,20.55,50.09Zm2.51,8.54a.42.42,0,0,0-.43.36A3,3,0,0,1,20,56.52a.75.75,0,0,0,.71-.67l2,0a.4.4,0,0,0,.4.47h0l0,2.29Zm8.09-19.36-.06,8.16h0a.34.34,0,0,0-.18.61,2.93,2.93,0,0,0-.37,1.38h-.1a.46.46,0,0,0-.43.25h0a3.65,3.65,0,0,0-.74.08.43.43,0,0,0-.22-.32l.06-8.08a2.94,2.94,0,0,1,1.5-2.54A.65.65,0,0,0,31.15,39.27Zm1.57,7.42a.62.62,0,0,0,.36.52V49a.76.76,0,0,0-.7.73H31.2v-1.6a.35.35,0,0,0,.16-.48A2.91,2.91,0,0,1,32.72,46.69ZM43.44,41a.4.4,0,0,0,.34.4v0l0,4.34a.77.77,0,0,0-.61.71L34,46.44a.61.61,0,0,0-.62-.5h-.15l0-2.05a3,3,0,0,1,3-2.93Zm5.18,5.64,0,2.7a.49.49,0,0,0-.41.42l-3.73,0a.66.66,0,0,0-.62-.47l0-1.9h0a.75.75,0,0,0,.79-.76Zm.16-5c0-.12,0-.24,0-.36a.41.41,0,0,0,.26-.24l3.51,0a.81.81,0,0,0,.42.79l0,4.28a.5.5,0,0,0-.32.4l-3.9,0Zm6.46,5a3,3,0,0,1,2.93,2.91h0a.46.46,0,0,0-.44.24l-4,0a.74.74,0,0,0-.71-.8V47.17h.06a.47.47,0,0,0,.49-.47Zm3.29-4.92a.32.32,0,0,0,.23-.13A2.94,2.94,0,0,1,60,44.1l0,5h0a.74.74,0,0,0-.77.79H58.6a.47.47,0,0,0-.13-.15ZM52.85,59.63a.6.6,0,0,0-.62.49l-2.94,0a.67.67,0,0,0-.65-.56l0-6a.76.76,0,0,0,.75-.68l3.14,0a.38.38,0,0,0,.33.31l0,6.48ZM43.67,56H38.61a.42.42,0,0,0-.42-.37.46.46,0,0,0,0,.91.43.43,0,0,0,.44-.42h5.05l0,3.71h0a.46.46,0,0,0-.43.25L33.94,60a.6.6,0,0,0-.47-.39V58.9a3.1,3.1,0,0,0-2.15-3,.57.57,0,0,0-.18-.33l.05-5.82h1.17a.75.75,0,0,0,.77.77h.07a3.07,3.07,0,0,0,2.9,2.14l7.59.06ZM29,58.53l0-2.09H29a.6.6,0,0,0,.63-.52h.52a.62.62,0,0,0,.29.69v.49A.81.81,0,0,0,30,58.31a2.94,2.94,0,0,1-.73.47A.49.49,0,0,0,29,58.53Zm.29-8.66a2.82,2.82,0,0,1,.71-.09.5.5,0,0,0,.48.65h.09l0,5.09a.55.55,0,0,0-.26.28h-.55a.62.62,0,0,0-.63-.68H29l0-4.9A.44.44,0,0,0,29.25,49.87Zm1.84-1.78h0v1.58h-.2a.5.5,0,0,0-.22-.21A3,3,0,0,1,31,48.08Zm-.43,9H30.6v-.44l.15,0a.79.79,0,0,0,.23,0,4.27,4.27,0,0,1-.13.48Zm.1-1.63-.15,0,0-5.09a.51.51,0,0,0,.27-.6h.16l0,5.74A.54.54,0,0,0,30.76,55.46Zm.2,1.69a2.93,2.93,0,0,0,.15-.6.59.59,0,0,0,.23-.48,3,3,0,0,1,2,2.83v.68h0a.6.6,0,0,0-.56.3A3,3,0,0,1,31,58.56.81.81,0,0,0,31,57.15Zm2.39-9.89a.62.62,0,0,0,.64-.7l9.15.06a.78.78,0,0,0,.6.77l0,1.91a.65.65,0,0,0-.57.46l-9.22-.07a.75.75,0,0,0-.74-.74v-1.7Zm2.76,5.33a3,3,0,0,1-2.78-2,.77.77,0,0,0,.61-.75l9.18.07a.7.7,0,0,0,.59.86v1.91Zm7.72-1.85a.69.69,0,0,0,.66-.85l3.7,0a.48.48,0,0,0,.4.47v1.49a.76.76,0,0,0-.7.81l-4.06,0Zm8.44-.8a.72.72,0,0,0,.66.66l0,1.66a.44.44,0,0,0-.35.46l-3.11,0a.77.77,0,0,0-.75-.82V50.39a.5.5,0,0,0,.47-.47ZM53,52.26l0-1.66a.72.72,0,0,0,.71-.65l3.93,0a.5.5,0,0,0,.47.66h0V52h0a.65.65,0,0,0-.65.72,2.63,2.63,0,0,1-.49,0l-3.58,0A.42.42,0,0,0,53,52.26Zm5.31-1.65V52h-.06V50.63Zm.11,1.46,0-1.53a.53.53,0,0,0,.17-.55h.58a.72.72,0,0,0,.63.64,2.93,2.93,0,0,1-1.19,1.61A.53.53,0,0,0,58.45,52.07ZM52.64,46.7a.47.47,0,0,0,.31.44V49a.75.75,0,0,0-.68.78l-3.09,0a.47.47,0,0,0-.45-.43l0-2.7ZM28.52,50.16a.4.4,0,0,0,.29.11h.09l0,4.88a.64.64,0,0,0-.47.65h-1a.3.3,0,0,0-.31-.25H27l0-2.82A3,3,0,0,1,28.52,50.16Zm-1.53,6h.06a.3.3,0,0,0,.32-.29h1a.62.62,0,0,0,.45.51l0,2.1h0a.49.49,0,0,0-.5.5l-.28,0H27Zm2,3.35a.5.5,0,0,0,.36-.63,3.25,3.25,0,0,0,.77-.49.72.72,0,0,0,.56.24.77.77,0,0,0,.27,0A3.06,3.06,0,0,0,32.74,60a.67.67,0,0,0,.44.89,3,3,0,0,1-2.8,2H28.93Zm14.81.29,0-7,4.06,0a.76.76,0,0,0,.69.68l0,6.06a.64.64,0,0,0-.59.55l-3.86,0A.43.43,0,0,0,43.77,59.82ZM53,59.64,53,53.16a.4.4,0,0,0,.38-.32l3.59,0a3,3,0,0,0,.52,0,.61.61,0,0,0,.62.49h0l0,3.89a3,3,0,0,1-3,2.93H53.47A.61.61,0,0,0,53,59.64ZM63.38,53,63.3,64.66a2.72,2.72,0,0,1-.12.8.3.3,0,0,0-.27.16,3,3,0,0,1-2.91-3l.06-7.71A3,3,0,0,1,62.6,52a.68.68,0,0,0,.69.65h.08A1.41,1.41,0,0,1,63.38,53ZM61.55,32.49l4.64,0a2.94,2.94,0,0,1,2.92,3L69,51.82a.35.35,0,0,0-.1.11l-4.9,0a.67.67,0,0,0-.69-.65.78.78,0,0,0-.28,0,3.08,3.08,0,0,0-2.29-1.4.74.74,0,0,0-.63-.8l0-5a3.06,3.06,0,0,0-1.33-2.55.33.33,0,0,0-.27-.42l0-5.71A3,3,0,0,1,61.55,32.49Zm-4.46,8.64a2.88,2.88,0,0,1,1.1.22.33.33,0,0,0,.22.43l-.06,7.87-.06,0a3.08,3.08,0,0,0-3-3H53.62a.48.48,0,0,0-.49-.43h-.05l0-4.22a.88.88,0,0,0,.24,0,.77.77,0,0,0,.79-.85Zm-6.18-2.4a2.24,2.24,0,0,1,1.92,1.8.81.81,0,0,0-.25.44l-3.5,0a.42.42,0,0,0-.14-.38A2.26,2.26,0,0,1,50.91,38.73Zm-2.24,2.59c0,.12,0,.23,0,.35l0,4.88-3.92,0a.75.75,0,0,0-.77-.74h-.06l0-4.33h0a.43.43,0,0,0,.41-.41l4,0A.37.37,0,0,0,48.67,41.32ZM32.06,38.41l8.79.07a3,3,0,0,1,2.81,2.11.43.43,0,0,0-.22.32l-7.24-.06a3.08,3.08,0,0,0-3.09,3l0,2.09a.63.63,0,0,0-.37.58,3.06,3.06,0,0,0-1.43.92l-.08,0,.06-8.18a.7.7,0,0,0,.67-.85Zm-12,.7a3,3,0,0,1,3-2.93l5.18,0a3,3,0,0,1,2.65,1.7.74.74,0,0,0-.32.76A3.06,3.06,0,0,0,29,41.34l-.06,8h-.09a.46.46,0,0,0-.38.7,3.07,3.07,0,0,0-1.54,2.64l0,2.87a.32.32,0,0,0-.14.2l-3.28,0a.4.4,0,0,0-.25-.24V53A3.06,3.06,0,0,0,20.5,50a.62.62,0,0,0-.5-.39Zm0,27.82L6.2,66.82a3,3,0,0,1-2.93-3l.09-11a3,3,0,0,1,3-2.93l12.88.1a.71.71,0,0,0,.66,1h0l0,3.89a.78.78,0,0,0-.7.89,3.07,3.07,0,0,0-2.4,3v1a3.08,3.08,0,0,0,3.05,3.09l2.86,0a.51.51,0,0,0,.39.65V64A3,3,0,0,1,20.05,66.93Zm3.5-4.13a.45.45,0,0,0-.4-.26l0-3a.43.43,0,0,0,.31-.4l3.36,0,0,3.43a.43.43,0,0,0-.35.24Zm3.38,1.59v-.8a.5.5,0,0,0,.45-.64h1.42l0,4a.3.3,0,0,0-.18.13A3,3,0,0,1,26.93,64.39ZM43.48,81.67a3,3,0,0,1-3,2.93l-8.79-.07a3,3,0,0,1-2.93-3l0-5.11,4.74,0a.43.43,0,0,0,.43.39.45.45,0,0,0,0-.9.44.44,0,0,0-.44.39l-4.74,0,.07-8.75a.3.3,0,0,0,.26-.19,2.69,2.69,0,0,0,.7.09l5.26,0a.69.69,0,0,0,.52.75c0,.07,0,.14,0,.22v2.1c0,1.7,1,3.08,2.2,3.09s2.24-1.36,2.25-3.05l0-2.11a3.81,3.81,0,0,0,0-.59h0a.31.31,0,0,0,.32-.37l3.21,0Zm.23-14.21,0-6.65a.5.5,0,0,0,.36-.63l3.79,0a.7.7,0,0,0,.6.77l0,6.1a.68.68,0,0,0-.4.41Zm9.06,4.71c0,1.62-1,2.94-2.13,2.93s-2.1-1.34-2.09-3l0-3.67.14,0a.71.71,0,0,0,.7-.86l3.24,0a.33.33,0,0,0,.14.33Zm.21-4.8h-.06l0-4.5,3,0a.41.41,0,0,0,.43.43.45.45,0,0,0,0-.9.42.42,0,0,0-.43.35l-3,0V60.94a.63.63,0,0,0,.52-.69h1.65a3.08,3.08,0,0,0,3.1-3l0-3.9h.07l-.11,13.93a.44.44,0,0,0-.26.34l-4.7,0A.3.3,0,0,0,53,67.37Zm12.91,5.31-4.64,0a3,3,0,0,1-2.93-3l0-1.58h0a.43.43,0,0,0,.44-.41l1.5,0a3.08,3.08,0,0,0,2.72-1.62.32.32,0,0,0,.14,0,.33.33,0,0,0,.32-.38l4.68,0a.78.78,0,0,0,.69.86l0,3.12A3,3,0,0,1,65.89,72.68Zm9.89-9.92a3,3,0,0,1-3,2.93l-3.06,0A.74.74,0,0,0,69,65l.09-12.59h0a.32.32,0,0,0,.32-.38l3.42,0a3,3,0,0,1,2.93,3Z"/><path class="g" d="M55.56,78.57l.09-10.89h-.12l-.09,10.87h0a.46.46,0,1,0,.14,0Z"/></g><path class="g" d="M75.75,83.72l-1.45,0c.06-1-.29-1.69.79-1.65S75.77,82.74,75.75,83.72Zm1.46,0c0-1-.42-1.66.66-1.7s.74.67.79,1.65Zm-4.36-.16c-.48,0-1-.1-1.44-.17.12-1-.17-1.7.91-1.58S72.94,82.58,72.85,83.56Zm7.26,0c-.09-1-.54-1.62.54-1.74s.78.61.91,1.58C81.07,83.45,80.59,83.51,80.11,83.55ZM70,83.17c-.48-.08-1-.17-1.43-.27.2-1,0-1.72,1-1.51S70.13,82.21,70,83.17Zm13,0c-.16-1-.66-1.58.41-1.79s.82.56,1,1.51Zm-15.87-.6-1.4-.38c.27-.94.09-1.72,1.13-1.43S67.36,81.62,67.12,82.57Zm18.72,0c-.24-1-.78-1.52.27-1.81s.86.49,1.13,1.43Zm-21.51-.81L63,81.26c.34-.92.21-1.7,1.24-1.34S64.64,80.82,64.33,81.75Zm24.3,0c-.3-.93-.89-1.46.13-1.83s.9.42,1.24,1.33C89.55,81.42,89.09,81.58,88.63,81.74Zm-27-1c-.45-.19-.89-.39-1.33-.6.41-.89.34-1.68,1.33-1.23S62,79.81,61.6,80.71Zm29.75,0c-.37-.9-1-1.39,0-1.83s.93.35,1.33,1.24ZM59,79.47c-.43-.23-.86-.46-1.28-.7.47-.85.47-1.65,1.42-1.13S59.4,78.59,59,79.47Zm35,0c-.44-.87-1.1-1.31-.15-1.83s1,.28,1.43,1.13C94.83,79,94.41,79.24,94,79.46ZM56.42,78l-1.23-.79c.54-.82.6-1.61,1.51-1S56.93,77.19,56.42,78Zm40.09,0c-.51-.83-1.19-1.22-.28-1.81s1,.2,1.5,1C97.33,77.5,96.92,77.76,96.51,78Zm2.41-1.63c-.56-.79-1.27-1.12-.41-1.78s1,.13,1.58.9C99.7,75.81,99.32,76.1,98.92,76.39ZM54,76.39c-.4-.29-.78-.58-1.17-.89.6-.77.71-1.55,1.58-.89S54.56,75.6,54,76.39Zm47.21-1.81c-.62-.75-1.35-1-.54-1.75s1,.06,1.64.78C102,73.94,101.59,74.26,101.21,74.58Zm-49.51,0c-.37-.32-.73-.64-1.09-1,.65-.72.82-1.49,1.64-.77S52.33,73.83,51.7,74.58Zm51.67-2c-.68-.7-1.43-.92-.68-1.7s1,0,1.69.65C104.05,71.9,103.71,72.26,103.37,72.6Zm-53.82,0c-.34-.34-.68-.69-1-1,.7-.67.93-1.43,1.69-.65S50.23,71.9,49.55,72.59Zm55.81-2.13c-.72-.65-1.49-.81-.79-1.64s1-.1,1.73.51C106,69.71,105.68,70.09,105.36,70.46Zm-57.8,0c-.32-.36-.64-.74-.94-1.12.75-.62,1-1.36,1.73-.52S48.28,69.81,47.56,70.45Zm59.64-2.28c-.77-.58-1.55-.69-.92-1.58s1-.17,1.77.39C107.77,67.38,107.49,67.78,107.2,68.17Zm-61.47,0c-.3-.39-.58-.79-.86-1.19.8-.56,1.14-1.28,1.77-.39S46.5,67.58,45.73,68.17Zm-1.66-2.42c-.26-.41-.52-.83-.76-1.25.83-.49,1.23-1.18,1.79-.25S44.88,65.23,44.07,65.75Zm64.79,0c-.82-.52-1.6-.57-1-1.5s1-.25,1.79.25C109.37,64.92,109.12,65.34,108.86,65.75ZM42.6,63.22c-.23-.43-.45-.87-.66-1.31.86-.43,1.31-1.08,1.8-.11S43.45,62.76,42.6,63.22Zm67.73,0c-.85-.46-1.63-.44-1.14-1.42s.94-.32,1.81.11C110.78,62.34,110.56,62.78,110.33,63.21Zm-69-2.63c-.19-.45-.38-.9-.56-1.35.89-.36,1.39-1,1.81,0S42.2,60.19,41.32,60.58Zm70.29,0c-.88-.4-1.66-.32-1.24-1.33s.91-.39,1.81,0C112,59.66,111.81,60.11,111.61,60.56ZM40.25,57.85c-.17-.46-.32-.93-.46-1.4.92-.29,1.45-.87,1.8.17S41.16,57.52,40.25,57.85Zm72.44,0c-.91-.33-1.68-.19-1.34-1.24s.88-.46,1.8-.17C113,56.89,112.85,57.35,112.69,57.82ZM39.38,55c-.13-.48-.25-.95-.36-1.43.94-.22,1.52-.76,1.79.31S40.31,54.78,39.38,55Zm74.18,0c-.93-.25-1.7-.06-1.43-1.12s.84-.53,1.78-.31C113.8,54.05,113.68,54.53,113.56,55ZM38.72,52.17c-.09-.48-.17-1-.24-1.45,1-.15,1.57-.64,1.75.44S39.67,52,38.72,52.17Zm75.49,0c-.95-.18-1.69.07-1.51-1s.8-.59,1.76-.44C114.38,51.16,114.3,51.65,114.21,52.13ZM38.28,49.26c-.05-.49-.1-1-.13-1.47,1-.07,1.61-.51,1.71.58S39.24,49.15,38.28,49.26Zm76.36,0c-1-.11-1.68.2-1.58-.89s.76-.65,1.72-.58C114.75,48.24,114.7,48.73,114.64,49.22Zm-76.57-2.9q0-.74,0-1.47c1,0,1.64-.39,1.67.7S39,46.28,38.07,46.32Zm76.79,0c-1,0-1.66.33-1.64-.76s.59-.78,1.67-.79C114.89,45.25,114.88,45.77,114.86,46.28ZM39.72,43.44l-1.66-.06c0-.49,0-1,.08-1.47l1,.07C40.14,42.06,39.76,42.46,39.72,43.44Zm73.48-.11c0-.53-.42-1.38.24-1.43l1.33-.11q.06.74.09,1.47Zm-73.27-2.7-1.65-.19c0-.49.11-1,.18-1.46l1,.15C40.45,39.28,40,39.66,39.93,40.63ZM113,40.52c-.06-.52-.51-1.35.15-1.45l1.31-.2c.08.48.14,1,.2,1.46ZM40.34,37.84l-1.63-.31q.13-.72.3-1.44l1,.23C41,36.54,40.52,36.88,40.34,37.84Zm72.22-.11c-.09-.51-.61-1.3,0-1.45l1.3-.3c.11.48.21,1,.31,1.44ZM41,35.1l-1.6-.44c.12-.47.26-.95.4-1.42l1,.31C41.68,33.85,41.21,34.16,41,35.1Zm71-.11c-.13-.51-.71-1.25-.07-1.45l1.27-.41c.14.47.28.94.41,1.42ZM41.79,32.4l-1.57-.56q.24-.69.51-1.38l.94.38C42.6,31.21,42.11,31.48,41.79,32.4Zm69.31-.1c-.17-.49-.8-1.19-.19-1.44l1.24-.5c.18.46.35.92.52,1.38ZM42.82,29.78,41.3,29.1c.19-.45.4-.9.61-1.34l.91.45C43.71,28.65,43.21,28.89,42.82,29.78Zm67.25-.09c-.21-.48-.89-1.12-.29-1.42l1.19-.59c.22.44.42.88.62,1.33ZM44,27.24l-1.46-.79c.22-.44.46-.86.71-1.29l.87.52C45,26.19,44.5,26.38,44,27.24Zm64.8-.07c-.24-.46-1-1.05-.39-1.4l1.15-.68c.24.42.48.85.71,1.28ZM45.45,24.81l-1.4-.91c.26-.41.53-.82.8-1.22.28.19.56.38.83.58C46.5,23.83,46,24,45.45,24.81Zm62-.06c-.28-.45-1-1-.51-1.37l1.1-.77c.28.41.54.81.81,1.23C108.37,24.14,107.9,24.44,107.44,24.75ZM47,22.49l-1.32-1c.29-.39.58-.78.89-1.16l.78.64C48.16,21.6,47.61,21.71,47,22.49Zm58.82,0c-.31-.42-1.12-.9-.6-1.32l1-.86c.31.38.61.77.9,1.16ZM48.79,20.3l-1.25-1.11c.32-.37.64-.73,1-1.09l.73.7C50,19.5,49.42,19.57,48.79,20.3Zm55.3-.05c-.34-.39-1.18-.81-.69-1.27l1-.93c.34.36.66.72,1,1.09Zm-53.39-2-1.17-1.2c.35-.34.7-.68,1.06-1l.68.75C51.94,17.54,51.39,17.57,50.7,18.25Zm51.48,0c-.37-.37-1.24-.72-.79-1.22.3-.33.6-.66.89-1,.37.33.72.67,1.06,1ZM52.75,16.35l-1.07-1.28c.37-.32.75-.63,1.13-.93.21.27.41.54.62.8C54,15.74,53.49,15.72,52.75,16.35Zm47.37,0c-.4-.34-1.29-.62-.88-1.15l.82-1.06,1.13.92ZM54.94,14.62c-.32-.46-.65-.91-1-1.36.39-.29.79-.57,1.19-.84.19.28.38.56.56.85C56.27,14.1,55.72,14.05,54.94,14.62Zm43,0c-.42-.31-1.33-.52-1-1.08l.74-1.13,1.2.84ZM57.25,13.06c-.28-.48-.57-1-.86-1.44.41-.25.82-.5,1.25-.74l.49.89C58.62,12.65,58.08,12.55,57.25,13.06ZM95.6,13c-.44-.28-1.36-.42-1-1l.66-1.17c.42.24.84.48,1.25.74ZM59.67,11.68c-.25-.5-.5-1-.76-1.5l1.31-.65.42.93C61.06,11.37,60.53,11.23,59.67,11.68Zm33.51,0c-.47-.24-1.4-.31-1.12-.92l.56-1.23,1.31.65Zm-31-1.15c-.22-.52-.43-1-.65-1.55l1.35-.55c.12.32.24.64.35,1C63.6,10.29,63.08,10.11,62.19,10.49Zm28.46,0c-.48-.2-1.42-.2-1.18-.83.15-.42.31-.84.46-1.27l1.36.55C91.07,9.42,90.86,9.93,90.65,10.45ZM64.79,9.5c-.18-.54-.36-1.07-.53-1.6.46-.16.92-.3,1.39-.44.09.33.19.65.28,1C66.21,9.41,65.7,9.19,64.79,9.5ZM88,9.46c-.49-.16-1.42-.09-1.23-.74.12-.43.25-.86.37-1.29.46.13.93.28,1.39.43C88.38,8.4,88.21,8.93,88,9.46ZM67.46,8.7c-.14-.54-.27-1.08-.41-1.63.47-.12.94-.23,1.42-.33l.21,1C68.88,8.72,68.39,8.47,67.46,8.7Zm17.9,0c-.5-.13-1.42,0-1.29-.64.09-.44.19-.88.28-1.32L85.76,7C85.63,7.59,85.5,8.13,85.36,8.68ZM70.18,8.12c-.1-.55-.19-1.11-.29-1.66.48-.08,1-.16,1.44-.22,0,.34.09.67.14,1C71.6,8.25,71.13,8,70.18,8.12Zm12.46,0c-.51-.09-1.42.13-1.33-.54,0-.44.11-.89.17-1.34l1.44.22C82.83,7,82.73,7.55,82.64,8.1Zm-9.71-.35-.15-1.68L74.23,6c0,.34,0,.68,0,1C74.34,8,73.89,7.66,72.93,7.75Zm6.95,0c-.52,0-1.4.23-1.37-.44,0-.45,0-.9.08-1.35L80,6.06Zm-4.17-.15,0-1.69c.48,0,1,0,1.45,0,0,.34,0,.68,0,1C77.1,7.93,76.68,7.57,75.71,7.59Z"/></svg>