<svg xmlns="http://www.w3.org/2000/svg" viewBox="0 0 89 89"><defs><style>.a{fill:#76bd1d;}</style></defs><title>icon-infogreen</title><path class="a" d="M44.5,0A44.5,44.5,0,1,0,89,44.5,44.55,44.55,0,0,0,44.5,0Zm9.76,62.44-.64,2.63a.93.93,0,0,1-.57.65c-2,.78-3.49,1.35-4.64,1.75a13.28,13.28,0,0,1-4.31.65A8.91,8.91,0,0,1,38,66.18a6.45,6.45,0,0,1-2.26-5,16.55,16.55,0,0,1,.16-2.21c.1-.73.26-1.57.48-2.5l2.42-8.55c.21-.79.39-1.56.53-2.26a9.69,9.69,0,0,0,.2-1.81,2.4,2.4,0,0,0-.39-1.6c-.09-.09-.51-.38-1.92-.38a6.07,6.07,0,0,0-1.65.25q-.95.29-1.62.54a.94.94,0,0,1-1.24-1.1l.64-2.63a.92.92,0,0,1,.56-.64c1.6-.66,3.15-1.22,4.59-1.68a14.81,14.81,0,0,1,4.38-.73,8.73,8.73,0,0,1,6,1.92,6.49,6.49,0,0,1,2.2,5.06c0,.4-.05,1.07-.14,2a14,14,0,0,1-.52,2.75l-2.39,8.48a20.48,20.48,0,0,0-.51,2.24,12.57,12.57,0,0,0-.22,1.82c0,1.09.26,1.45.41,1.57a3.27,3.27,0,0,0,2,.41,6.53,6.53,0,0,0,1.72-.27A8.77,8.77,0,0,0,53,61.37a1,1,0,0,1,1,.13A.91.91,0,0,1,54.26,62.44ZM52.93,31.06a6.64,6.64,0,0,1-4.68,1.81,6.72,6.72,0,0,1-4.7-1.8,6,6,0,0,1,0-8.95,6.92,6.92,0,0,1,9.38,0,6.06,6.06,0,0,1,0,8.94Z"/></svg>