<svg xmlns="http://www.w3.org/2000/svg" viewBox="0 0 717.22 81.74"><defs><style>.cls-1{fill:#76bc21}.cls-2{fill:#266041}.cls-3{fill:#4d4d4f}</style></defs><title>logo</title><g id="Layer_2" data-name="Layer 2"><g id="Layer_1-2" data-name="Layer 1"><path class="cls-1" d="M208.62,47.79a28.44,28.44,0,0,0-6.89-18.42l-2.37-2.71C184.81,10.24,162.56.35,132.11,0,104-.3,89.83,7.58,69.64,22.77l-22,18c-3.25,2.86-26.77,20-47.14,17,0,0,3.42,9.64,16.8,10.36,17.4.43,33.15-5.51,58-22.27L95.8,31.13c23.75-16.8,30.85-19.07,44.18-20.46,12.91-1.35,27,3.79,32,6.65,0,0,10.62,5.91,17.59,14.74h-.07S197.37,41.3,191,51.3a22.51,22.51,0,0,1-5.59,5.05c-5.75,3.89-25.21,5.82-44.24-2.67C129.24,48.54,116.1,41.87,104,35.2c-.76-.42-1.52-.83-2.28-1.22L80.82,48.77c.7.42,1.72,1,1.72,1C115.36,70.39,140.4,78,140.4,78c35.19,11.17,55.49-6.26,55.49-6.26l-.13,0C203.59,66.1,208.62,57.47,208.62,47.79Z"/><path class="cls-2" d="M178.92,58.76c-8.79,1.79-23.31,1.29-37.59-5.08-11.92-5.14-25.06-11.81-37.14-18.48-.76-.42-2-1.13-2.71-1.52L80.77,48.77S143.59,68.87,178.92,58.76Z"/><path class="cls-2" d="M31.06,19.24a54.65,54.65,0,0,0-5.76,2.6c-.17.08-.33.15-.49.24h0c-1.35.73-2.64,1.49-3.85,2.28C12.06,29.85,4,38.85,1.6,44.7A21.48,21.48,0,0,0,.28,56.27a49.67,49.67,0,0,1,3.88-5.9,51.76,51.76,0,0,1,3.35-4.13c8.11-9.16,23-20.69,44.35-16.61L69.25,16.32,70.93,15S54,9.9,31.06,19.24Z"/><path class="cls-3" d="M257.38,57.27l11.46,5.59-2.56,4.49-13.72-6.49c-3.66-1.72-5.11-2.55-7.25-3-14.28-1-24.07-8.41-24.07-19.8,0-12.21,11.52-19.93,27.59-19.93s27.67,7.65,27.67,19.93C276.5,48.1,269,55,257.38,57.27Zm-8.55-34c-12,0-21.25,5.25-21.25,14.83s9.25,14.84,21.25,14.84,21.32-5.18,21.32-14.84S260.83,23.26,248.83,23.26Z"/><path class="cls-3" d="M322.59,18.85h6V38.3c0,14.42-10.07,20.08-21.59,20.08s-21.46-5.66-21.46-20.08V18.85h6V38.3c0,11.32,7.72,15,15.45,15s15.59-3.65,15.59-15Z"/><path class="cls-3" d="M370.55,47.82H344.88l-6.13,9.52h-6.7l25.67-39.18,25.73,39.18h-6.76Zm-22.42-5.1h19.11l-9.52-14.83Z"/><path class="cls-3" d="M396,28.92V57.34h-6.07V18.16l40,29.59V18.85h6V58Z"/><path class="cls-3" d="M462.05,57.34V23.88H443.63v-5h42.84v5H468.05V57.34Z"/><path class="cls-3" d="M520,47.82H494.34l-6.14,9.52h-6.69l25.67-39.18,25.73,39.18h-6.76Zm-22.42-5.1H516.7l-9.52-14.83Z"/><path class="cls-3" d="M598.87,57.34,588.59,29.75,569.69,58,550.86,29.75,540.58,57.34h-6.42l15.32-39.18,20.21,30.21L590,18.16l15.32,39.18Z"/><path class="cls-3" d="M613.24,57.34V18.85h6V57.34Z"/><path class="cls-3" d="M627.11,57.34l30.35-33.53H628.9v-5h39.67L638.28,52.37h32v5Z"/><path class="cls-3" d="M678.44,57.34V18.85h38.78v5H684.51v11H711.7v5H684.51V52.31h32.71v5Z"/></g></g></svg>